<svg id="Layer_1" data-name="Layer 1" xmlns="http://www.w3.org/2000/svg" viewBox="0 0 512 512"><defs><style>.cls-1{fill:#fff;}</style></defs><title>addfile-white</title><g id="surface1"><path class="cls-1" d="M372,221.64V124.75a11.24,11.24,0,0,0-3.1-7.37L260.22,3.31A10.85,10.85,0,0,0,252.43,0H80.2C48.4,0,23,25.93,23,57.73V383.41a57,57,0,0,0,57.2,57.31h136A146.75,146.75,0,0,0,341.85,512c80.89,0,146.94-65.73,146.94-146.73C488.9,294.52,438.11,235.41,372,221.64ZM263.1,37.46,336,114.18H288.71A25.78,25.78,0,0,1,263.1,88.46ZM80.2,419.38a35.76,35.76,0,0,1-35.86-36V57.73A36.05,36.05,0,0,1,80.2,21.34H241.76V88.46a47,47,0,0,0,46.95,47.06H350.6v83.34c-3.2-.1-5.76-.42-8.53-.42a148.87,148.87,0,0,0-97.32,36.71H109.22a10.67,10.67,0,1,0,0,21.34H224.9a169.24,169.24,0,0,0-18.78,33.08h-96.9a10.67,10.67,0,1,0,0,21.34h90a143.62,143.62,0,0,0-4.05,34.36c0,19.21,3.73,38.21,10.45,54.21H80.2ZM342,490.77A125.39,125.39,0,1,1,467.34,365.38,125.52,125.52,0,0,1,342,490.77Z"/><path class="cls-1" d="M109.22,223h108.1a10.68,10.68,0,0,0,0-21.35H109.22a10.68,10.68,0,0,0,0,21.35Z"/><path class="cls-1" d="M385.39,355.35H352.74V322.16a10.68,10.68,0,0,0-21.35,0v33.19H298.21a10.67,10.67,0,1,0,0,21.34h33.18v32.65a10.68,10.68,0,1,0,21.35,0V376.69h32.65a10.67,10.67,0,1,0,0-21.34Z"/></g></svg>