<?xml version="1.0" encoding="utf-8"?>
<!-- Generator: Adobe Illustrator 24.2.1, SVG Export Plug-In . SVG Version: 6.00 Build 0)  -->
<svg version="1.1" id="Layer_1" xmlns="http://www.w3.org/2000/svg" xmlns:xlink="http://www.w3.org/1999/xlink" x="0px" y="0px"
	 viewBox="0 0 1920 800" style="enable-background:new 0 0 1920 800;" xml:space="preserve">
<style type="text/css">
	.st0{fill:#28B873;}
	.st1{fill:#E1E1E1;}
	.st2{fill:#F5F5F5;}
	.st3{fill:#FFFFFF;}
	.st4{fill:#FAFAFA;}
	.st5{fill:#1A2E35;}
	.st6{fill:#375A64;}
	.st7{fill:#FFBF9D;}
	.st8{fill:#FF9A6C;}
	.st9{fill:#FF4F5B;}
	.st10{fill:none;stroke:#44555B;stroke-width:2.000000e-02;stroke-miterlimit:10;}
	.st11{opacity:0.3;}
	.st12{opacity:0.7;}
	.st13{opacity:0.5;fill:none;stroke:#333333;stroke-width:4;stroke-miterlimit:10;}
	.st14{fill:none;stroke:#FFFFFF;stroke-width:4;stroke-miterlimit:10;}
	.st15{fill:#333333;}
</style>
<rect class="st0" width="1920" height="800"/>
<g>
	<g>
		<g>
			<path class="st1" d="M1239.7,648.2c-0.7,0.2,4.6,26.8,4.6,26.8h13.6l6-25.8C1263.8,649.3,1253.8,645,1239.7,648.2z"/>
		</g>
		<g>
			<g>
				<path class="st2" d="M1231.5,798.3c0,0-20-56-17.2-71.2s8.8-18.4,13.6-23.2c4.8-4.8,8.8-8.8,10-13.6s0-24,0-24s-3.6-5.6-2.4-7.6
					s30.8,0,30.8,0s0,3.2-2.4,6.8c0,0-0.8,22.4,0.4,24.8c1.2,2.4,19.6,22.8,22.4,33.2s-11,74.7-11,74.7L1231.5,798.3L1231.5,798.3z"
					/>
			</g>
			<g>
				<g>
					<path class="st1" d="M1231.5,798.3c0,0,0.3,0,0.8,0s1.3,0,2.3,0c2,0,4.9,0,8.7-0.1c7.6,0,18.6-0.1,32.4-0.1l-0.3,0.2
						c1.7-8.1,3.5-17.4,5.4-27.5c1.8-10.1,3.8-21.2,5.2-33.1c0.3-3,0.6-6,0.7-9c0-1.5,0-3.1-0.3-4.5c-0.3-1.5-1-2.9-1.6-4.3
						c-2.8-5.6-6.7-10.9-10.7-16.1c-2-2.6-4.1-5.2-6.2-7.9c-1.1-1.3-2.1-2.6-3.2-4c-0.3-0.3-0.5-0.7-0.8-1.1
						c-0.2-0.5-0.3-0.9-0.3-1.4c-0.1-0.9-0.2-1.7-0.2-2.6c-0.3-6.9-0.1-13.9,0.1-21v-0.1l0.1-0.1c0.3-0.5,0.6-1,0.9-1.6
						c0.8-1.6,1.3-3.3,1.4-5l0.4,0.4c-6.7-0.4-13.4-0.8-19.9-0.9c-3.2,0-6.5-0.1-9.6,0.4c-0.3,0.1-0.8,0.2-0.8,0.3
						c-0.1,0.2-0.2,0.5-0.2,0.9c0,0.7,0.2,1.5,0.5,2.2c0.5,1.4,1.3,2.8,2.1,4.1l0.1,0.1v0.1c0.3,5.1,0.5,10.1,0.5,15.1
						c0,2.5,0,4.9-0.3,7.4c-0.2,2.5-1.3,4.8-2.7,6.8c-1.4,2-2.9,3.8-4.6,5.4c-1.6,1.7-3.2,3.3-4.9,4.8c-1.7,1.5-3.3,3-4.7,4.7
						c-1.4,1.7-2.6,3.5-3.5,5.4c-1.8,3.8-2.9,7.9-3.6,11.8c-0.3,2-0.2,3.9-0.1,5.9c0.1,1.9,0.4,3.8,0.7,5.7
						c1.2,7.4,2.9,14.2,4.5,20.3c3.3,12.2,6.4,21.9,8.5,28.5c1.1,3.3,1.9,5.8,2.5,7.6c0.3,0.8,0.5,1.5,0.6,2
						C1231.4,798,1231.5,798.3,1231.5,798.3s-0.1-0.2-0.3-0.6c-0.2-0.5-0.4-1.1-0.7-1.9c-0.6-1.7-1.5-4.2-2.6-7.5
						c-2.2-6.6-5.4-16.2-8.7-28.4c-1.6-6.1-3.4-12.9-4.6-20.4c-0.3-1.9-0.6-3.8-0.7-5.7c-0.2-2-0.2-4,0.1-6c0.7-4,1.7-8.1,3.6-12
						c0.9-2,2.2-3.8,3.6-5.5s3.1-3.2,4.8-4.8c1.7-1.5,3.3-3.2,4.9-4.8c1.6-1.7,3.2-3.4,4.5-5.3c1.3-1.9,2.3-4.1,2.5-6.4
						c0.3-2.4,0.3-4.8,0.3-7.3c0-4.9-0.2-9.9-0.5-15l0.1,0.2c-0.8-1.4-1.6-2.7-2.2-4.3c-0.3-0.8-0.5-1.6-0.5-2.4
						c0-0.4,0.1-0.9,0.4-1.4c0.5-0.5,0.9-0.5,1.3-0.6c3.3-0.5,6.5-0.4,9.8-0.4c6.6,0.1,13.2,0.4,20,0.9h0.4v0.4
						c-0.1,1.9-0.7,3.7-1.5,5.4c-0.3,0.6-0.6,1.2-1,1.7l0.1-0.2c-0.2,7.1-0.4,14.1-0.1,21c0,0.9,0.1,1.7,0.2,2.5
						c0,0.4,0.1,0.8,0.3,1.1c0.2,0.3,0.4,0.7,0.7,1c1,1.4,2.1,2.7,3.1,4c2.1,2.6,4.2,5.3,6.2,7.9c4,5.3,7.9,10.6,10.7,16.3
						c0.7,1.4,1.3,2.9,1.7,4.5c0.3,1.6,0.3,3.2,0.3,4.7c-0.1,3.1-0.4,6.1-0.7,9.1c-1.4,11.9-3.4,23-5.3,33.1s-3.8,19.4-5.5,27.5v0.2
						h-0.2c-13.9-0.1-24.9-0.1-32.5-0.1c-3.7,0-6.6-0.1-8.6-0.1c-1,0-1.7,0-2.2,0C1231.7,798.3,1231.5,798.3,1231.5,798.3z"/>
				</g>
			</g>
		</g>
		<g>
			<path class="st1" d="M1271.8,792.5c4.6-16.1,8.6-38.8,10-57.1c0.2-2.2,0.2-4.8-1.5-6.2c-2-1.8-5.2-0.8-7.7,0
				c-7.5,2.4-15.7,2.8-23.5,1.2c-7.6-1.6-15.1-5-22.7-3.8c-1.9,0.3-3.9,1-5,2.6c-1.2,1.8-0.9,4.3-0.6,6.5c3,18.8,9.1,40.4,14.1,56.8
				H1271.8z"/>
		</g>
	</g>
	<g>
		<g>
			<path class="st3" d="M1276.8,731.4c0,0-0.5,0.6-1.4,1.6c-1,1-2.5,2.2-4.5,3.6c-4,2.8-10.3,5.8-17.8,6.8
				c-7.5,0.9-14.4-0.4-18.9-2.2c-2.3-0.9-4.1-1.7-5.3-2.4c-1.2-0.7-1.8-1.1-1.8-1.2c0.1-0.2,2.7,1.5,7.3,3
				c4.6,1.5,11.3,2.8,18.6,1.9c7.3-0.9,13.5-3.8,17.6-6.4C1274.6,733.5,1276.7,731.3,1276.8,731.4z"/>
		</g>
	</g>
</g>
<g>
	<g>
		<path class="st4" d="M1610.1,427.9c0,0.2-3.4,0.4-7.7,0.4c-4.3,0-7.7-0.2-7.7-0.4c0-0.2,3.4-0.4,7.7-0.4
			S1610.1,427.7,1610.1,427.9z"/>
	</g>
</g>
<g>
	<g>
		<path class="st6" d="M1689.1,707.6c8-5.8,16.1-11.6,25.4-15s20-4,28.8,0.5c7.4,3.8,12.6,10.8,15.7,18.5c3.8,9.5,4.4,20.1,1.8,30
			c-1.4,5.3-4.2,10.9-9.3,13.1c-5.1,2.2-11,0.3-16-2c-16.5-7.4-31.1-19.2-41.7-33.8c2-1.9,5.2-1.9,7.7-0.7s4.4,3.2,6.5,5.1
			c6.4,5.8,14.2,10,22.6,12.1c6.2,1.6,14.6,0.9,16.7-5.2c1.4-4-0.8-8.2-2.9-11.8c-2.4-4.2-5.1-8.6-9.7-10.3c-3.4-1.2-7.1-0.6-10.7,0
			c-12.9,2.2-25.8,4.4-38.7,6.7c0.8-0.2,1.6-0.5,2.4-0.7"/>
	</g>
	<g>
		<g>
			<path class="st5" d="M1592.4,184.9c-25.5-7.1-63.4,2.8-77.9,25s-8.1,55.2-9.2,81.7c-1.1,26.5-0.1,53.4-6.4,79.2
				c-4,16.4-11.8,32.9-26,42c-16.3,10.4-40.6,11.4-48.3,29c-6.4,14.8,3.5,32.9-2.9,47.6c-2.9,6.5-8.7,11.5-11.2,18.2
				c-3.5,9.2,0.3,20,7.1,27.1c6.8,7.2,16.1,11.3,25.3,14.7c28.1,10.3,58.2,15,88.1,13.6c21.8-1,45.2-6.2,59.5-22.7
				c11.2-12.9,14.9-30.7,17-47.7C1620,387.8,1622.2,272.6,1592.4,184.9"/>
		</g>
		<g>
			<g>
				<path class="st6" d="M1450,503.3c0.2-0.1-1-2.1-2.1-6c-1.2-3.9-2-9.9-1-17.1s4-15.5,9.2-23.6s12.8-15.7,21.2-23.2
					c8.4-7.5,16.6-14.4,23.3-21.6c6.7-7.2,11.8-14.6,14.9-21.4s4.4-12.8,4.7-16.9c0.1-2.1,0.2-3.7,0-4.8c-0.1-1.1-0.1-1.7-0.2-1.7
					c-0.5-0.1,0.8,9.5-5.8,22.7c-3.2,6.5-8.3,13.7-15,20.7c-6.6,7-14.9,13.9-23.3,21.4s-16.1,15.3-21.4,23.6
					c-5.3,8.3-8.2,17-9.1,24.4s0.2,13.6,1.6,17.5c0.7,2,1.4,3.4,2,4.4C1449.6,502.8,1449.9,503.3,1450,503.3z"/>
			</g>
		</g>
	</g>
	<g>
		<polygon class="st5" points="1514.2,691.1 1505.6,798.5 1762.4,799.8 1692.6,701.6 		"/>
	</g>
	<g>
		<g>
			<path class="st7" d="M1311.2,432.8c0.7,0.6-15,84.7-23,126.8c-2.7,14.4,3,29,14.7,37.8l0,0c12.1,9.1,28.4,10.1,41.6,2.8
				l106.9-55.6l-32.7-68.5l-67.4,38.2l4.4-71.3L1311.2,432.8z"/>
		</g>
		<g>
			<g>
				<path class="st8" d="M1347.7,366c-0.8-3-4.6-4.4-7.6-3.6s-5.4,3-7.6,5.2l-8.6,5.2c-3.4,1.9-5.1,6-5.4,9.8
					c-0.2,3.9,0.8,7.7,1.8,11.5c0.9,3.3,2.2,7,5.4,8.2c3.5,1.3,7.4-1.4,9.1-4.8s1.8-7.3,2.7-10.9c1-4.4,3.1-8.5,6.1-11.9
					C1345.7,372.1,1348.6,369.2,1347.7,366z"/>
			</g>
			<g>
				<g>
					<path class="st6" d="M1275.9,369.3c-1.1-3.6,1.7-7.3,5.6-7c17.5,1.4,59.2,7.3,84,14.4c35.1,10.1,58.2,16.6,58.2,16.6l74.5-1.7
						c0,0-8.9,25.7-37.3,25.8c-21.5,0.1-44-13.7-44-13.7s-95.4-32.5-135.5-30.7C1278.8,373.2,1276.6,371.6,1275.9,369.3
						L1275.9,369.3z"/>
				</g>
				<g>
					<path class="st9" d="M1484.1,392c0.9,2.6-2.1,4.9-4.8,5.4c-2.7,0.5-5.8,0.4-7.8,2.3c-1.5,1.5-1.8,3.9-1.6,6.1
						c0.2,2.2,0.8,4.3,0.8,6.4c0,1.5-0.4,3-1.4,4c-2,2-5.5,1.3-7.4-0.7s-2.5-5-2.7-7.7c-0.2-2-0.2-4-0.9-5.9
						c-0.7-1.9-2.2-3.6-4.2-3.8c-2.4-0.3-4.4,1.5-6.7,2.3c-4.7,1.6-10.4-2.2-10.8-7.2L1484.1,392z"/>
				</g>
				<g>
					<g>
						<path class="st5" d="M1302.7,365.3c0,0-1.3,0.8-3.6,1.7c-2.3,0.9-5.6,2-9.3,2.5c-3.7,0.6-7.2,0.5-9.7,0.3s-4-0.6-4-0.6
							s0.4,0,1.1,0.1s1.7,0.2,2.9,0.3c2.5,0.2,5.9,0.2,9.6-0.3c3.7-0.6,7-1.6,9.3-2.5c1.1-0.5,2.1-0.9,2.7-1.2
							C1302.4,365.4,1302.7,365.3,1302.7,365.3z"/>
					</g>
				</g>
				<g>
					<g>
						<path class="st5" d="M1335.4,370c0,0-0.1,0-0.3,0c-0.3,0-0.6-0.1-0.9-0.1c-0.8-0.1-1.9-0.2-3.3-0.3c-2.8-0.2-6.6-0.1-10.8,0.6
							c-4.2,0.7-7.9,1.9-10.4,3c-1.3,0.5-2.3,1-3,1.3c-0.3,0.1-0.6,0.3-0.8,0.4c-0.2,0.1-0.3,0.1-0.3,0.1s0.1-0.1,0.3-0.2
							c0.3-0.1,0.5-0.3,0.8-0.4c0.7-0.4,1.7-0.9,3-1.4c2.6-1.1,6.2-2.4,10.5-3.1c4.2-0.7,8.1-0.7,10.9-0.5c1.4,0.1,2.5,0.3,3.3,0.4
							c0.3,0.1,0.6,0.1,0.9,0.2C1335.3,369.9,1335.4,370,1335.4,370z"/>
					</g>
				</g>
				<g>
					<g>
						<path class="st5" d="M1359.8,382.3c0,0-1.2-0.3-3.4-1c-1.1-0.3-2.5-0.7-4-1.2c-0.8-0.2-1.7-0.5-2.3-1.3
							c-0.3-0.4-0.4-0.9-0.2-1.4c0.1-0.5,0.6-0.8,1.1-1c1-0.4,2.1-0.3,3.2,0c1.1,0.2,2.2,0.5,3.4,0.8c2.3,0.7,4.8,1.6,7.2,2.8
							c1.2,0.6,2.4,1.3,3.7,2c0.6,0.4,1.3,0.7,1.7,1.4c0.2,0.3,0.3,0.8,0.1,1.1c-0.2,0.4-0.5,0.6-0.8,0.8c-2.8,1.1-5.9,1.4-9.1,1
							c-6.3-0.8-11.7-3.9-16.5-6.4c-4.8-2.6-9.3-4.6-13.4-5.3c-4-0.8-7.4-0.4-9.6,0.4c-1.1,0.3-1.9,0.7-2.4,1s-0.8,0.4-0.8,0.4
							s0.3-0.2,0.8-0.5s1.3-0.7,2.4-1c2.2-0.7,5.6-1.2,9.7-0.4c4.1,0.7,8.6,2.8,13.4,5.3s10.1,5.5,16.4,6.3c3.1,0.4,6.2,0.1,9-1
							c0.3-0.2,0.6-0.4,0.8-0.7c0.1-0.3,0.1-0.7-0.1-1c-0.4-0.6-1-0.9-1.6-1.3c-1.2-0.8-2.4-1.4-3.6-2c-2.4-1.2-4.9-2.1-7.2-2.8
							c-1.2-0.3-2.3-0.6-3.4-0.8c-1.1-0.2-2.2-0.3-3.2,0c-0.5,0.2-0.9,0.5-1,0.9c-0.2,0.4,0,0.9,0.2,1.3c0.6,0.7,1.4,1,2.2,1.3
							c1.5,0.5,2.9,0.9,4,1.2C1358.6,381.9,1359.8,382.3,1359.8,382.3z"/>
					</g>
				</g>
				<g>
					<g>
						<path class="st5" d="M1377.2,380.9c0,0,0.4,0.5,0.6,1.6c0.2,1,0.2,2.5-0.5,4s-1.9,2.4-2.8,2.9s-1.6,0.5-1.6,0.5
							s0.6-0.1,1.5-0.6s2-1.4,2.7-2.8s0.7-2.9,0.5-3.9C1377.4,381.5,1377.1,380.9,1377.2,380.9z"/>
					</g>
				</g>
				<g>
					<g>
						<path class="st5" d="M1407.4,388.8c0,0-1.6,0-4.2-0.2s-6.2-0.6-10.1-0.6c-4-0.1-7.6,0.5-9.9,1.6c-0.6,0.2-1.1,0.5-1.6,0.8
							c-0.5,0.2-0.8,0.5-1.1,0.7c-0.6,0.4-0.9,0.6-0.9,0.6s0.3-0.3,0.9-0.7c0.3-0.2,0.7-0.5,1.1-0.7c0.4-0.3,1-0.6,1.6-0.8
							c2.4-1.1,6-1.7,10-1.6c4,0,7.6,0.5,10.2,0.7c1.3,0.1,2.3,0.2,3.1,0.2C1407,388.7,1407.4,388.8,1407.4,388.8z"/>
					</g>
				</g>
				<g>
					<g>
						<path class="st5" d="M1438.9,413.6c0,0-0.6-0.5-1.7-1.5c-0.5-0.5-1.2-1.1-2-1.7s-1.7-1.4-2.7-2.1c-2-1.5-4.5-3.2-7.4-4.9
							c-2.9-1.6-6.2-3.3-9.8-4.7c-3.6-1.4-7.2-2.4-10.4-3.1c-3.3-0.7-6.3-1.1-8.8-1.3c-1.3-0.2-2.4-0.2-3.4-0.2
							c-1-0.1-1.9-0.1-2.6-0.1c-1.4,0-2.2,0-2.2,0s0.8,0,2.2,0c0.7,0,1.6,0,2.6,0s2.2,0.1,3.4,0.2c2.5,0.2,5.5,0.6,8.8,1.3
							c3.3,0.7,6.8,1.7,10.5,3.1c3.6,1.4,6.9,3,9.9,4.7c2.9,1.7,5.4,3.4,7.4,4.9c1,0.7,1.9,1.5,2.7,2.1c0.8,0.6,1.4,1.2,1.9,1.7
							C1438.4,413,1438.9,413.6,1438.9,413.6z"/>
					</g>
				</g>
				<g>
					<g>
						<path class="st5" d="M1460.5,414.1c0,0-0.5,0.3-1.6,0.7c-1.1,0.4-2.7,0.7-4.7,0.6s-4.4-0.6-6.8-1.8c-2.4-1.1-4.8-2.9-7.1-4.9
							c-2.3-2.1-4.3-4.2-6.1-6.1c-1.8-1.9-3.6-3.6-5.1-4.9s-2.9-2.2-3.8-2.8c-0.5-0.3-0.9-0.5-1.1-0.6c-0.3-0.1-0.4-0.2-0.4-0.2
							s2.3,1,5.4,3.6c1.6,1.3,3.3,2.9,5.1,4.8c1.9,1.9,3.8,4,6.1,6.1c2.3,2,4.7,3.8,7.1,4.9s4.8,1.7,6.8,1.8c2,0.1,3.6-0.2,4.7-0.5
							c0.5-0.2,0.9-0.3,1.2-0.4C1460.3,414.2,1460.5,414.1,1460.5,414.1z"/>
					</g>
				</g>
				<g>
					<g>
						<path class="st5" d="M1488.7,406.2c0,0-0.2,0-0.6,0s-0.9-0.1-1.6-0.1c-1.3,0-3.1,0.1-5.1,0.5s-3.7,1.1-4.9,1.6
							c-0.6,0.3-1.1,0.5-1.4,0.7s-0.5,0.3-0.5,0.3s0.7-0.5,1.9-1.1c1.2-0.6,2.9-1.3,4.9-1.7c2-0.4,3.8-0.5,5.1-0.5
							C1487.9,406.1,1488.7,406.2,1488.7,406.2z"/>
					</g>
				</g>
			</g>
			<g>
				<path class="st7" d="M1283.6,412.8l-0.8-15.4c-0.1-1.7,0.4-3.3,1.3-4.7l0.1-0.1c2.6-3.9,6.1-7.3,10.1-9.7l33.1-20.5
					c2.1-1.3,5-0.1,5.3,2.3c0.4,2.7-0.8,8.9-3.2,11.3c-4.8,4.9-13.9,10.2-13.9,10.2l33.2-6.4c0,0,2.9,7.4-4.4,11.6l13.7-2.9
					c0,0,4.5,6.4-1.6,10.5c-6.1,4.2-17,7.8-17,7.8s17,7.1,16.5,12.9c-0.4,5.7-0.6,24-0.6,24l-45.5-3.3L1283.6,412.8z"/>
			</g>
			<g>
				<g>
					<path class="st8" d="M1316.9,385.2c0,0-0.1,0.1-0.3,0.2c-0.3,0.2-0.6,0.3-0.9,0.5c-0.8,0.4-2,1-3.5,1.8c-1.4,0.8-3.1,1.8-4.9,3
						s-3.9,2.4-5.9,3.9c-1,0.8-1.8,1.7-2.2,2.8c-0.5,1.1-0.6,2.2-0.6,3.3c0.1,2.2,0.7,4,1.1,5.6s0.7,2.9,0.8,3.8
						c0.1,0.9,0,1.4,0,1.4s0-0.5-0.1-1.4s-0.4-2.2-0.9-3.8c-0.4-1.6-1.1-3.5-1.2-5.7c0-1.1,0.1-2.3,0.6-3.4s1.3-2.1,2.3-2.9
						s2-1.5,3-2.1s1.9-1.3,2.9-1.9c1.8-1.2,3.5-2.2,5-3s2.7-1.3,3.5-1.7c0.3-0.2,0.7-0.3,1-0.4
						C1316.8,385.2,1316.9,385.2,1316.9,385.2z"/>
				</g>
			</g>
			<g>
				<g>
					<path class="st8" d="M1320,419.7c0,0-0.1-0.2-0.4-0.5c-0.3-0.4-0.7-0.9-1.1-1.5c-0.5-0.7-1.1-1.4-1.8-2.3
						c-0.7-0.9-1.5-2-2.1-3.3c-1.2-2.7-0.7-6.7,2.1-9.5c1.4-1.4,3.2-2.3,5.1-3.1c1.9-0.9,3.8-1.7,5.9-2.6c8.2-3.3,15.9-5.5,21.5-6.9
						c2.8-0.7,5.1-1.2,6.7-1.5c0.7-0.1,1.3-0.3,1.8-0.4c0.4-0.1,0.6-0.1,0.6-0.1s-0.2,0.1-0.6,0.2c-0.5,0.1-1.1,0.3-1.8,0.4
						c-1.6,0.4-3.8,0.9-6.6,1.6c-5.6,1.4-13.2,3.6-21.4,6.9c-2,0.8-4,1.7-5.9,2.6s-3.7,1.8-5,3.1c-2.7,2.6-3.2,6.6-2.1,9.2
						c0.6,1.3,1.3,2.4,2,3.3s1.3,1.7,1.8,2.3c0.5,0.6,0.8,1.2,1.1,1.5C1319.9,419.5,1320,419.7,1320,419.7z"/>
				</g>
			</g>
			<g>
				<g>
					<path class="st8" d="M1355.2,399.3c0,0-0.3,0.2-0.8,0.5c-0.7,0.4-1.4,0.7-2.1,1.1c-1.8,0.9-4.3,2.2-7.1,3.4
						c-2.8,1.2-5.5,2.1-7.4,2.7c-1,0.3-1.8,0.5-2.3,0.7c-0.5,0.1-0.9,0.2-0.9,0.2s0.3-0.1,0.8-0.3c0.7-0.2,1.5-0.5,2.3-0.8
						c1.9-0.6,4.5-1.6,7.4-2.8c2.8-1.2,5.3-2.4,7.2-3.3c0.8-0.4,1.5-0.7,2.2-1C1354.9,399.4,1355.2,399.3,1355.2,399.3z"/>
				</g>
			</g>
			<g>
				<g>
					<path class="st5" d="M1452.9,326c0,0-0.6,0.8-1.3,2.3c-0.7,1.5-1.5,3.9-1.5,6.9s0.9,6.7,3.6,9.7c1.3,1.5,2.9,2.9,4.5,4.4
						s3.2,3.2,4,5.5c0.8,2.2,0.6,4.7-0.2,6.7c-0.8,2.1-2,3.9-3.3,5.4c-1.3,1.6-2.6,3-3.8,4.3c-1.2,1.3-2.2,2.6-3.1,3.9
						c-1.7,2.5-2.4,4.9-2.5,6.6s0.3,2.6,0.2,2.6c0,0-0.1-0.2-0.2-0.7c-0.1-0.4-0.2-1.1-0.2-2c0-1.7,0.7-4.2,2.4-6.8
						c0.8-1.3,1.9-2.6,3-4c1.2-1.3,2.5-2.7,3.8-4.3c1.2-1.6,2.4-3.3,3.2-5.4c0.8-2,1-4.4,0.2-6.5c-0.8-2.2-2.4-3.9-3.9-5.4
						c-1.6-1.5-3.2-2.9-4.5-4.5c-2.7-3.1-3.6-6.9-3.6-10s0.9-5.5,1.6-7C1452.3,326.7,1452.9,326,1452.9,326z"/>
				</g>
			</g>
			<g>
				<g>
					<path class="st5" d="M1468,325.2c0,0-0.6,0.8-1.3,2.3c-0.7,1.5-1.5,3.9-1.5,6.9s0.9,6.7,3.6,9.7c1.3,1.5,2.9,2.9,4.5,4.4
						s3.2,3.2,4,5.5c0.8,2.2,0.6,4.7-0.2,6.7c-0.8,2.1-2,3.9-3.3,5.4c-1.3,1.6-2.6,3-3.8,4.3c-1.2,1.3-2.2,2.6-3.1,3.9
						c-1.7,2.5-2.4,4.9-2.5,6.6s0.3,2.6,0.2,2.6c0,0-0.1-0.2-0.2-0.7c-0.1-0.4-0.2-1.1-0.2-2c0-1.7,0.7-4.2,2.4-6.8
						c0.8-1.3,1.9-2.6,3-4c1.2-1.3,2.5-2.7,3.8-4.3c1.2-1.6,2.4-3.3,3.2-5.4c0.8-2,1-4.4,0.2-6.5c-0.8-2.2-2.4-3.9-3.9-5.4
						c-1.6-1.5-3.2-2.9-4.5-4.5c-2.7-3.1-3.6-6.9-3.6-10s0.9-5.5,1.6-7C1467.4,325.9,1468,325.2,1468,325.2z"/>
				</g>
			</g>
		</g>
		<g>
			<g>
				<path class="st8" d="M1349.9,567.3c-0.1,0,0.4-12.4,1.1-27.8c0.7-15.3,1.3-27.8,1.4-27.8s-0.4,12.4-1.1,27.8
					C1350.7,554.9,1350,567.3,1349.9,567.3z"/>
			</g>
		</g>
		<g>
			<g>
				<path class="st8" d="M1321.4,450.1c-0.1,0.1-2.1-2-4.6-4.6s-4.4-4.8-4.3-4.9s2.1,2,4.6,4.6
					C1319.5,447.8,1321.4,450,1321.4,450.1z"/>
			</g>
		</g>
	</g>
	<g>
		<path class="st6" d="M1513.2,687.6l-13.4,112.2h186.7l-31.1-79.8l42.8-10.2c0,0-2.9-8-5.6-8.2
			C1689.8,701.5,1513.2,687.6,1513.2,687.6z"/>
	</g>
	<g>
		<g>
			<g>
				<path class="st0" d="M1417.3,473.2c0,0,72.4-46.9,91.5-53.3c11.7-3.9,46.9-4.6,46.9-4.6l-66,112.7l-37.5,18.2L1417.3,473.2z"/>
			</g>
		</g>
		<g>
			<g>
				<path class="st0" d="M1780.4,552c-22.1-53.4-57.9-113.7-68.5-124.1c-10.6-10.3-75.6-18.7-75.6-18.7l-85.2,9.2l-68.3,93.6
					l29.9,146.1l-1,2c-4.6,8.8-4,19.3,1.6,27.5l0,0l179.4,14l0.2-138.3L1780.4,552z"/>
			</g>
		</g>
		<g>
			<g>
				<path class="st5" d="M1668.1,630.3c0,0-0.3,0.4-0.9,1.2c-0.6,0.7-1.5,1.9-2.7,3.3c-2.4,2.8-6.1,6.6-11.1,10.9
					c-5,4.3-11.4,8.8-19.1,12.9c-7.7,4.1-16.6,7.7-26.4,10s-19.4,3.1-28.1,2.8s-16.5-1.5-22.8-3.1c-6.4-1.6-11.4-3.4-14.8-4.8
					c-1.7-0.7-3-1.3-3.9-1.7s-1.3-0.6-1.3-0.7c0,0,0.5,0.1,1.4,0.5c0.9,0.3,2.2,0.9,3.9,1.6c3.4,1.3,8.4,3,14.8,4.5
					s14.1,2.7,22.7,2.9s18.2-0.6,27.9-2.8c9.7-2.3,18.6-5.8,26.2-9.9c7.6-4,14-8.5,19-12.7s8.8-7.9,11.2-10.6
					c1.3-1.3,2.2-2.4,2.8-3.1C1667.7,630.6,1668.1,630.2,1668.1,630.3z"/>
			</g>
		</g>
		<g>
			<g>
				<path class="st5" d="M1692.8,558.2c0,0-0.1-0.4-0.3-1.3c-0.2-0.9-0.5-2.2-0.8-3.8c-0.7-3.4-1.6-8.2-2.7-14.1
					c-2.3-12-5.3-28.4-8.7-46.5c-0.4-2.3-0.8-4.5-1.2-6.7c-0.4-2.2-0.9-4.4-1.1-6.6c-0.6-4.3-0.7-8.6-0.5-12.6
					c0.3-4,0.9-7.8,1.7-11.3c0.9-3.5,2-6.6,3.2-9.4c2.4-5.6,5.1-9.8,7.2-12.4c1-1.4,1.9-2.3,2.5-3s0.9-1,0.9-1s-0.3,0.4-0.8,1.1
					s-1.4,1.7-2.3,3.1c-2,2.7-4.6,6.9-6.9,12.5c-1.2,2.8-2.2,5.9-3,9.4s-1.4,7.2-1.6,11.2s-0.1,8.2,0.5,12.5
					c0.2,2.2,0.8,4.3,1.1,6.5c0.4,2.2,0.8,4.5,1.3,6.7c3.3,18.2,6.3,34.6,8.5,46.6c1,5.9,1.9,10.7,2.5,14.1c0.3,1.6,0.5,2.9,0.6,3.9
					C1692.8,557.7,1692.8,558.2,1692.8,558.2z"/>
			</g>
		</g>
		<g>
			<g>
				<path class="st5" d="M1491.5,555c-0.1,0-0.3-0.8-0.6-2.4c-0.3-1.7-0.8-3.9-1.3-6.6c-1.1-5.6-2.5-13.3-4-21.9
					c-1.5-8.6-2.9-16.3-3.8-22c-0.4-2.7-0.8-4.9-1.1-6.7c-0.2-1.6-0.3-2.5-0.3-2.5c0.1,0,0.3,0.8,0.6,2.4c0.3,1.7,0.8,3.9,1.3,6.6
					c1.1,5.6,2.5,13.3,4,21.9c1.5,8.6,2.9,16.3,3.8,22c0.4,2.7,0.8,4.9,1.1,6.7C1491.5,554.1,1491.6,554.9,1491.5,555z"/>
			</g>
		</g>
		<g>
			<g>
				<path class="st4" d="M1699,478.3c-0.2-0.1,0.8-4.3,2.3-9.4s2.9-9.2,3.1-9.1s-0.8,4.3-2.3,9.4S1699.2,478.4,1699,478.3z"/>
			</g>
		</g>
		<g>
			<g>
				<path class="st4" d="M1708.6,511.2c-0.1,0.2-3.3-1.7-7.2-4.2c-3.8-2.5-6.8-4.7-6.7-4.9c0.1-0.2,3.3,1.7,7.2,4.2
					C1705.7,508.9,1708.7,511,1708.6,511.2z"/>
			</g>
		</g>
		<g>
			<g>
				<path class="st4" d="M1726.7,498.5c-0.2,0-0.4-3.8,0.2-8.6c0.6-4.7,1.8-8.4,2-8.3s-0.5,3.8-1.1,8.4
					C1727.2,494.7,1727,498.5,1726.7,498.5z"/>
			</g>
		</g>
		<g>
			<g>
				<path class="st4" d="M1730.4,530.4c-0.2,0.1-1.3-3.4-2.9-7.7c-1.6-4.2-3-7.6-2.8-7.7c0.2-0.1,2,3.1,3.6,7.4
					C1729.9,526.7,1730.6,530.4,1730.4,530.4z"/>
			</g>
		</g>
		<g>
			<g>
				<path class="st4" d="M1716.3,550.1c-0.2,0.2-3.1-2.2-6.5-5.3s-6-5.8-5.9-6c0.2-0.2,3.1,2.2,6.5,5.3
					C1713.8,547.3,1716.5,549.9,1716.3,550.1z"/>
			</g>
		</g>
		<g>
			<g>
				<path class="st4" d="M1759.4,527.2c0.2,0.2-2.4,3-5,7s-4.2,7.5-4.4,7.4c-0.2-0.1,1.1-3.8,3.7-7.8
					C1756.3,529.7,1759.2,527,1759.4,527.2z"/>
			</g>
		</g>
		<g>
			<g>
				<path class="st4" d="M1712.4,446.2c-0.2,0.2-2.3-1.5-4.8-3.8s-4.4-4.2-4.2-4.4c0.2-0.2,2.3,1.5,4.8,3.8
					C1710.7,444.1,1712.6,446.1,1712.4,446.2z"/>
			</g>
		</g>
		<g>
			<g>
				<path class="st4" d="M1659.4,447.5c0.1,0.2-2.6,2.1-6.2,4.1c-3.5,2.1-6.5,3.6-6.6,3.4s2.6-2.1,6.2-4.1
					C1656.3,448.8,1659.3,447.3,1659.4,447.5z"/>
			</g>
		</g>
		<g>
			<g>
				<path class="st4" d="M1650.1,493.9c-0.2,0.1-2.2-2.4-4.6-5.7c-2.3-3.3-4.1-6.1-3.9-6.2s2.2,2.4,4.6,5.7
					S1650.3,493.8,1650.1,493.9z"/>
			</g>
		</g>
		<g>
			<g>
				<path class="st4" d="M1670.2,509c0.2,0.1-1.2,3.4-3.7,7.1c-2.5,3.7-5.1,6.2-5.2,6.1c-0.2-0.2,2.1-2.9,4.5-6.6
					C1668.3,512,1670,508.9,1670.2,509z"/>
			</g>
		</g>
		<g>
			<g>
				<path class="st4" d="M1621.5,512.4c-0.2,0.1-1.6-3.6-3.9-7.8c-2.3-4.2-4.6-7.4-4.4-7.6c0.2-0.1,2.8,2.8,5.1,7.2
					C1620.6,508.5,1621.7,512.3,1621.5,512.4z"/>
			</g>
		</g>
		<g>
			<g>
				<path class="st4" d="M1631.6,544c-0.2-0.1,1.4-3.6,3.5-7.7c2.1-4.2,4.1-7.5,4.3-7.3c0.2,0.1-1.4,3.6-3.5,7.7
					C1633.8,540.8,1631.8,544.1,1631.6,544z"/>
			</g>
		</g>
		<g>
			<g>
				<path class="st4" d="M1665.7,567.6c-0.2,0-1.2-4-2.1-8.9c-0.9-5-1.5-9.1-1.2-9.1c0.2,0,1.2,4,2.1,8.9
					C1665.4,563.5,1665.9,567.6,1665.7,567.6z"/>
			</g>
		</g>
		<g>
			<g>
				<path class="st4" d="M1603.9,550.3c-0.2,0.2-2.7-2.4-5.9-5.5c-3.2-3.1-5.9-5.5-5.8-5.7s3.1,1.9,6.4,5.1
					C1601.8,547.3,1604,550.1,1603.9,550.3z"/>
			</g>
		</g>
		<g>
			<g>
				<path class="st4" d="M1576.5,504.6c0.2,0.2-2.5,2.8-5.9,5.8c-3.4,3-6.3,5.4-6.4,5.2c-0.2-0.2,2.5-2.8,5.9-5.8
					C1573.4,506.7,1576.3,504.4,1576.5,504.6z"/>
			</g>
		</g>
		<g>
			<g>
				<path class="st4" d="M1565.7,491.3c-0.2,0.1-2.3-2.8-4.8-6.6c-2.4-3.8-4.3-7-4.1-7.1c0.2-0.1,2.3,2.8,4.8,6.6
					C1564,488,1565.9,491.2,1565.7,491.3z"/>
			</g>
		</g>
		<g>
			<g>
				<path class="st4" d="M1523.9,514.2c-0.2,0.1-2.9-3.4-6-7.9s-5.4-8.3-5.3-8.4c0.2-0.1,2.9,3.4,6,7.9
					C1521.8,510.3,1524.1,514.1,1523.9,514.2z"/>
			</g>
		</g>
		<g>
			<g>
				<path class="st4" d="M1536.2,541.7c0,0.2-5.4,0.3-12,0.7c-6.6,0.3-12,0.8-12,0.5c0-0.1,1.3-0.4,3.5-0.7s5.2-0.6,8.5-0.7
					c3.3-0.2,6.3-0.2,8.5-0.1C1534.9,541.4,1536.2,541.5,1536.2,541.7z"/>
			</g>
		</g>
		<g>
			<g>
				<path class="st4" d="M1539.3,462.1c0.2,0.1-0.7,4.1-1.5,9.2c-0.9,5.1-1.3,9.2-1.6,9.2c-0.2,0-0.2-4.2,0.7-9.3
					C1537.7,466,1539.1,462,1539.3,462.1z"/>
			</g>
		</g>
		<g>
			<g>
				<path class="st4" d="M1522.6,438c-0.2-0.1,2.6-3.9,6.2-8.3c3.6-4.5,6.7-7.9,6.9-7.8c0.2,0.1-2.6,3.9-6.2,8.3
					C1525.9,434.7,1522.8,438.2,1522.6,438z"/>
			</g>
		</g>
		<g>
			<g>
				<path class="st4" d="M1505.9,460.5c-0.2,0.2-4.1-3.8-9.2-8.3s-9.5-7.9-9.4-8.1c0.1-0.1,1.3,0.6,3.1,1.9c1.8,1.3,4.3,3.2,6.8,5.5
					c2.6,2.3,4.8,4.5,6.3,6.1C1505.2,459.3,1506,460.4,1505.9,460.5z"/>
			</g>
		</g>
		<g>
			<g>
				<path class="st4" d="M1478.1,468.3c0.1,0.2-4.8,2.8-10.2,6.9c-5.4,4.1-9.3,8.1-9.4,7.9c-0.1-0.1,0.8-1.2,2.3-2.8
					c1.6-1.6,3.9-3.7,6.6-5.8c2.7-2.1,5.4-3.7,7.4-4.8C1476.8,468.7,1478.1,468.2,1478.1,468.3z"/>
			</g>
		</g>
		<g>
			<g>
				<path class="st4" d="M1440.9,491.4c-0.2,0-0.2-4.5-0.4-9.9c-0.2-5.5-0.6-9.9-0.3-10c0.2,0,1,4.4,1.2,9.9
					C1441.5,486.9,1441.1,491.4,1440.9,491.4z"/>
			</g>
		</g>
		<g>
			<g>
				<path class="st4" d="M1468.4,515.7c-0.2,0.2-3.6-2.5-7.6-6c-4.1-3.5-7.2-6.5-7.1-6.7c0.2-0.2,3.6,2.5,7.6,6
					S1468.5,515.5,1468.4,515.7z"/>
			</g>
		</g>
		<g>
			<g>
				<path class="st4" d="M1511.8,480.9c0.1,0.2-4.2,1.4-9.5,2.5c-5.3,1.2-9.6,1.9-9.7,1.7c-0.1-0.2,4.2-1.4,9.5-2.5
					C1507.5,481.4,1511.8,480.6,1511.8,480.9z"/>
			</g>
		</g>
		<g>
			<g>
				<path class="st4" d="M1597.1,492.1c-0.2,0.2-1.9-1.4-3.9-3.5s-3.4-3.9-3.3-4c0.2-0.2,1.9,1.4,3.9,3.5
					C1595.8,490.2,1597.2,492,1597.1,492.1z"/>
			</g>
		</g>
		<g>
			<g>
				<path class="st4" d="M1635.3,469.9c0.2,0.2-2.1,2.4-5,5s-5.4,4.6-5.5,4.4c-0.2-0.2,2.1-2.4,5-5
					C1632.7,471.7,1635.1,469.8,1635.3,469.9z"/>
			</g>
		</g>
		<g>
			<g>
				<path class="st4" d="M1668,479c-0.2-0.1,0.7-3.8,1.5-8.4s1.2-8.5,1.5-8.5c0.2,0,0.2,3.9-0.6,8.6
					C1669.6,475.4,1668.2,479.1,1668,479z"/>
			</g>
		</g>
		<g>
			<g>
				<path class="st4" d="M1500,531.8c-0.2,0.1-1.3-1.6-2.5-3.9c-1.2-2.3-1.9-4.2-1.7-4.3c0.2-0.1,1.3,1.6,2.5,3.9
					C1499.4,529.8,1500.2,531.7,1500,531.8z"/>
			</g>
		</g>
		<g>
			<g>
				<path class="st4" d="M1558.9,534.1c-0.2,0.1-1.3-2.4-2.4-5.4c-1.1-3.1-1.8-5.6-1.6-5.7c0.2-0.1,1.3,2.4,2.4,5.4
					C1558.4,531.5,1559.1,534.1,1558.9,534.1z"/>
			</g>
		</g>
		<g>
			<g>
				<path class="st4" d="M1591,518c-0.2-0.2,0.8-1.5,2.1-3.1c1.4-1.5,2.6-2.7,2.8-2.5c0.2,0.2-0.8,1.5-2.1,3.1
					C1592.4,517,1591.2,518.1,1591,518z"/>
			</g>
		</g>
		<g>
			<g>
				<path class="st4" d="M1525,620.9c-0.2,0.1-2.2-3.1-3.7-7.5s-1.9-8.2-1.7-8.2c0.2,0,1,3.6,2.5,7.9
					C1523.6,617.4,1525.2,620.8,1525,620.9z"/>
			</g>
		</g>
		<g>
			<g>
				<path class="st4" d="M1550.1,622.8c-0.2-0.1,0.7-3.3,2-7.1s2.6-6.9,2.8-6.8c0.2,0.1-0.7,3.3-2,7.1S1550.3,622.8,1550.1,622.8z"
					/>
			</g>
		</g>
		<g>
			<g>
				<path class="st4" d="M1542.7,651.3c-0.2,0.1-2-2.9-4-6.7s-3.4-7-3.2-7.1c0.2-0.1,2,2.9,4,6.7S1542.9,651.2,1542.7,651.3z"/>
			</g>
		</g>
		<g>
			<g>
				<path class="st4" d="M1589.2,643.1c-0.1,0.2-3.8-0.7-8.2-2.5c-4.4-1.8-7.7-3.7-7.6-3.9s3.6,1.4,7.9,3.1
					C1585.7,641.6,1589.2,642.8,1589.2,643.1z"/>
			</g>
		</g>
		<g>
			<g>
				<path class="st4" d="M1574.2,626.2c-0.1-0.2,2.8-2.1,6.1-4.8c3.3-2.7,5.7-5.1,5.9-5c0.2,0.1-2,2.9-5.4,5.6
					C1577.4,624.8,1574.3,626.4,1574.2,626.2z"/>
			</g>
		</g>
		<g>
			<g>
				<path class="st4" d="M1612.8,638.2c-0.1,0.2-3.1-1.7-7.1-3.6c-3.9-1.9-7.3-3-7.2-3.2c0.1-0.2,3.6,0.5,7.6,2.4
					C1610.1,635.7,1613,638,1612.8,638.2z"/>
			</g>
		</g>
		<g>
			<g>
				<path class="st4" d="M1621.1,653.6c-0.2-0.2,2.1-2.5,4.6-5.6s4.2-5.8,4.5-5.7c0.2,0.1-1.3,3.1-3.8,6.2
					C1623.8,651.7,1621.2,653.7,1621.1,653.6z"/>
			</g>
		</g>
		<g>
			<g>
				<path class="st4" d="M1536.7,683.5c-0.1,0.2-3.6-1.9-7.8-4.7c-4.2-2.8-7.4-5.2-7.3-5.4s3.6,1.9,7.8,4.7
					C1533.6,680.9,1536.8,683.3,1536.7,683.5z"/>
			</g>
		</g>
		<g>
			<g>
				<path class="st4" d="M1568.1,675.7c0.1,0.2-3.3,1.7-7.1,4.2c-3.8,2.5-6.6,5-6.8,4.8c-0.2-0.1,2.4-3,6.3-5.5
					C1564.5,676.7,1568.1,675.5,1568.1,675.7z"/>
			</g>
		</g>
		<g>
			<g>
				<path class="st4" d="M1596.3,688.2c-0.2,0.1-1.8-2-3.5-4.7c-1.8-2.7-3-5-2.8-5.1s1.8,2,3.5,4.7
					C1595.2,685.7,1596.4,688,1596.3,688.2z"/>
			</g>
		</g>
		<g>
			<g>
				<path class="st4" d="M1630.1,676.9c0.1,0.2-3.1,1.7-6.7,4.1c-3.6,2.3-6.3,4.6-6.5,4.4c-0.2-0.2,2.3-2.8,6-5.1
					C1626.7,677.9,1630.1,676.7,1630.1,676.9z"/>
			</g>
		</g>
		<g>
			<g>
				<path class="st4" d="M1645.8,662.2c-0.2,0.1-1.2-1.6-3-3.1s-3.7-2.1-3.6-2.4c0-0.2,2.2,0.1,4.2,1.7
					C1645.3,660.1,1646,662.2,1645.8,662.2z"/>
			</g>
		</g>
		<g>
			<g>
				<path class="st4" d="M1663.5,679.2c0.1,0.2-2.4,1.7-5.6,3.4s-5.9,2.8-6,2.6s2.4-1.7,5.6-3.4S1663.4,679,1663.5,679.2z"/>
			</g>
		</g>
		<g>
			<g>
				<path class="st4" d="M1679.5,688.1c-0.2-0.1,0.7-3.8,1.2-8.4c0.6-4.6,0.7-8.4,0.9-8.5c0.2,0,0.5,3.8-0.1,8.6
					C1681,684.5,1679.7,688.2,1679.5,688.1z"/>
			</g>
		</g>
		<g>
			<g>
				<path class="st4" d="M1677,659.6c-0.1,0.2-3.5-2-8-3.8s-8.5-2.4-8.5-2.7c0-0.2,4.1,0,8.8,1.9
					C1674,656.8,1677.1,659.5,1677,659.6z"/>
			</g>
		</g>
		<g>
			<g>
				<path class="st4" d="M1641.4,573.6c-0.1,0.2-3.3-1.7-7.2-4.2c-3.8-2.5-6.8-4.7-6.7-4.9c0.1-0.2,3.3,1.7,7.2,4.2
					C1638.5,571.2,1641.5,573.4,1641.4,573.6z"/>
			</g>
		</g>
		<g class="st11">
			<g>
				<path d="M1558,668.6c-1.2-1.9-0.4-4.7,1.3-6.2c1.7-1.5,4.1-2.1,6.3-2.5c11.8-1.8,24.4,1.4,35.4-3.1c7.4-3,13.1-9.2,17.5-15.9
					s7.8-14,12.1-20.7c3.9-6,8.8-11.8,15.5-14.4c6.7-2.6,15.4-0.9,19.1,5.3c3.5,6,1.2,13.8-2.2,19.9c-9.6,17.3-26.9,29.5-45.8,35.3
					s-39.2,5.7-58.7,2.3"/>
			</g>
		</g>
	</g>
	<g>
		<g>
			<path class="st7" d="M1791,617.8l-18.3-65.4l-75.5,9.8l8.8,34.7l-112.9-30.1l-25,33.1l171.4,80.9c16.1,6.9,34.7,3,46.8-9.6l0,0
				C1797,659.9,1795.7,632.4,1791,617.8z"/>
		</g>
		<g>
			<g>
				<path class="st8" d="M1479,555.1c-2.5-0.7-5.6-1.2-7.5,0.6c-1.6,1.6-1.5,4.4-0.4,6.3c1.2,2,2.1,2.2,5.1,3.2l30.1,6.8l11.6-9
					L1479,555.1z"/>
			</g>
			<g>
				<g>
					<g>
						<g>
							<path class="st7" d="M1572.8,601.3c-36.7-9-70.8-20.9-107.1-27.8c-1.8-0.3-3.9-0.8-4.8-2.4c-1.3-2.2,0.4-5.1,2.7-6.1
								c2.3-1,5-0.6,7.5-0.2c19.4,2.7,39.2,2,58.3-2c12.4-2.6,24.6-6.6,37.2-8.1s15.9,5,26.5,12"/>
						</g>
					</g>
				</g>
				<g>
					<g>
						<g>
							<path class="st7" d="M1593.2,566.7c-6-10.8-18.2-17.7-30.5-17.3c-7.5,0.2-14.7,3-21.9,4.9c-7.3,2-15.2,3.2-22.2,0.4
								c-2.7-1.1-5.2-2.7-8-3.1c-2.8-0.4-6.3,1-6.8,3.8c-0.4,2.1,1,4.2,2.5,5.8c5.3,5.6,22,11.7,35.2,11.1"/>
						</g>
					</g>
				</g>
				<g>
					<g>
						<g>
							<g>
								<path class="st8" d="M1541.4,572.3c0-0.1-2,0-5.6-0.4s-8.8-1.2-14.9-3.3c-3-1-6.3-2.4-9.6-4.3c-1.6-0.9-3.3-2-4.6-3.4
									c-1.3-1.4-2.6-3.1-2.5-5s2-3.3,4-3.6c2-0.4,4.2,0.3,6.3,1.3c2.1,1,4.3,2.1,6.7,2.6c2.4,0.6,4.9,0.8,7.4,0.7
									c10.2-0.4,18.9-4.6,27.2-6.2c4.2-0.8,8.2-1.1,11.9-0.6c3.7,0.5,7.1,1.6,10,2.9c5.8,2.7,9.7,6.4,12,9.1
									c2.3,2.8,3.2,4.6,3.4,4.5c0,0-0.2-0.5-0.6-1.3s-1.2-2-2.3-3.5c-2.2-2.9-6.1-6.7-12-9.6c-3-1.4-6.4-2.6-10.2-3.1
									c-3.8-0.6-8-0.3-12.3,0.5c-8.5,1.6-17.3,5.7-27,6c-2.4,0.1-4.8-0.2-7.1-0.7c-2.3-0.5-4.3-1.6-6.5-2.6c-2.1-1-4.6-1.8-7-1.3
									c-1.2,0.2-2.3,0.7-3.3,1.5c-0.9,0.8-1.6,2-1.7,3.2c-0.1,2.5,1.5,4.4,2.9,5.9c1.5,1.5,3.2,2.6,4.9,3.6
									c3.4,1.9,6.7,3.2,9.8,4.2c6.2,2,11.5,2.7,15.1,2.9c1.8,0.1,3.2,0.1,4.2,0C1540.9,572.4,1541.4,572.4,1541.4,572.3z"/>
							</g>
						</g>
					</g>
				</g>
			</g>
		</g>
		<g>
			<g>
				<path class="st8" d="M1739.7,607.2c0,0-0.1,0-0.4-0.1s-0.7-0.2-1.1-0.4c-1.1-0.4-2.4-0.9-3.9-1.4c-3.3-1.2-7.8-2.8-12.9-4.3
					c-5.1-1.6-9.7-2.9-13.1-3.8c-1.5-0.4-2.9-0.7-4-1c-0.4-0.1-0.8-0.2-1.1-0.3c-0.2-0.1-0.4-0.1-0.4-0.1s0.1,0,0.4,0.1
					s0.7,0.1,1.1,0.2c1,0.2,2.3,0.5,4,0.9c3.4,0.8,8.1,2.1,13.1,3.7c5.1,1.6,9.6,3.2,12.9,4.4c1.6,0.6,2.9,1.1,3.9,1.5
					c0.4,0.2,0.7,0.3,1,0.4C1739.6,607.2,1739.7,607.2,1739.7,607.2z"/>
			</g>
		</g>
	</g>
	<g>
		<g>
			<g>
				<g>
					<g>
						<g>
							<g>
								<g>
									<g>
										<g>
											<g>
												<g>
													<g>
														<g>
															<path class="st7" d="M1597.8,472.3c21.5-0.9,38.4-18.6,38.4-40.1v-47.6l2.6-152.3l-3.4-8.6l-80.2-25.3
																c-24.7-1.9-41.2,32-42.1,56.7c-1,27.5-1.1,61,2.7,81.4c7.7,41,39.3,45.3,39.3,45.3l0.6,50.9
																C1556.2,455.3,1575.2,473.3,1597.8,472.3L1597.8,472.3z"/>
														</g>
													</g>
												</g>
											</g>
										</g>
									</g>
									<g>
										<g>
											<g>
												<g>
													<g>
														<g>
															<g>
																<path class="st5" d="M1523.8,281.7c0,2.8,2.3,5.1,5.2,5.2c2.9,0.1,5.3-2.1,5.3-4.9s-2.3-5.1-5.2-5.2
																	C1526.2,276.7,1523.8,278.9,1523.8,281.7z"/>
															</g>
														</g>
													</g>
												</g>
											</g>
										</g>
										<g>
											<g>
												<g>
													<g>
														<g>
															<g>
																<g>
																	<path class="st5" d="M1521,272c0.7,0.7,4.6-2.4,10.3-2.5c5.7-0.2,9.9,2.6,10.5,1.9c0.3-0.3-0.4-1.5-2.3-2.8
																		c-1.8-1.3-4.9-2.5-8.4-2.3c-3.5,0.1-6.5,1.5-8.1,2.9C1521.2,270.4,1520.6,271.7,1521,272z"/>
																</g>
															</g>
														</g>
													</g>
												</g>
											</g>
										</g>
									</g>
									<g>
										<g>
											<g>
												<g>
													<g>
														<g>
															<g>
																<path class="st5" d="M1578.9,281.7c0,2.8,2.3,5.1,5.2,5.2c2.9,0.1,5.3-2.1,5.3-4.9s-2.3-5.1-5.2-5.2
																	C1581.3,276.7,1578.9,278.9,1578.9,281.7z"/>
															</g>
														</g>
													</g>
												</g>
											</g>
										</g>
										<g>
											<g>
												<g>
													<g>
														<g>
															<g>
																<g>
																	<path class="st5" d="M1576.8,271.5c0.7,0.7,4.6-2.4,10.3-2.5c5.7-0.2,9.9,2.6,10.5,1.9c0.3-0.3-0.4-1.5-2.3-2.8
																		c-1.8-1.3-4.9-2.5-8.4-2.3c-3.5,0.1-6.5,1.5-8.1,2.9C1577,270,1576.5,271.2,1576.8,271.5z"/>
																</g>
															</g>
														</g>
													</g>
												</g>
											</g>
										</g>
									</g>
									<g>
										<g>
											<g>
												<g>
													<g>
														<g>
															<g>
																<path class="st5" d="M1557.4,314.2c0-0.3-3.5-0.8-9.3-1.4c-1.5-0.1-2.8-0.4-3.1-1.3c-0.4-1,0.2-2.6,0.8-4.3
																	c1.3-3.5,2.6-7.3,4-11.2c5.5-15.9,9.5-28.9,8.8-29.1c-0.6-0.2-5.6,12.5-11.2,28.4c-1.3,3.9-2.6,7.6-3.8,11.2
																	c-0.5,1.7-1.4,3.6-0.6,5.7c0.4,1.1,1.5,1.8,2.4,2.1c0.9,0.3,1.8,0.3,2.5,0.3
																	C1553.8,314.6,1557.3,314.5,1557.4,314.2z"/>
															</g>
														</g>
													</g>
												</g>
											</g>
										</g>
									</g>
									<g>
										<g>
											<g>
												<g>
													<g>
														<g>
															<path class="st8" d="M1555.3,381.5c0,0,27.7,1,54.7-16.2c0,0-12.6,28.6-53.9,25.9L1555.3,381.5z"/>
														</g>
													</g>
												</g>
											</g>
										</g>
									</g>
								</g>
							</g>
						</g>
						<g>
							<g>
								<g>
									<g>
										<g>
											<g>
												<path class="st5" d="M1574.7,249.3c0.6,1.5,6.3,0.6,12.9,1.3c6.7,0.5,12.1,2.3,13,0.9c0.4-0.7-0.6-2.1-2.8-3.5
													c-2.2-1.4-5.7-2.8-9.7-3.1s-7.7,0.4-10.1,1.5C1575.7,247.3,1574.5,248.6,1574.7,249.3z"/>
											</g>
										</g>
									</g>
								</g>
							</g>
						</g>
						<g>
							<g>
								<g>
									<g>
										<g>
											<g>
												<path class="st5" d="M1522.6,255.5c1,1.3,4.9-0.2,9.6-0.4c4.7-0.4,8.7,0.6,9.6-0.7c0.4-0.7-0.3-1.9-2.1-3.1
													c-1.7-1.2-4.6-2.1-7.9-1.9c-3.2,0.2-6,1.4-7.6,2.8C1522.6,253.5,1522.1,254.9,1522.6,255.5z"/>
											</g>
										</g>
									</g>
								</g>
							</g>
						</g>
					</g>
				</g>
			</g>
			<g>
				<path class="st5" d="M1541.2,201.1c3.5,25.7,21.1,49,44.8,59.5c-0.7-3.3-1.4-6.5-2.1-9.8c10.2,16.8,31.7,30.9,45.6,36.5
					c4.3,1.8,9.8,0.2,13.7-2.3c5.5-3.5,5.8-11.3,4.6-17.7c-3.6-20-15.4-37.9-30.8-51c-15.4-13.2-34.2-21.9-53.6-27.8
					c-5.1-1.6-8-2.6-13.1-0.9c-5.1,1.7-11.8,7.5-9.3,12.3"/>
			</g>
			<g>
				<path class="st5" d="M1623,257.1c11.8,42.2-3.8,89,0.2,132.6c0.9,9.7,4.4,21,12.6,26.3c4,2.6,4.9,1,9.6,1.9
					c11.9,2.3,23.1-2.7,35-0.4c10.7,2.1,27.8,8.2,34.4-0.4c6.6-8.5-1-18.7-7.6-27.1s-15.5-15.6-18.7-25.8c-3.5-11,0.3-22.7,1.9-34.1
					c5.6-38.9-8.2-78.4-31.2-110.3c-8-11.1-20.1-21.7-31-30c-10.9-8.4-35.5-15.4-49.2-14.7s-36.5,11.5-42.1,26.9"/>
			</g>
			<g>
				<g>
					<path class="st6" d="M1577.4,233.1c-0.1,0.1,0.8,0.7,2.6,1.8l3.1,1.8l-2.6-2.5c-3.4-3.2-10.7-10.4-16.3-20.6
						c-8.2-14.2-9.5-27.7-10.1-27.5c-0.2,0-0.2,3.4,0.9,8.7s3.4,12.6,7.5,19.8c5.8,10.5,13.7,17.5,17.5,20.2l0.5-0.7
						C1578.5,233.3,1577.5,232.9,1577.4,233.1z"/>
				</g>
			</g>
			<g>
				<g>
					<path class="st6" d="M1652,408.4c0.1,0,0.1-0.9,0-2.7c-0.1-1.8-0.1-4.4,0.1-7.7c0.3-6.7,1.5-16.4,4.2-28.1
						c2.5-11.8,6.7-25.6,9.2-41.4c1.1-7.9,1.8-16.4,1.2-25.2c-0.6-8.7-2.5-17.9-6.7-26.2c-4.1-8.5-10.7-15.3-17.7-20.4
						c-7.1-5.2-14.4-9.3-21.2-13.5c-13.5-8.3-24.5-17.7-32.8-26.3c-8.4-8.6-14.3-16.4-18.1-21.9c-1.9-2.8-3.4-4.9-4.3-6.4
						c-1-1.5-1.5-2.2-1.6-2.2s0.4,0.9,1.2,2.4c0.9,1.6,2.2,3.8,4,6.7c3.7,5.7,9.4,13.6,17.8,22.5c8.3,8.8,19.3,18.4,32.9,26.9
						c6.8,4.3,14.1,8.3,21,13.5c6.9,5.1,13.2,11.6,17.1,19.8c4.1,8.1,5.9,16.9,6.6,25.5s0,16.9-1.1,24.8
						c-2.4,15.7-6.4,29.5-8.8,41.4c-2.5,11.8-3.5,21.6-3.6,28.4c0,3.4,0.1,6,0.3,7.8C1651.8,407.5,1652,408.4,1652,408.4z"/>
				</g>
			</g>
		</g>
		<g>
			<path class="st5" d="M1513.2,220.7c-1.5,10.6-2.3,21.3-2.6,32.1c8.3-6.7,16.7-13.6,23-22.2c6.3-8.7,10.2-19.5,8.6-30
				c-12.1,3.4-21.9,13.7-24.7,25.9"/>
		</g>
		<g>
			<g>
				<path class="st8" d="M1555.6,333.4c1.4-2.8,1.8-3.5,4.2-4.8c0.9-0.5,4.6-0.6,5.6-0.6c1.8,0.1,3,1.9,3.7,3.6
					c1,2.5,1.4,5.3,0.4,7.8s-9.6,5.4-14.2-1.1"/>
			</g>
			<g>
				<g>
					<path class="st5" d="M1562.6,342.7c0-0.1,0.5,0,1.4-0.1s2.2-0.3,3.4-1.2c1.2-0.9,2.1-2.7,2.5-4.7c0.3-2-0.2-4.5-2-6
						s-4.2-2.1-6.2-2c-2.1,0-3.7,1.2-4.7,2.4c-1,1.2-1.3,2.5-1.5,3.4s-0.2,1.4-0.3,1.4c0,0-0.1-0.5-0.1-1.4c0.1-0.9,0.3-2.3,1.3-3.7
						c0.5-0.7,1.2-1.3,2.1-1.8s1.9-0.9,3.1-0.9c1.1-0.1,2.3,0.1,3.5,0.4s2.4,0.9,3.4,1.8s1.7,2,2,3.2s0.4,2.4,0.2,3.5
						c-0.2,1.1-0.6,2.1-1.1,3s-1.1,1.6-1.8,2.1c-1.4,1-2.9,1.1-3.8,1.1C1563.1,343,1562.6,342.8,1562.6,342.7z"/>
				</g>
			</g>
		</g>
		<g>
			<g>
				<path class="st8" d="M1582.2,300.8c0.1,0.2-0.4,0.8-1.3,0.9s-1.6-0.4-1.5-0.6s0.7-0.2,1.4-0.3
					C1581.5,300.8,1582,300.6,1582.2,300.8z"/>
			</g>
		</g>
		<g>
			<g>
				<path class="st8" d="M1591.3,300.3c-0.2,0.1-0.5-0.4-0.7-1.1c-0.1-0.6-0.1-1.2,0.2-1.3s0.5,0.4,0.7,1.1
					C1591.6,299.7,1591.5,300.3,1591.3,300.3z"/>
			</g>
		</g>
		<g>
			<g>
				<path class="st8" d="M1602.2,296.7c-0.1,0.2-0.6,0.3-1.3,0.2c-0.6-0.1-1.1-0.4-1.1-0.7c0.1-0.2,0.6-0.3,1.3-0.2
					C1601.8,296.1,1602.3,296.4,1602.2,296.7z"/>
			</g>
		</g>
		<g>
			<g>
				<path class="st8" d="M1586.9,309.9c-0.2,0-0.4-0.5-0.4-1.2c0-0.6,0.2-1.2,0.4-1.2c0.2,0,0.4,0.5,0.4,1.2
					S1587.1,309.9,1586.9,309.9z"/>
			</g>
		</g>
		<g>
			<g>
				<path class="st8" d="M1596.8,305.5c-0.2,0-0.4-0.1-0.4-0.3c0-0.1,0.2-0.3,0.4-0.3c0.2,0,0.4,0.1,0.4,0.3
					C1597.2,305.4,1597,305.5,1596.8,305.5z"/>
			</g>
		</g>
		<g>
			<g>
				<path class="st8" d="M1526,302.4c0,0.2-0.8,0.4-1.7,0c-0.9-0.4-1.3-1.1-1.1-1.3c0.2-0.2,0.8,0.2,1.5,0.5S1526,302.2,1526,302.4z
					"/>
			</g>
		</g>
		<g>
			<g>
				<path class="st8" d="M1533.4,300.9c-0.2-0.1-0.4-0.3-0.3-0.6c0.1-0.3,0.3-0.5,0.5-0.4s0.4,0.3,0.3,0.6
					C1533.8,300.7,1533.6,300.9,1533.4,300.9z"/>
			</g>
		</g>
		<g>
			<g>
				<path class="st8" d="M1529.5,311.5c-0.2,0-0.5-0.4-0.5-0.9c-0.1-0.5,0.1-0.9,0.3-1c0.2,0,0.5,0.4,0.5,0.9
					S1529.7,311.5,1529.5,311.5z"/>
			</g>
		</g>
		<g>
			<g>
				<path class="st8" d="M1519.8,311c-0.2-0.1-0.1-0.6,0.2-1c0.3-0.4,0.7-0.7,0.9-0.5c0.2,0.1,0.1,0.6-0.2,1
					C1520.4,310.9,1520,311.1,1519.8,311z"/>
			</g>
		</g>
	</g>
</g>
<g>
	<g>
		<g>
			<path class="st5" d="M1482.9,678.8V755c0,13-6.3,25.2-16.8,32.7l0,0c-6.8,4.9-15,7.5-23.4,7.5h-101.9c-7.6,0-15.1-2.2-21.5-6.3
				l-3.5-2.2c-11.6-7.4-18.7-20.2-18.7-34v-74L1482.9,678.8L1482.9,678.8z"/>
		</g>
		<g>
			<path class="st6" d="M1297.1,697.2h-51.7v9l29.8,4.6c8.8,1.4,16.7,6.9,20.2,15.1c1,2.3,1.6,4.8,1.6,7.4c0,0,10.5-0.2,12.3-12.7
				c0-0.3,0.1-0.5,0.1-0.8c1.3-9.3-3.7-18.3-12.1-22.4L1297.1,697.2z"/>
		</g>
		<g>
			<g>
				<path class="st6" d="M1483,697.2h51.7v9l-29.8,4.6c-8.8,1.4-16.7,6.9-20.2,15.1c-1,2.3-1.6,4.8-1.6,7.4c0,0-10.5-0.2-12.3-12.7
					c0-0.3-0.1-0.5-0.1-0.8c-1.3-9.3,3.7-18.3,12.1-22.4L1483,697.2z"/>
			</g>
			<g>
				<g>
					<path class="st5" d="M1483,697.2c0,0-0.3,0.2-0.8,0.5s-1.3,0.7-2.2,1.4c-1.8,1.3-4.4,3.5-6.5,7s-3.6,8.6-2.6,14.3
						c0.4,2.8,1.4,5.8,3.4,8.2s5.2,4.1,8.6,4.3l-0.4,0.4c0-2.9,0.8-6,2.2-8.7c1.4-2.8,3.3-5.4,5.8-7.6c2.5-2.2,5.4-3.9,8.6-5.1
						c3.2-1.3,6.7-1.6,10.1-2.2c8.8-1.3,17.3-2.6,25.3-3.9l-0.3,0.4c0-3.1,0-6.1,0-9l0.4,0.4c-15.2-0.1-28-0.1-37.2-0.2
						c-4.5,0-8.1-0.1-10.6-0.1c-1.2,0-2.1,0-2.8-0.1C1483.3,697.3,1483,697.2,1483,697.2s0.3,0,1-0.1c0.7,0,1.6,0,2.8-0.1
						c2.5,0,6.1-0.1,10.6-0.1c9.2,0,22.1-0.1,37.3-0.2h0.4v0.4c0,2.9,0,5.9,0,9v0.4l-0.3,0.1c-8,1.2-16.4,2.5-25.2,3.9
						c-3.5,0.6-6.9,0.9-10,2.1c-3.1,1.1-6,2.8-8.4,5c-4.7,4.2-7.7,10.1-7.8,15.7v0.4h-0.4c-3.7-0.3-7-2.1-9.1-4.6
						c-2.2-2.6-3.1-5.7-3.5-8.6c-0.9-5.8,0.7-11.1,2.8-14.6c2.2-3.6,4.8-5.8,6.7-7c0.9-0.6,1.7-1,2.2-1.3
						C1482.7,697.3,1483,697.2,1483,697.2z"/>
				</g>
			</g>
		</g>
		<g>
			<g>
				<path class="st6" d="M1479.6,680.8c0,0-0.1,0.1-0.4,0.2c-0.3,0.2-0.8,0.4-1.3,0.6c-1.2,0.6-2.9,1.4-5,2.4
					c-1.1,0.5-2.3,1.1-3.6,1.7c-1.3,0.6-2.8,1.2-4.4,1.8c-3.2,1.2-6.7,2.8-10.8,4.1c-2,0.7-4.2,1.4-6.4,2.1c-2.2,0.7-4.6,1.3-7,1.9
					c-4.8,1.4-10.2,2.4-15.7,3.6c-11.2,1.9-23.6,3.3-36.8,3.3c-13.1-0.1-25.6-1.4-36.8-3.3c-5.6-1.1-10.9-2.1-15.7-3.5
					c-2.4-0.7-4.8-1.2-7-1.9s-4.4-1.4-6.4-2.1c-4.1-1.3-7.7-2.8-10.8-4.1c-1.6-0.6-3.1-1.2-4.4-1.8s-2.5-1.2-3.6-1.7
					c-2.1-1-3.8-1.8-5-2.4c-0.5-0.3-1-0.5-1.3-0.6c-0.3-0.2-0.4-0.2-0.4-0.2s0.2,0,0.5,0.2c0.3,0.1,0.8,0.3,1.3,0.6
					c1.2,0.5,2.9,1.3,5,2.3c1.1,0.5,2.3,1.1,3.6,1.7c1.3,0.6,2.8,1.1,4.4,1.7c3.2,1.2,6.7,2.7,10.8,4c2,0.7,4.2,1.3,6.4,2.1
					c2.2,0.7,4.6,1.2,7,1.9c4.8,1.4,10.1,2.3,15.7,3.5c11.2,1.9,23.6,3.2,36.6,3.2c13.1-0.1,25.5-1.4,36.6-3.2
					c5.5-1.1,10.8-2.1,15.7-3.5c2.4-0.7,4.8-1.2,7-1.9s4.4-1.4,6.4-2.1c4.1-1.2,7.7-2.8,10.8-4c1.6-0.6,3.1-1.2,4.4-1.7
					c1.3-0.6,2.5-1.2,3.6-1.7c2.1-1,3.8-1.7,5-2.3c0.5-0.2,1-0.4,1.3-0.6C1479.5,680.9,1479.6,680.8,1479.6,680.8z"/>
			</g>
		</g>
		<g>
			<g>
				<path class="st6" d="M1479.7,687.1c0,0-0.1,0.1-0.4,0.2c-0.3,0.2-0.8,0.4-1.3,0.6c-1.2,0.6-2.9,1.4-5,2.4
					c-1.1,0.5-2.3,1.1-3.6,1.7c-1.3,0.6-2.8,1.2-4.4,1.8c-3.2,1.2-6.7,2.8-10.8,4.1c-2,0.7-4.2,1.4-6.4,2.1c-2.2,0.7-4.6,1.3-7,1.9
					c-4.8,1.4-10.2,2.4-15.7,3.6c-11.2,1.9-23.6,3.3-36.8,3.3c-13.1-0.1-25.6-1.4-36.8-3.3c-5.6-1.1-10.9-2.1-15.7-3.5
					c-2.4-0.7-4.8-1.2-7-1.9s-4.4-1.4-6.4-2.1c-4.1-1.3-7.7-2.8-10.8-4.1c-1.6-0.6-3.1-1.2-4.4-1.8s-2.5-1.2-3.6-1.7
					c-2.1-1-3.8-1.8-5-2.4c-0.5-0.3-1-0.5-1.3-0.6s-0.4-0.2-0.4-0.2s0.2,0,0.5,0.2c0.3,0.1,0.8,0.3,1.3,0.6c1.2,0.5,2.9,1.3,5,2.3
					c1.1,0.5,2.3,1.1,3.6,1.7c1.3,0.6,2.8,1.1,4.4,1.7c3.2,1.2,6.7,2.7,10.8,4c2,0.7,4.2,1.3,6.4,2.1c2.2,0.7,4.6,1.2,7,1.9
					c4.8,1.4,10.1,2.3,15.7,3.5c11.2,1.9,23.6,3.2,36.6,3.2c13.1-0.1,25.5-1.4,36.6-3.2c5.5-1.1,10.8-2.1,15.7-3.5
					c2.4-0.7,4.8-1.2,7-1.9s4.4-1.4,6.4-2.1c4.1-1.2,7.7-2.8,10.8-4c1.6-0.6,3.1-1.2,4.4-1.7c1.3-0.6,2.5-1.2,3.6-1.7
					c2.1-1,3.8-1.7,5-2.3c0.5-0.2,1-0.4,1.3-0.6C1479.6,687.2,1479.7,687.1,1479.7,687.1z"/>
			</g>
		</g>
		<g>
			<path class="st9" d="M1444.7,797.6c13.6-2.1,20.5-9.5,24.5-22.7c1.2-4.1,1.8-8.6,0.3-12.6s-5.3-7.4-9.6-7.2
				c-5.2,0.2-8.8,5.1-10.9,9.8s-3.7,10-7.7,13.2c-4.1,3.2-11.7,2.2-12.5-2.9c-0.2-1.3,0.1-2.8-0.4-4c-1.2-3.1-6.1-2.9-8.2-0.4
				s-2.2,6.1-2.1,9.4c0.1,3.3,0.2,6.9-1.6,9.6c-2.8,4.1-8.5,4.5-13.4,4.6c-9.7,0.1-19.4,0.2-29.1,0.3c0,0,5,2.4,18,2.4
				C1409.4,797.2,1444.7,797.6,1444.7,797.6z"/>
		</g>
		<g>
			<path class="st9" d="M1388.4,794.8c-9.7,0.2-20.1,0.2-28.4-4.9c-5.3-3.2-9.7-8.4-15.7-9.3c-1.7-0.3-3.6-0.1-5.1,0.9
				c-1.4,1-2.3,3-1.5,4.6c-2.7-1-4.7-3.2-7.1-4.9c-2.3-1.7-5.3-3-8-2c-2.9,1.1-4.2,4.6-3.5,7.6s3.2,5.3,5.9,6.6
				c2.7,1.4,5.8,1.9,8.8,2.4l70.1,1.3C1403.9,795.3,1388.4,794.8,1388.4,794.8z"/>
		</g>
	</g>
	<g>
		<polygon class="st6" points="1333.7,799.8 1333.8,795.9 1444.7,797.6 1444.7,799.8 		"/>
	</g>
	<g>
		<path class="st9" d="M1437.6,755c-2.7-4.4-2.9-10.1-0.6-14.6c1-2,3.1-4,5.2-3.2c2,0.7,2.6,3.3,2.5,5.4
			C1444.6,747.1,1441.3,756.4,1437.6,755"/>
	</g>
	<g>
		<g>
			<path class="st5" d="M1372.8,617.4c0.1,0-0.1,0.8,0,2.2s0.6,3.4,1.6,5.8c0.9,2.4,2.5,5.1,3.1,8.5c0.7,3.5-0.6,7.4-2.7,10.7
				c-2.1,3.4-4.6,6.1-6.3,9.1c-0.8,1.4-1.5,2.9-1.9,4.3c-0.4,1.4-0.4,2.8-0.3,4c0.3,2.5,1.4,4.3,2.3,5.3c1,1,1.8,1.3,1.7,1.3
				c0,0-0.2,0-0.6-0.2s-0.8-0.4-1.4-0.9c-1.1-1-2.4-2.8-2.7-5.5c-0.2-1.3-0.1-2.8,0.2-4.3c0.4-1.5,1-3,1.9-4.5
				c1.7-3,4.2-5.8,6.2-9.1c2.1-3.2,3.3-6.9,2.6-10.1c-0.6-3.3-2-6-2.9-8.4s-1.4-4.5-1.3-6c0-0.7,0.1-1.3,0.2-1.7
				C1372.7,617.6,1372.7,617.4,1372.8,617.4z"/>
		</g>
	</g>
	<g>
		<g>
			<path class="st5" d="M1390,616c0.1,0-0.1,0.8,0,2.2s0.6,3.4,1.6,5.8c0.9,2.4,2.5,5.1,3.1,8.5c0.7,3.5-0.6,7.4-2.7,10.7
				c-2.1,3.4-4.6,6.1-6.3,9.1c-0.8,1.4-1.5,2.9-1.9,4.3c-0.4,1.4-0.4,2.8-0.3,4c0.3,2.5,1.4,4.3,2.3,5.3c1,1,1.8,1.3,1.7,1.3
				c0,0-0.2,0-0.6-0.2s-0.8-0.4-1.4-0.9c-1.1-1-2.4-2.8-2.7-5.5c-0.2-1.3-0.1-2.8,0.2-4.3c0.4-1.5,1-3,1.9-4.5
				c1.7-3,4.2-5.8,6.2-9.1c2.1-3.2,3.3-6.9,2.6-10.1c-0.6-3.3-2-6-2.9-8.4s-1.4-4.5-1.3-6c0-0.7,0.1-1.3,0.2-1.7
				C1389.9,616.2,1389.9,616,1390,616z"/>
		</g>
	</g>
	<g>
		<g>
			<path class="st5" d="M1407.2,614.6c0.1,0-0.1,0.8,0,2.2s0.6,3.4,1.6,5.8c0.9,2.4,2.5,5.1,3.1,8.5c0.7,3.5-0.6,7.4-2.7,10.7
				c-2.1,3.4-4.6,6.1-6.3,9.1c-0.8,1.4-1.5,2.9-1.9,4.3c-0.4,1.4-0.4,2.8-0.3,4c0.3,2.5,1.4,4.3,2.3,5.3c1,1,1.8,1.3,1.7,1.3
				c0,0-0.2,0-0.6-0.2s-0.8-0.4-1.4-0.9c-1.1-1-2.4-2.8-2.7-5.5c-0.2-1.3-0.1-2.8,0.2-4.3c0.4-1.5,1-3,1.9-4.5
				c1.7-3,4.2-5.8,6.2-9.1c2.1-3.2,3.3-6.9,2.6-10.1c-0.6-3.3-2-6-2.9-8.4s-1.4-4.5-1.3-6c0-0.7,0.1-1.3,0.2-1.7
				C1407.1,614.7,1407.1,614.5,1407.2,614.6z"/>
		</g>
	</g>
</g>
<g>
	<g>
		<g>
			<path class="st9" d="M1167.3,800.4c0,0-22.2-108.2,0-168.3h24.5c0,0,18.8,63.4,0,168.3H1167.3z"/>
		</g>
		<g class="st12">
			<g>
				<g>
					<path class="st0" d="M1167.3,800.4c0,0-22.2-108.2,0-168.3h24.5c0,0,18.8,63.4,0,168.3H1167.3z"/>
				</g>
			</g>
		</g>
	</g>
	<g>
		<path class="st6" d="M1185.4,575.9c8-14,23.8-23.2,39.9-23.2c-7.3,15.3-24.4,25.4-41.4,24.4"/>
	</g>
	<g>
		<path class="st6" d="M1191.5,530.8c-11.3-11.5-15.7-29.2-11.3-44.7c12.7,11.3,17.7,30.5,12.1,46.5"/>
	</g>
	<g>
		<path class="st6" d="M1169.4,531.4c-13.4-5.3-23.3-18-25.1-32c14.5,4.6,25.4,18.3,26.4,33.2"/>
	</g>
	<g>
		<path class="st6" d="M1163.3,483.3c-2.3-10.2,1.2-21.4,8.9-28.3c3.2,10.6-0.6,22.8-9.1,29.5"/>
	</g>
	<g>
		<path class="st6" d="M1180.4,618.1c1-10.4,7.8-20,17.2-24.1c-0.3,11.1-7.6,21.5-17.8,25.3"/>
	</g>
	<g>
		<g>
			<path class="st5" d="M1153.6,438.1c0,0,4.3,16.3,9.4,43.1c0.6,3.4,1.3,6.9,1.9,10.5c0.7,3.7,1.2,7.5,1.9,11.4
				c1.3,7.9,2.4,16.4,3.6,25.3c2.2,17.9,4.1,37.6,5.3,58.4c1.1,20.8,1.3,40.6,1.1,58.6c-0.2,9-0.4,17.6-0.9,25.6
				c-0.2,4-0.4,7.9-0.6,11.6c-0.3,3.7-0.5,7.3-0.8,10.7c-2.1,27.2-4.7,43.8-4.7,43.8s0-0.3,0-0.8c0.1-0.5,0.1-1.3,0.2-2.3
				c0.2-2,0.5-5,0.9-8.7c0.2-1.9,0.4-4,0.7-6.3c0.2-2.3,0.4-4.8,0.7-7.5c0.5-5.4,1.1-11.5,1.5-18.3c0.2-3.4,0.5-7,0.7-10.7
				s0.4-7.6,0.6-11.6c0.4-8,0.6-16.5,0.8-25.5c0.2-18-0.1-37.8-1.1-58.5c-1.2-20.7-3.1-40.4-5.2-58.3c-1.2-8.9-2.3-17.4-3.6-25.3
				c-0.6-4-1.2-7.8-1.8-11.4c-0.7-3.7-1.3-7.2-1.9-10.5c-1.1-6.7-2.4-12.7-3.5-18c-0.5-2.6-1-5.1-1.5-7.4s-1-4.3-1.4-6.2
				c-0.8-3.7-1.4-6.6-1.9-8.6c-0.2-1-0.4-1.7-0.5-2.2C1153.6,438.3,1153.6,438.1,1153.6,438.1z"/>
		</g>
	</g>
	<g>
		<g>
			<path class="st5" d="M1208.1,477.5c0,0,0,0.2-0.1,0.6s-0.3,1-0.5,1.7c-0.5,1.5-1.2,3.7-2.1,6.4c-0.5,1.4-1,2.9-1.5,4.6
				s-1.1,3.6-1.7,5.5c-1.2,4-2.6,8.5-3.9,13.6c-0.7,2.5-1.4,5.2-2.1,7.9c-0.7,2.8-1.4,5.7-2.1,8.6c-1.5,6-2.8,12.4-4.2,19.2
				c-2.7,13.6-5.1,28.6-6.9,44.5c-1.7,15.9-2.6,31.1-2.9,44.9c-0.1,6.9-0.2,13.5,0,19.6c0.1,3.1,0.1,6,0.2,8.9s0.2,5.6,0.4,8.2
				c0.2,5.2,0.6,9.9,0.9,14.1c0.2,2.1,0.3,4,0.4,5.8c0.2,1.8,0.3,3.4,0.5,4.8c0.3,2.9,0.5,5.1,0.6,6.7c0.1,0.7,0.1,1.3,0.1,1.7
				s0,0.6,0,0.6s-0.1-0.2-0.1-0.6c-0.1-0.4-0.1-1-0.2-1.7c-0.2-1.6-0.5-3.8-0.8-6.7c-0.2-1.5-0.4-3.1-0.6-4.8
				c-0.2-1.8-0.3-3.7-0.5-5.8c-0.3-4.1-0.8-8.9-1-14.1c-0.1-2.6-0.3-5.4-0.4-8.2c-0.1-2.9-0.1-5.8-0.2-8.9c-0.2-6.2-0.1-12.7,0-19.7
				c0.3-13.9,1.2-29.1,2.9-45c1.8-15.9,4.3-30.9,7-44.5c1.5-6.8,2.8-13.2,4.3-19.2c0.8-3,1.4-5.9,2.2-8.6c0.8-2.8,1.5-5.4,2.2-7.9
				c1.3-5.1,2.8-9.6,4.1-13.5c0.6-2,1.2-3.8,1.7-5.5c0.6-1.7,1.1-3.2,1.6-4.6c1-2.7,1.7-4.9,2.2-6.4c0.3-0.7,0.5-1.2,0.6-1.6
				C1208,477.7,1208.1,477.5,1208.1,477.5z"/>
		</g>
	</g>
	<g>
		<path class="st9" d="M1204.5,489.7c-5.4-4.5-5.7-13-3.1-19.5c2.7-6.5,7.6-11.8,11.8-17.5c4.2-5.7,7.7-12.5,6.7-19.5
			c-0.2-1.7-0.7-3.3-0.3-5c0.4-1.6,2-3.2,3.6-2.7c1.4,0.4,2,2.1,2.3,3.6c0.9,4.5,1.2,9.1,0.8,13.7c2.1-5.3,6.8-9.6,12.3-11.1
			c1.2,5.3-0.5,11.2-4.4,15.1c3.6-1.5,7.4-3,11.2-2.3c3.8,0.7,7.2,4.8,5.8,8.3c-1.6,4.1-7.2,4.2-11.5,4.9c-4.8,0.9-9.2,3.5-12.3,7.3
			c-3.9,4.8-5.5,11-8.6,16.3c-3.2,5.3-9.2,9.9-15.1,8"/>
	</g>
	<g>
		<path class="st9" d="M1158.2,456.3c6-3.7,7.5-12,5.8-18.9c-1.7-6.8-5.9-12.7-9.2-18.9c-3.3-6.2-5.9-13.4-3.9-20.2
			c0.5-1.6,1.2-3.2,1-4.9c-0.1-1.7-1.5-3.4-3.2-3.2c-1.5,0.2-2.3,1.8-2.8,3.2c-1.5,4.3-2.5,8.9-2.7,13.4
			c-1.3-5.6-5.4-10.4-10.6-12.7c-2,5.1-1.1,11.2,2.2,15.5c-3.3-2-6.9-4-10.7-3.8c-3.9,0.2-7.8,3.7-6.9,7.4c1,4.3,6.5,5.1,10.7,6.5
			c4.6,1.5,8.7,4.7,11.2,8.9c3.2,5.3,3.9,11.7,6.3,17.3c2.4,5.7,7.8,11.1,13.8,10"/>
	</g>
	<g>
		<g>
			<path class="st5" d="M1151.2,537.7c0,0,0.2,0.4,0.6,1.1c0.4,0.8,0.9,1.8,1.6,3.1c0.7,1.4,1.5,3,2.4,5s1.9,4.2,3,6.7
				s2.2,5.3,3.3,8.3c1.2,3,2.2,6.2,3.4,9.7c2.2,6.9,4.4,14.5,6.2,22.6c1.8,8.1,3,16,3.9,23.1c0.4,3.6,0.8,7,1,10.2
				c0.3,3.2,0.4,6.2,0.5,8.9c0.2,2.7,0.1,5.2,0.2,7.4c0,2.2,0,4,0,5.6c0,1.5-0.1,2.6-0.1,3.5c0,0.8-0.1,1.2-0.1,1.2
				s-0.1-0.4-0.1-1.2c0-0.9,0-2.1,0-3.5c0-1.5,0-3.4-0.1-5.5c-0.1-2.2-0.1-4.6-0.3-7.3c-0.1-2.7-0.3-5.7-0.6-8.9
				c-0.2-3.2-0.7-6.6-1.1-10.2c-0.9-7.1-2.2-14.9-4-23.1c-1.8-8.1-3.9-15.7-6.1-22.6c-1.1-3.4-2.2-6.7-3.3-9.7
				c-1.1-3-2.2-5.8-3.2-8.3s-2-4.8-2.8-6.8s-1.6-3.7-2.3-5.1c-0.6-1.3-1.1-2.4-1.4-3.2C1151.3,538.1,1151.2,537.7,1151.2,537.7z"/>
		</g>
	</g>
	<g>
		<path class="st9" d="M1155.3,553.5c3-2.4,3.2-7,1.8-10.6c-1.4-3.6-4-6.5-6.3-9.6c-2.2-3.1-4.1-6.9-3.5-10.7
			c0.1-0.9,0.4-1.8,0.2-2.7c-0.2-0.9-1-1.7-1.9-1.5c-0.8,0.2-1.1,1.1-1.3,1.9c-0.5,2.4-0.7,5-0.6,7.4c-1.1-2.9-3.6-5.3-6.6-6.2
			c-0.7,2.9,0.2,6.1,2.3,8.2c-1.9-0.8-4-1.7-6.1-1.3s-4,2.5-3.2,4.5c0.8,2.2,3.9,2.3,6.2,2.8c2.6,0.5,5,2,6.7,4.1
			c2.1,2.6,2.9,6,4.6,8.9s4.9,5.5,8.2,4.5"/>
	</g>
</g>
<path class="st13" d="M1712.4,23.8c4.8,1.4,9.4,3.1,11.6,6.9c4.3,7.3-4.8,18-13.5,26c-14.9,4.9-62.4,21.2-59.5,34.5
	c0.3,1.5,1.2,2.6,1.9,3.3c15.4,14.6,76.7,1.2,87.4,28s84.3,37.1,84.3,37.1s57.9-10.2,76.6-37.1s18.7-57.3,18.7-57.3V0h-242.6
	C1677.4,0,1682.9,15.3,1712.4,23.8z"/>
<path class="st14" d="M1054.6,0c15.9,45.9,40.1,74.9,55.1,90.2c16.5,16.8,70.3,71.5,132.8,61.3c9.2-1.5,48.2-7.9,59.2-38.8
	c7.7-21.5-20.6-36.8-18.4-65.4c1.7-21.5,18.2-37.7,30.6-47.3C1227.6,0,1141.1,0,1054.6,0z"/>
<path class="st15" d="M0,703c38.3-60.4,70.2-73.3,92.6-73.5c54.8-0.7,83.5,74,126.6,63.3c33.7-8.3,33.5-58.1,79.7-69.4
	c2-0.5,34.5-8.1,47.5,7.7c16.4,19.9-12.7,59.1,1.5,71.9c12.2,11,37.1-14.8,57.2-4.1c30.5,16.3,22.5,101.9,22.5,101.9l0,0L0,800
	C0,767.7,0,735.3,0,703z"/>
<path class="st15" d="M1920,637.5c0,0-34,7.6-42.2,33.5s-51.1,16.4-65.4,34.5s-12.3,47.2,0,54s67.4-6.7,75.6,16.9s8.2,23.7,8.2,23.7
	h23.8V637.5z"/>
<path class="st3" d="M819,713.1c2.1-6.2,9.7-27.1,34.1-40.3c34.8-18.8,77.7-7.7,93.2-3.7c82,21.2,110.6,94.2,113.7,102.5
	c4.4,11.7,6.2,21.8,7.1,28.4c-72.1,0-144.2,0-216.3,0C847.1,796.8,803.5,758.1,819,713.1z"/>
<g>
	
		<ellipse transform="matrix(0.9706 -0.2406 0.2406 0.9706 -139.2637 232.461)" class="st15" cx="882.3" cy="686.5" rx="1.5" ry="5"/>
	
		<ellipse transform="matrix(0.9706 -0.2406 0.2406 0.9706 -155.8531 242.3862)" class="st15" cx="914.7" cy="759.4" rx="1.8" ry="5"/>
	
		<ellipse transform="matrix(0.9706 -0.2406 0.2406 0.9706 -163.8484 243.8776)" class="st15" cx="916.8" cy="792.9" rx="1.5" ry="5.8"/>
	<ellipse transform="matrix(0.9706 -0.2406 0.2406 0.9706 -154.939 231.1224)" class="st15" cx="869" cy="750" rx="1.5" ry="5.2"/>
	
		<ellipse transform="matrix(0.9706 -0.2406 0.2406 0.9706 -152.2534 226.1025)" class="st15" cx="849.8" cy="736.5" rx="1.5" ry="4.9"/>
	
		<ellipse transform="matrix(0.9706 -0.2406 0.2406 0.9706 -144.7416 231.6859)" class="st15" cx="876.4" cy="708.6" rx="1.1" ry="6.1"/>
	
		<ellipse transform="matrix(0.9706 -0.2406 0.2406 0.9706 -159.0002 240.968)" class="st15" cx="907.3" cy="771.6" rx="1.5" ry="6.7"/>
	
		<ellipse transform="matrix(0.9706 -0.2406 0.2406 0.9706 -157.654 246.2834)" class="st15" cx="929.7" cy="768.7" rx="1.3" ry="6.3"/>
	
		<ellipse transform="matrix(0.9706 -0.2406 0.2406 0.9706 -162.3703 247.7517)" class="st15" cx="933.4" cy="788.8" rx="1.5" ry="5.8"/>
	
		<ellipse transform="matrix(0.9706 -0.2406 0.2406 0.9706 -143.0067 236.2328)" class="st15" cx="895.9" cy="703.7" rx="1.5" ry="5"/>
	
		<ellipse transform="matrix(0.9706 -0.2406 0.2406 0.9706 -140.2872 242.1245)" class="st15" cx="921.4" cy="695.5" rx="1.8" ry="5"/>
	
		<ellipse transform="matrix(0.9706 -0.2406 0.2406 0.9706 -150.0882 243.8364)" class="st15" cx="923.5" cy="736.5" rx="1.5" ry="5.8"/>
	
		<ellipse transform="matrix(0.9706 -0.2406 0.2406 0.9706 -136.1284 237.1538)" class="st15" cx="903.1" cy="676" rx="1.5" ry="5.2"/>
	
		<ellipse transform="matrix(0.9706 -0.2406 0.2406 0.9706 -151.456 240.2514)" class="st15" cx="908.1" cy="740.4" rx="1.5" ry="4.9"/>
	
		<ellipse transform="matrix(0.9706 -0.2406 0.2406 0.9706 -147.9688 238.126)" class="st15" cx="901.2" cy="725" rx="1.1" ry="6.1"/>
	
		<ellipse transform="matrix(0.9706 -0.2406 0.2406 0.9706 -145.2399 240.9268)" class="st15" cx="914" cy="715.2" rx="1.5" ry="6.7"/>
	
		<ellipse transform="matrix(0.9706 -0.2406 0.2406 0.9706 -136.4606 243.2188)" class="st15" cx="927.8" cy="680.4" rx="1.3" ry="6.3"/>
	
		<ellipse transform="matrix(0.9706 -0.2406 0.2406 0.9706 -148.6101 247.7105)" class="st15" cx="940.1" cy="732.4" rx="1.5" ry="5.8"/>
	
		<ellipse transform="matrix(0.9706 -0.2406 0.2406 0.9706 -153.5283 249.9155)" class="st15" cx="946.7" cy="753.7" rx="1.5" ry="5"/>
	<ellipse transform="matrix(0.9706 -0.2406 0.2406 0.9706 -152.6144 256.0277)" class="st15" cx="972.1" cy="753" rx="1.8" ry="5"/>
	
		<ellipse transform="matrix(0.9706 -0.2406 0.2406 0.9706 -160.6097 257.5191)" class="st15" cx="974.3" cy="786.5" rx="1.5" ry="5.8"/>
	
		<ellipse transform="matrix(0.9706 -0.2406 0.2406 0.9706 -143.0859 246.7262)" class="st15" cx="938.8" cy="709.3" rx="1.5" ry="5.2"/>
	
		<ellipse transform="matrix(0.9706 -0.2406 0.2406 0.9706 -161.9776 253.9341)" class="st15" cx="958.9" cy="790.3" rx="1.5" ry="4.9"/>
	
		<ellipse transform="matrix(0.9706 -0.2406 0.2406 0.9706 -158.4903 251.8087)" class="st15" cx="951.9" cy="774.9" rx="1.1" ry="6.1"/>
	
		<ellipse transform="matrix(0.9706 -0.2406 0.2406 0.9706 -155.7615 254.6095)" class="st15" cx="964.8" cy="765.2" rx="1.5" ry="6.7"/>
	
		<ellipse transform="matrix(0.9706 -0.2406 0.2406 0.9706 -154.4153 259.9249)" class="st15" cx="987.2" cy="762.3" rx="1.3" ry="6.3"/>
	
		<ellipse transform="matrix(0.9706 -0.2406 0.2406 0.9706 -159.1316 261.3932)" class="st15" cx="990.9" cy="782.4" rx="1.5" ry="5.8"/>
	<ellipse transform="matrix(0.9706 -0.2406 0.2406 0.9706 -144.4284 226.1707)" class="st15" cx="854" cy="704.5" rx="1.5" ry="5"/>
	
		<ellipse transform="matrix(0.9706 -0.2406 0.2406 0.9706 -140.2652 227.3501)" class="st15" cx="860.9" cy="688.1" rx="1.8" ry="5"/>
	
		<ellipse transform="matrix(0.9706 -0.2406 0.2406 0.9706 -150.3074 233.8094)" class="st15" cx="882.3" cy="732.4" rx="1.5" ry="5.8"/>
	
		<ellipse transform="matrix(0.9706 -0.2406 0.2406 0.9706 -161.2504 232.589)" class="st15" cx="871.8" cy="776.6" rx="1.5" ry="5.2"/>
	
		<ellipse transform="matrix(0.9706 -0.2406 0.2406 0.9706 -149.0961 228.8931)" class="st15" cx="862.8" cy="725" rx="1.5" ry="4.9"/>
	
		<ellipse transform="matrix(0.9706 -0.2406 0.2406 0.9706 -148.6173 221.5276)" class="st15" cx="832.9" cy="719.4" rx="1.1" ry="6.1"/>
	
		<ellipse transform="matrix(0.9706 -0.2406 0.2406 0.9706 -155.8965 222.4163)" class="st15" cx="832.9" cy="749.6" rx="1.5" ry="6.7"/>
	
		<ellipse transform="matrix(0.9706 -0.2406 0.2406 0.9706 -159.1335 226.9426)" class="st15" cx="849.8" cy="765.1" rx="1.5" ry="5"/>
	
		<ellipse transform="matrix(0.9706 -0.2406 0.2406 0.9706 -163.6031 236.2544)" class="st15" cx="885.7" cy="788.1" rx="1.5" ry="5.2"/>
	
		<ellipse transform="matrix(0.9706 -0.2406 0.2406 0.9706 -164.0955 228.8358)" class="st15" cx="855.1" cy="786.4" rx="1.1" ry="6.1"/>
	
		<ellipse transform="matrix(0.9706 -0.2406 0.2406 0.9706 -160.0205 236.952)" class="st15" cx="890.3" cy="773.8" rx="1.3" ry="6.3"/>
	
		<ellipse transform="matrix(0.9706 -0.2406 0.2406 0.9706 -164.8239 233.0546)" class="st15" cx="872" cy="791.5" rx="1.5" ry="5.8"/>
	
		<ellipse transform="matrix(0.9706 -0.2406 0.2406 0.9706 -141.6158 250.5793)" class="st15" cx="955.3" cy="705.2" rx="1.5" ry="5"/>
	
		<ellipse transform="matrix(0.9706 -0.2406 0.2406 0.9706 -140.7019 256.6915)" class="st15" cx="980.8" cy="704.5" rx="1.8" ry="5"/>
	
		<ellipse transform="matrix(0.9706 -0.2406 0.2406 0.9706 -148.6972 258.1829)" class="st15" cx="982.9" cy="738" rx="1.5" ry="5.8"/>
	
		<ellipse transform="matrix(0.9706 -0.2406 0.2406 0.9706 -154.2554 236.7215)" class="st15" cx="892.3" cy="750" rx="1.5" ry="5.2"/>
	
		<ellipse transform="matrix(0.9706 -0.2406 0.2406 0.9706 -140.0999 253.3811)" class="st15" cx="967.6" cy="700.4" rx="1.5" ry="4.9"/>
	
		<ellipse transform="matrix(0.9706 -0.2406 0.2406 0.9706 -146.5778 252.4725)" class="st15" cx="960.6" cy="726.5" rx="1.1" ry="6.1"/>
	
		<ellipse transform="matrix(0.9706 -0.2406 0.2406 0.9706 -143.849 255.2732)" class="st15" cx="973.4" cy="716.7" rx="1.5" ry="6.7"/>
	
		<ellipse transform="matrix(0.9706 -0.2406 0.2406 0.9706 -142.5028 260.5887)" class="st15" cx="995.9" cy="713.9" rx="1.3" ry="6.3"/>
	
		<ellipse transform="matrix(0.9706 -0.2406 0.2406 0.9706 -147.2191 262.0569)" class="st15" cx="999.5" cy="733.9" rx="1.5" ry="5.8"/>
	
		<ellipse transform="matrix(0.9706 -0.2406 0.2406 0.9706 -153.1741 262.8674)" class="st15" cx="999.9" cy="758.7" rx="1.5" ry="5"/>
	
		<ellipse transform="matrix(0.9706 -0.2406 0.2406 0.9706 -137.1619 249.6749)" class="st15" cx="953.9" cy="686.5" rx="1.8" ry="5"/>
	
		<ellipse transform="matrix(0.9706 -0.2406 0.2406 0.9706 -160.2555 270.4709)" class="st15" cx="1027.5" cy="791.5" rx="1.5" ry="5.8"/>
	
		<ellipse transform="matrix(0.9706 -0.2406 0.2406 0.9706 -145.4152 265.3803)" class="st15" cx="1014" cy="728.2" rx="1.5" ry="5.2"/>
	
		<ellipse transform="matrix(0.9706 -0.2406 0.2406 0.9706 -149.5548 268.3899)" class="st15" cx="1024.3" cy="746.6" rx="1.5" ry="4.9"/>
	
		<ellipse transform="matrix(0.9706 -0.2406 0.2406 0.9706 -158.1361 264.7606)" class="st15" cx="1005.1" cy="780" rx="1.1" ry="6.1"/>
	
		<ellipse transform="matrix(0.9706 -0.2406 0.2406 0.9706 -155.4072 267.5613)" class="st15" cx="1018" cy="770.2" rx="1.5" ry="6.7"/>
	
		<ellipse transform="matrix(0.9706 -0.2406 0.2406 0.9706 -154.061 272.8768)" class="st15" cx="1040.4" cy="767.3" rx="1.3" ry="6.3"/>
	
		<ellipse transform="matrix(0.9706 -0.2406 0.2406 0.9706 -158.7774 274.345)" class="st15" cx="1044.1" cy="787.4" rx="1.5" ry="5.8"/>
</g>
<g>
	
		<ellipse transform="matrix(0.6597 -0.7515 0.7515 0.6597 352.5517 1540.7454)" class="st3" cx="1877.6" cy="381.1" rx="5.8" ry="1.8"/>
	
		<ellipse transform="matrix(0.6597 -0.7515 0.7515 0.6597 319.4443 1520.8185)" class="st3" cx="1839.1" cy="407.7" rx="5.8" ry="2.1"/>
	
		<ellipse transform="matrix(0.6597 -0.7515 0.7515 0.6597 309.1432 1506.3549)" class="st3" cx="1817.9" cy="411.8" rx="6" ry="1.8"/>
	
		<ellipse transform="matrix(0.6597 -0.7515 0.7515 0.6597 329.4005 1500.3995)" class="st3" cx="1821.5" cy="386.5" rx="5.7" ry="1.8"/>
	
		<ellipse transform="matrix(0.6597 -0.7515 0.7515 0.6597 365.548 1505.4542)" class="st3" cx="1845.1" cy="349.1" rx="7.1" ry="1.3"/>
	
		<ellipse transform="matrix(0.6597 -0.7515 0.7515 0.6597 270.1742 1529.0518)" class="st3" cx="1823.5" cy="466.2" rx="7.7" ry="1.8"/>
	
		<ellipse transform="matrix(0.6597 -0.7515 0.7515 0.6597 342.8554 1527.9386)" class="st3" cx="1858.6" cy="385.4" rx="5.8" ry="1.8"/>
	
		<ellipse transform="matrix(0.6597 -0.7515 0.7515 0.6597 324.2257 1550.3453)" class="st3" cx="1874" cy="417.2" rx="5.8" ry="2.1"/>
	
		<ellipse transform="matrix(0.6597 -0.7515 0.7515 0.6597 283.7689 1556.1481)" class="st3" cx="1860.2" cy="464.7" rx="6.7" ry="1.8"/>
	
		<ellipse transform="matrix(0.6597 -0.7515 0.7515 0.6597 353.8251 1565.2523)" class="st3" cx="1905.3" cy="391.9" rx="6" ry="1.8"/>
	
		<ellipse transform="matrix(0.6597 -0.7515 0.7515 0.6597 331.0781 1559.3551)" class="st3" cx="1887.4" cy="414.1" rx="5.7" ry="1.8"/>
	
		<ellipse transform="matrix(0.6597 -0.7515 0.7515 0.6597 311.6681 1537.3517)" class="st3" cx="1853.4" cy="424.5" rx="7.1" ry="1.3"/>
	
		<ellipse transform="matrix(0.6597 -0.7515 0.7515 0.6597 326.7828 1532.9081)" class="st3" cx="1856.1" cy="405.6" rx="7.7" ry="1.8"/>
	
		<ellipse transform="matrix(0.6597 -0.7515 0.7515 0.6597 371.5418 1564.7357)" class="st3" cx="1913.6" cy="372.1" rx="7.3" ry="1.5"/>
	
		<ellipse transform="matrix(0.6597 -0.7515 0.7515 0.6597 307.4867 1558.6998)" class="st3" cx="1874.9" cy="439.8" rx="6.7" ry="1.8"/>
	
		<ellipse transform="matrix(0.6597 -0.7515 0.7515 0.6597 320.6626 1575.0017)" class="st3" cx="1899.5" cy="433.4" rx="6" ry="1.8"/>
	
		<ellipse transform="matrix(0.6597 -0.7515 0.7515 0.6597 351.6608 1508.6096)" class="st3" cx="1841.7" cy="366" rx="5.8" ry="1.8"/>
	
		<ellipse transform="matrix(0.6597 -0.7515 0.7515 0.6597 361.7992 1522.3694)" class="st3" cx="1861.9" cy="361.7" rx="5.8" ry="2.1"/>
	
		<ellipse transform="matrix(0.6597 -0.7515 0.7515 0.6597 298.244 1577.5939)" class="st3" cx="1891.1" cy="459.5" rx="6.7" ry="1.8"/>
	
		<ellipse transform="matrix(0.6597 -0.7515 0.7515 0.6597 290.4243 1500.6619)" class="st3" cx="1802.3" cy="429.6" rx="6" ry="1.8"/>
	
		<ellipse transform="matrix(0.6597 -0.7515 0.7515 0.6597 335.4714 1513.3691)" class="st3" cx="1838.8" cy="386.2" rx="5.7" ry="1.8"/>
	
		<ellipse transform="matrix(0.6597 -0.7515 0.7515 0.6597 343.9933 1576.3269)" class="st3" cx="1912.6" cy="408.3" rx="7.1" ry="1.3"/>
	
		<ellipse transform="matrix(0.6597 -0.7515 0.7515 0.6597 365.4443 1553.7068)" class="st3" cx="1898.4" cy="373.3" rx="7.7" ry="1.8"/>
	
		<ellipse transform="matrix(0.6597 -0.7515 0.7515 0.6597 311.2949 1496.333)" class="st3" cx="1807.9" cy="404.4" rx="5.8" ry="1.8"/>
	
		<ellipse transform="matrix(0.6597 -0.7515 0.7515 0.6597 266.1294 1514.4614)" class="st3" cx="1805.4" cy="463.4" rx="6" ry="1.8"/>
	
		<ellipse transform="matrix(0.6597 -0.7515 0.7515 0.6597 342.5126 1500.037)" class="st3" cx="1827.6" cy="371.8" rx="7.1" ry="1.3"/>
	
		<ellipse transform="matrix(0.6597 -0.7515 0.7515 0.6597 276.8964 1504.511)" class="st3" cx="1799.8" cy="446.5" rx="7.3" ry="1.5"/>
	
		<ellipse transform="matrix(0.6597 -0.7515 0.7515 0.6597 276.4007 1541.705)" class="st3" cx="1840.6" cy="465.6" rx="6.7" ry="1.8"/>
	
		<ellipse transform="matrix(0.6597 -0.7515 0.7515 0.6597 370.8906 1535.7991)" class="st3" cx="1881.3" cy="358.4" rx="5.8" ry="1.8"/>
	
		<ellipse transform="matrix(0.6597 -0.7515 0.7515 0.6597 340.6216 1548.9586)" class="st3" cx="1880.7" cy="398.4" rx="5.8" ry="2.1"/>
	
		<ellipse transform="matrix(0.6597 -0.7515 0.7515 0.6597 295.4475 1517.7484)" class="st3" cx="1823.7" cy="432.6" rx="6" ry="1.8"/>
	
		<ellipse transform="matrix(0.6597 -0.7515 0.7515 0.6597 386.0529 1522.166)" class="st3" cx="1873.8" cy="334.8" rx="5.7" ry="1.8"/>
	
		<ellipse transform="matrix(0.6597 -0.7515 0.7515 0.6597 290.9227 1538.7184)" class="st3" cx="1844.6" cy="448.1" rx="7.1" ry="1.3"/>
	
		<ellipse transform="matrix(0.6597 -0.7515 0.7515 0.6597 385.4471 1547.8262)" class="st3" cx="1901.9" cy="348.3" rx="5.8" ry="2.1"/>
</g>
</svg>
