<svg xmlns="http://www.w3.org/2000/svg" xmlns:xlink="http://www.w3.org/1999/xlink" viewBox="0 0 218.75 363.38"><defs><style>.cls-1{isolation:isolate;}.cls-2{fill:#28b873;}.cls-3{fill:#9b9ba7;}.cls-4{fill:#fff;}.cls-5{fill:#424274;}.cls-6{fill:#ff9551;}.cls-7{fill:#ffb02f;}.cls-8{fill:#ebebeb;}.cls-9{fill:#d7d7d7;}.cls-10{fill:url(#linear-gradient);}.cls-11,.cls-14{opacity:0.3;mix-blend-mode:multiply;}.cls-12{fill:#ffc1b4;}.cls-13{fill:#ff9d8f;}.cls-14{fill:#e7afa8;}.cls-15{fill:#f39808;}.cls-16{fill:#81818b;}.cls-17{fill:#120e30;}</style><linearGradient id="linear-gradient" x1="946.01" y1="343.37" x2="946.01" y2="507.11" gradientUnits="userSpaceOnUse"><stop offset="0" stop-color="#ffd2c6"/><stop offset="1" stop-color="#ffb6a9"/></linearGradient></defs><g class="cls-1"><g id="Layer_1" data-name="Layer 1"><path class="cls-2" d="M109.37,18.16h0A87.85,87.85,0,0,1,197.22,106V260.33a0,0,0,0,1,0,0H21.52a0,0,0,0,1,0,0V106a87.85,87.85,0,0,1,87.85-87.85Z"/><text x="-836.63" y="-215.1"/><path class="cls-3" d="M885.16,490.34c0,1.12-.07,2.25,0,3.38a22.17,22.17,0,0,0-2.29.22,39.77,39.77,0,0,0-7,1,11.59,11.59,0,0,0-1.65-2.83l-.23-.3a8.91,8.91,0,0,0-2.14-2.06,26.13,26.13,0,0,1-2.54-1.89,9.65,9.65,0,0,0,2.08-.06c1.36,0,2.69.35,4,.48,1.79.1,3.58.13,5.37.1a18,18,0,0,0,4.47-.11C885.19,489,885.18,489.64,885.16,490.34Z" transform="translate(-836.63 -215.1)"/><path class="cls-3" d="M1022.8,487.83a27.51,27.51,0,0,1-2.54,1.9,8.44,8.44,0,0,0-2,1.85l-.51.64a11.64,11.64,0,0,0-1.54,2.7,39.77,39.77,0,0,0-7-1c-.76-.15-1.53-.15-2.3-.23,0-1,0-2.06,0-3.1,0-.78,0-1.57,0-2.36a9.4,9.4,0,0,0,2.75.18c1.66-.13,3.33,0,5-.08.91-.08,1.82,0,2.72-.15a26.11,26.11,0,0,1,3.3-.42A10.12,10.12,0,0,0,1022.8,487.83Z" transform="translate(-836.63 -215.1)"/><path class="cls-4" d="M1043.38,471.34A23.39,23.39,0,0,1,1049,478a21.36,21.36,0,0,0-4.41-4.24,16.26,16.26,0,0,0-5.44-2.68,24.2,24.2,0,0,0-5.24-.44,10.81,10.81,0,0,0-5,1.58,41.19,41.19,0,0,1-3.61,2c-1,.38-2,.73-2.93,1.12a10.14,10.14,0,0,1-4.6.61,15.82,15.82,0,0,0-2.63-.66,3.69,3.69,0,0,0-2.87,1.06,3.19,3.19,0,0,0-.86,2.63,6.43,6.43,0,0,0,1.09,3.72A10.79,10.79,0,0,0,1016,486c-1.4-.15-2.81,0-4.21-.08h-3.89c.62-1.07.8-2.31,1.31-3.42a7.35,7.35,0,0,0,.66-3c0-.4-.24-.91-.71-1-1.22-.25-2.47-.21-3.69-.42a17.89,17.89,0,0,1,2.6-3.27c.53-.51,1-1.12,1.54-1.61a30.5,30.5,0,0,1,3.23-2.53,29,29,0,0,1,6.07-2.8c2.81-.94,5.59-2.09,8.58-2.29a19.31,19.31,0,0,1,6,.42,21,21,0,0,1,5.63,2.37C1040.6,469.29,1042,470.3,1043.38,471.34Z" transform="translate(-836.63 -215.1)"/><path class="cls-3" d="M1038.93,431.12a12.68,12.68,0,0,0-.73-3,4.91,4.91,0,0,0-1.75-2.23,8,8,0,0,0-2.8-1.48,12.3,12.3,0,0,0-5.09,0,23,23,0,0,0-6.74,2.59,37,37,0,0,0-5.85,4c-1.1.87-2.1,1.86-3.2,2.7a14.83,14.83,0,0,0-2.66,2.59c-.48.68-1.16,1.19-1.69,1.84-3,3.09-5.89,6.34-8.71,9.61-6.79,8-13.21,16.38-19.38,24.9-1,1.38-2,2.79-3,4.19l-1.06,1.47,3,.06c1.18,0,2.36,0,3.54,0a2,2,0,0,1,.15-.59,13.5,13.5,0,0,1,1.67-2.55c1.71-1.92,3.29-3.95,4.91-5.95,1.39-1.8,2.86-3.51,4.31-5.26,3.31-4,6.74-7.83,10.23-11.64s7-7.33,11.38-9.82c1-.59,2.07-1,3.07-1.64a24.77,24.77,0,0,1,4-1.35,28.23,28.23,0,0,1,4.19-.72c1.76-.22,3.51-.55,5.24-.94a9.2,9.2,0,0,0,3.22-1.29,10.62,10.62,0,0,0,2.8-2.83,6,6,0,0,0,.71-1.38A2.89,2.89,0,0,0,1038.93,431.12Zm-12.3-2.6a7.61,7.61,0,0,1,3.08-1,4.44,4.44,0,0,1,3.18.44,2,2,0,0,1,1.13,1.45,3.61,3.61,0,0,1-.94,2.26,5.66,5.66,0,0,1-2.25,1.11,6.06,6.06,0,0,1-3.53,0,2.83,2.83,0,0,1-1.6-2.47A2.42,2.42,0,0,1,1026.63,428.52Z" transform="translate(-836.63 -215.1)"/><path class="cls-4" d="M1042.25,467.54a21.56,21.56,0,0,0-5.77-2.38,24.1,24.1,0,0,0-4.6-.88,41.12,41.12,0,0,0-6.18.05,35,35,0,0,0-5.89,1.37l-1.7.51a27.85,27.85,0,0,0-4.4,1.76,21.07,21.07,0,0,0-2.15,1.15,24.84,24.84,0,0,0-4.44,3.54c-1.59,1.3-2.69,3-4.07,4.55,0,.24,0,.48,0,.73-2.06.11-4.1.3-6.15.4-1.22,0-2.42-.11-3.63-.12h-.43c-1.7-.12-3.41,0-5.12-.06-.84.09-1.68,0-2.51.13.62-.78,1.25-1.55,1.92-2.29,1.75-2.09,3.5-4.19,5.2-6.33,3.34-4.06,6.73-8.09,10.29-12,3.45-3.69,6.83-7.52,10.91-10.56a35,35,0,0,1,7.41-4.2,48,48,0,0,1,6.07,4.83c1.72,1.62,3.31,3.35,4.86,5.12,1.81,2.05,3.41,4.27,5,6.47A88.6,88.6,0,0,1,1042.25,467.54Z" transform="translate(-836.63 -215.1)"/><path class="cls-4" d="M1022.3,305.92a20.54,20.54,0,0,1-.44,3.91,15.6,15.6,0,0,1-1.18,3.51,17.93,17.93,0,0,1-4.59,5.89,16.63,16.63,0,0,1-9.64,3.78,10.38,10.38,0,0,1-4.57-.45A28.25,28.25,0,0,1,990,314.68a57.21,57.21,0,0,1-4.08-5.35c-.49-.69-1-1.39-1.46-2.09s-.94-1.42-1.37-2.15-.68-1.26-1-1.88a1.91,1.91,0,0,1-.27-.16,17.78,17.78,0,0,0,.92,3.36,18.24,18.24,0,0,1-7.93,3,39,39,0,0,1-6.65.49c-2.12-.1-4.23-.23-6.33-.5a18.19,18.19,0,0,1-4.26-1.28,24.17,24.17,0,0,1-2.42-1.13,37.51,37.51,0,0,1-5.69-4.26q-.74-.64-1.44-1.32a3,3,0,0,0-2.4-.85,5.38,5.38,0,0,0-1.28.67,60.28,60.28,0,0,1-5.64,4.7,23.41,23.41,0,0,1-6.11,2.93,17.8,17.8,0,0,1-4.28.76,43.21,43.21,0,0,1-7.19.2,26.13,26.13,0,0,1-8.4-1.65,14.48,14.48,0,0,1-3.31-1.78,13.59,13.59,0,0,0,.89-3.38,3,3,0,0,0-.71,1.06,29.89,29.89,0,0,1-1.64,2.73c-1,1.48-2,2.9-3.06,4.35a29.83,29.83,0,0,1-9.72,9.15,28.85,28.85,0,0,1-5.52,2.43,13.44,13.44,0,0,1-5.47.11,16.33,16.33,0,0,1-11.49-7.26,16.65,16.65,0,0,1-2.84-8.5,19.38,19.38,0,0,1,.23-4.43A23,23,0,0,1,876,290.8a30.6,30.6,0,0,1,2.64-2.58,35.44,35.44,0,0,1,5.45-4c2-1.12,4.17-2,6.28-2.88l1.65-.67a16,16,0,0,1,4.91-1.37,20.77,20.77,0,0,0-.8,2.54,29.24,29.24,0,0,0-.5,4.94c0,.7,0,1.4,0,2.09a6.56,6.56,0,0,0,.15,1.77l.2-.08c.31-.76.53-1.56.8-2.35.45-1.42,1-2.82,1.53-4.24a30.37,30.37,0,0,1,1.55-3.83,28.12,28.12,0,0,1,9.8-10.26,32.79,32.79,0,0,1,8-3.49,55.7,55.7,0,0,1,7-1.46,36.54,36.54,0,0,1,6.19-.19,40.44,40.44,0,0,1,9.22,1.3c1.58.44,3.17.89,4.74,1.39a2.3,2.3,0,0,1,.82.49,4.33,4.33,0,0,0,.72,0,2.55,2.55,0,0,1,1.35-.67,57.93,57.93,0,0,1,7.88-2,51.35,51.35,0,0,1,7.34-.53,27.4,27.4,0,0,1,6.13.51,50.19,50.19,0,0,1,6.64,1.61,30.63,30.63,0,0,1,9.61,5.17,28.47,28.47,0,0,1,6.86,8.23,41,41,0,0,1,1.66,4.19c.65,1.7,1.27,3.42,1.81,5.16.16.38.19.86.55,1.11a4.45,4.45,0,0,0,.14-1.41,32.19,32.19,0,0,0-.21-6.13,15.47,15.47,0,0,0-1-3.84,14.83,14.83,0,0,1,4.51,1.19c2.07.82,4.12,1.71,6.15,2.62a27.56,27.56,0,0,1,6.28,3.95,34.35,34.35,0,0,1,5,4.91,23.35,23.35,0,0,1,4,7A22.12,22.12,0,0,1,1022.3,305.92Z" transform="translate(-836.63 -215.1)"/><path class="cls-5" d="M1007.74,418.66a11,11,0,0,0,1.12-.93,7.43,7.43,0,0,1-2.24,2,14.26,14.26,0,0,1-12,1.84c-.8-.26-1.59-.56-2.38-.88-.21-.1-.5-.16-.58-.43,1.46.21,2.93.32,4.38.58a18,18,0,0,0,4.69,0,23.89,23.89,0,0,0,4.2-.86A11.69,11.69,0,0,0,1007.74,418.66Z" transform="translate(-836.63 -215.1)"/><path class="cls-6" d="M1007.41,480.74c-.3.7-.65,1.38-.88,2.11a3.82,3.82,0,0,1-.79,1.52,5,5,0,0,1-2.67.29c-3.5-.17-7-.07-10.5-.09-1,.07-1.92.07-2.88.06-3.09.17-6.2,0-9.3.14-1.87,0-3.75.08-5.63.13-1.43,0-2.87.1-4.32.06-3.37,0-6.73.29-10.1.26-1.39,0-2.78.09-4.18.07-3.37,0-6.74,0-10.1.11h-.24c-3.41-.14-6.82-.13-10.23-.12-1.22,0-2.44-.09-3.66-.07-3.84,0-7.68-.29-11.52-.26-2.44-.09-4.9-.08-7.34-.2-1.4.05-2.79-.1-4.19-.06-2.14,0-4.28.06-6.42-.07-1,0-1.93,0-2.89-.06h-5.49c-1.35,0-2.71,0-4.06.06s-2.58.33-3.74-.26a4.39,4.39,0,0,1-.88-1.75c-.21-.65-.52-1.25-.79-1.88,1.49-.21,3-.45,4.48-.58s3-.17,4.46-.24c.66,0,1.32-.06,2-.07,1.3,0,2.62,0,3.93,0,.9.1,1.82,0,2.74.08,1.35.13,2.71,0,4.06.09s2.4,0,3.59.05a19.84,19.84,0,0,0,2,0c1.7.14,3.4,0,5.1.09s3.32.08,5,0c1.49,0,3,.15,4.46.14,2,.11,4-.06,6,0,3.62.18,7.24-.05,10.86,0a17.83,17.83,0,0,0,2.07-.11,18.13,18.13,0,0,1,2.65.11c1.88,0,3.76,0,5.64.05,1.48,0,3,0,4.44,0,1.93-.11,3.85-.07,5.77,0s3.93-.07,5.89-.18c1.79,0,3.58-.07,5.36-.06s3.41.05,5.12-.08c.87,0,1.74,0,2.62-.06a6.91,6.91,0,0,1,.91,0c1.4,0,2.79-.11,4.18-.07,1,0,1.93-.1,2.89-.06s1.66-.1,2.49-.07c1.62,0,3.23-.06,4.84.06s3.24.11,4.86.26C1004.51,480.3,1006,480.53,1007.41,480.74Z" transform="translate(-836.63 -215.1)"/><path class="cls-4" d="M1005.36,434.29c-2.65-1.21-5.44-2.1-8.12-3.23a16.9,16.9,0,0,1-3.2-1.48,12.13,12.13,0,0,1-2.65.81,6.88,6.88,0,0,1-.51,3.5,14.76,14.76,0,0,1-3.48,4.89,35.33,35.33,0,0,1-6.67,5c-1.76,1-3.51,2-5.28,3a33.35,33.35,0,0,1-4.61,1.95,87.29,87.29,0,0,1-8.4,2.53,55.68,55.68,0,0,1-7.71,1.09,15,15,0,0,0-1.64.07c-2.35.64-4.68,1.35-7,2.09-2.79.91-5.6,1.79-8.3,2.93-2.33,1-4.6,2.08-6.82,3.28a60,60,0,0,0-6.09,3.59,42.72,42.72,0,0,0-5.94,4.8,22.88,22.88,0,0,0-4.31,5.93c-.36,1.09-.65,2.19-1.06,3.26,1.41,0,2.81-.06,4.21-.1.74,0,1.49,0,2.23,0,1.75-.17,3.49.05,5.24,0,.78,0,1.56.09,2.35.07,1.62,0,3.24-.16,4.86,0,2.62,0,5.24.07,7.86-.06,1.3,0,2.62,0,3.92-.06a25.84,25.84,0,0,0,3.52,0c1.36.11,2.72,0,4.08.06,2.22.13,4.45,0,6.67.07,1.1,0,2.19-.12,3.28-.06l.54,0c1.39.06,2.79,0,4.18,0,1.74.05,3.48-.17,5.22,0a26.48,26.48,0,0,1,2.82.1c.51-.79,1-1.59,1.45-2.39.79-1.34,1.55-2.69,2.41-4,3-4.68,6.3-9.19,9.73-13.58q4.75-6,9.7-11.91c3.2-3.72,6.37-7.45,9.7-11.05C1006.82,435,1006.09,434.63,1005.36,434.29ZM925.09,475.1a3.17,3.17,0,0,1-3.4.7,3,3,0,0,1-1.36-1.23,5.14,5.14,0,0,1-.5-1.06,3.78,3.78,0,0,1,.16-1.91,3.11,3.11,0,0,1,1.44-2,6.24,6.24,0,0,1,1.4-.41,2.52,2.52,0,0,1,2.23.44,2.42,2.42,0,0,1,.49.47A4.19,4.19,0,0,1,925.09,475.1Zm39.52-18.17a2.94,2.94,0,0,1,2.35-2.15,3.19,3.19,0,0,1,2.07,0,3.6,3.6,0,0,1,2.05,2.12,3.77,3.77,0,0,1-.8,3.12,3.45,3.45,0,0,1-2.84,1,3.22,3.22,0,0,1-1.8-1.17A5,5,0,0,1,964.61,456.93Zm7.58,16.57a3.85,3.85,0,0,1-1.46,2.07,3.11,3.11,0,0,1-3.81-.47,4.26,4.26,0,0,1-.57-4.83,2.78,2.78,0,0,1,1.51-1.09,4,4,0,0,1,2,.19,2.83,2.83,0,0,1,2.13,2.24A3.7,3.7,0,0,1,972.19,473.5Z" transform="translate(-836.63 -215.1)"/><path class="cls-7" d="M1005.41,487.72c0,.15-.06.3-.08.46-.18,1.05-.25,2.13-.35,3.19-.28,3-.43,6-1,8.9-.41,2.39-.89,4.78-1.43,7.15-.41,1.79-.76,3.59-1.31,5.35a2.66,2.66,0,0,1-.72,1.26,14.87,14.87,0,0,1-6,2,90.46,90.46,0,0,1-9.15.72c-5.24.07-10.46.46-15.7.48-1.22.12-2.45,0-3.68.1-5.55.08-11.08.85-16.62,1-1.67-.06-3.33.17-5,0-3.17,0-6.33-.24-9.48-.48-1-.09-2-.17-3.08-.24-2.4-.16-4.81-.27-7.21-.33-1.36,0-2.71-.11-4.06-.06-2.49-.07-5-.15-7.47-.27-2.92-.14-5.85-.15-8.78-.28-2.29-.15-4.58-.38-6.87-.65-.45-.06-.9-.12-1.34-.22a14.87,14.87,0,0,1-4.63-1.8,2.49,2.49,0,0,1-.68-1.16c-.5-1.55-.82-3.13-1.18-4.71-.74-3.26-1.43-6.54-1.9-9.85-.36-3-.55-6-.85-9.06,0-.43-.11-.85-.19-1.27,0-.08,0-.17,0-.26a22.11,22.11,0,0,0,4.07.15l.71,0c3-.11,6-.44,9-.59,4.85-.26,9.69-.65,14.54-.6h7.86c1.18,0,2.36,0,3.53.07h6.81c1.1,0,2.19-.11,3.28-.07s2.18-.11,3.28-.06c.83,0,1.65-.1,2.49-.07,1.31,0,2.62-.18,3.94-.24,2.52.24,5,.3,7.57.32,1.06.1,2.1,0,3.15.05,1.7.12,3.41,0,5.12.07s3.23,0,4.84-.07h11.12c2.81,0,5.61.14,8.4.28,3.36.21,6.72.37,10.08.64.93.08,1.86.15,2.8.2,1.21.07,2.41.11,3.62.12A25.43,25.43,0,0,0,1005.41,487.72Z" transform="translate(-836.63 -215.1)"/><path class="cls-5" d="M1004,360.08a14.08,14.08,0,0,1,.23,4.71,23.36,23.36,0,0,0-1.9-6.73,12.49,12.49,0,0,0-1.57-2.37c.35.61.81,1.15,1.15,1.76a14,14,0,0,1,1.32,4.68c-.37-.71-.55-1.5-.93-2.21a18.08,18.08,0,0,0-3.23-4.74l-.18,0v.27a15.37,15.37,0,0,1,3.54,9c-.34-.86-.62-1.75-1-2.58a25.24,25.24,0,0,0-2.69-4.38,14.17,14.17,0,0,0-2.21-2.49c-.24-.22-.44-.5-.76-.57a4.8,4.8,0,0,0,.84,1,28,28,0,0,1,3.32,5.33,14.86,14.86,0,0,1,1,3.2c-1.47-3.21-4-5.77-6.41-8.28a6.39,6.39,0,0,0-1-.81c.3.43.74.73,1.06,1.14,1.9,2.15,3.86,4.36,4.91,7.07-2.16-2.84-4.5-5.69-7.68-7.43,0,.08,0,.25,0,.33a12.36,12.36,0,0,1,2.45,2.29,32.37,32.37,0,0,1,4,6.12,27.54,27.54,0,0,0-2.36-2.82,45.27,45.27,0,0,0-5.71-4.9c-1-.79-2.17-1.47-3.22-2.26a12.77,12.77,0,0,1-3.38-3.86,10.85,10.85,0,0,1-1-4.05c.47,1,.87,2,1.35,2.95a5.75,5.75,0,0,0,1.12,1.71c-.3-.94-.71-1.86-.92-2.83a12.27,12.27,0,0,1-.28-3,33.29,33.29,0,0,0,3,5.81,17.87,17.87,0,0,0,2,2.78c.22-.13,0-.34,0-.5a30.69,30.69,0,0,1-1.29-2.79,11.85,11.85,0,0,1-1.09-4.48,22.08,22.08,0,0,0,4,6.22,1.6,1.6,0,0,0,.74.51,4.8,4.8,0,0,0-.62-1.16c-.51-.84-1-1.69-1.44-2.57.73.83,1.29,1.95,2.44,2.26a13.53,13.53,0,0,1-1.09-2.27,24.62,24.62,0,0,0,4.74,3.69l.25-.1a14.64,14.64,0,0,1-4.24-4.59,21.37,21.37,0,0,0,3.76,2.32,9.81,9.81,0,0,0,1.36.72c-.15-.33-.51-.46-.77-.67a22.51,22.51,0,0,1-2.27-2c.46.23,1,.59,1.49.36a75.2,75.2,0,0,1,6.41,5.55A11,11,0,0,1,1004,360.08Z" transform="translate(-836.63 -215.1)"/><path class="cls-4" d="M998.16,324.63a2.5,2.5,0,0,0-.07.26c-.88,3-1.56,6.11-2.27,9.18a65.55,65.55,0,0,0-6.43-3.1c-1.83-.79-3.69-1.53-5.57-2.24.39-1.44.57-2.92,1-4.35s.62-2.8.9-4.21c.36-1.88.81-3.73,1.16-5.61A29.54,29.54,0,0,0,998.16,324.63Z" transform="translate(-836.63 -215.1)"/><path class="cls-5" d="M994.49,427.45a16.5,16.5,0,0,0,2.33-1.19,22.62,22.62,0,0,1-9.54,3.42l-.89.08a9.72,9.72,0,0,1-8.79,1.84,10.39,10.39,0,0,1-2.25-.8,10.52,10.52,0,0,1-2-1.26,12.7,12.7,0,0,0,7.43,1.12,12.06,12.06,0,0,0,3.68-1c-.75-.14-1.49-.28-2.22-.49a3.64,3.64,0,0,1-1.24-.5c1.15-.06,2.31,0,3.47-.08.74-.06,1.48.09,2.22.07,1.36-.1,2.73-.1,4.09-.23A17.8,17.8,0,0,0,994.49,427.45Z" transform="translate(-836.63 -215.1)"/><path class="cls-4" d="M995.57,335.07c-.59,2.56-1.44,5.05-2,7.64,0,0,0,.08,0,.12-.15.67-.28,1.36-.41,2a50.85,50.85,0,0,0-7.91-3.35c-5.26-1.74-10.51-3.52-15.9-4.84-2.49-.63-5-1.19-7.53-1.66l-.08,0q-3.43-.64-6.92-1a60,60,0,0,0-7.33-.49h-.67a64.84,64.84,0,0,0-6.54.17,104.79,104.79,0,0,0-16.87,2.82c-5.59,1.34-11.05,3.17-16.51,5a52,52,0,0,0-8.11,3.42c-.26-1.41-.55-2.8-.88-4.18-.47-1.88-1.07-3.73-1.49-5.62,5.11-2.09,10.2-4.26,15.45-6,1.35-.45,2.72-.86,4.08-1.25a121.44,121.44,0,0,1,13.48-3,94.7,94.7,0,0,1,10.35-1.16c1.79-.05,3.58-.21,5.36-.36l.26,0a7.22,7.22,0,0,0,1.47,0,1.6,1.6,0,0,1,.23,0c2.62.28,5.25.31,7.87.53a117.47,117.47,0,0,1,20.7,3.88A169.47,169.47,0,0,1,995.57,335.07Z" transform="translate(-836.63 -215.1)"/><path class="cls-4" d="M990.18,430.53c-.31,2.4-1.93,4.36-3.66,5.94a35.08,35.08,0,0,1-5.95,4.16c-1.07.6-2.2,1.1-3.27,1.7S975.12,443.5,974,444a65.23,65.23,0,0,1-16,4.2c-1.91.26-3.84.5-5.77.59-1.42,0-2.78.56-4.21.41-.86-.09-1.73,0-2.6-.05a16.9,16.9,0,0,1-3.26,0,48.86,48.86,0,0,0-5-.52c-2.47-.29-4.94-.58-7.39-1.05a80.05,80.05,0,0,1-9.61-2.68,50.18,50.18,0,0,1-6.67-3.15,34.23,34.23,0,0,1-5.36-3.15,18.4,18.4,0,0,1-5.35-5.27,7.36,7.36,0,0,1-1-2.75c.88.12,1.78.1,2.66.18a8.48,8.48,0,0,1,.88.13,2.76,2.76,0,0,1,1.2.77,6.74,6.74,0,0,0,2.58,1.42,11.47,11.47,0,0,0,5.37,0c.62.18,1.17.57,1.77.81a23.42,23.42,0,0,0,3.44,1.31,37.87,37.87,0,0,1,4.17,1.69,18.18,18.18,0,0,1,2.53,1.28c1,.65,2,1.31,3,2a35.74,35.74,0,0,0,3.78,2,30.59,30.59,0,0,0,4.14,1.51,41.08,41.08,0,0,0,4.69.83,25.32,25.32,0,0,0,4.07.35,23.68,23.68,0,0,0,3.86-.35c1.47-.15,2.92-.43,4.36-.72a29.6,29.6,0,0,0,6.05-2.34c2.2-1,4-2.6,6.07-3.75,1.37-.67,2.77-1.27,4.17-1.87,1.14-.49,2.35-.76,3.5-1.22a32,32,0,0,0,3.15-1.43c.2-.15.43-.06.65,0a11.12,11.12,0,0,0,4.63.09,7,7,0,0,0,2.94-1.52,2.81,2.81,0,0,1,1.2-.78c.25-.05.5-.08.75-.11C988.32,430.63,989.26,430.65,990.18,430.53Z" transform="translate(-836.63 -215.1)"/><path class="cls-4" d="M986.37,313.89c0,.17-.08.35-.13.53-.24,1-.54,2-.82,3-.49,1.72-.9,3.46-1.36,5.19-.3,1.14-.69,2.26-.95,3.41a12.27,12.27,0,0,1-.66,2.24A101.09,101.09,0,0,0,966.88,324c.37-1.67.82-3.33,1.13-5,.33-1.9.25-3.84.45-5.76,0,0,0-.07,0-.11a27.55,27.55,0,0,0,4.69-.64,23.39,23.39,0,0,0,5.15-1.7,23.82,23.82,0,0,0,4.77-3.32A37.7,37.7,0,0,0,986.37,313.89Z" transform="translate(-836.63 -215.1)"/><path class="cls-5" d="M983.83,410.52a41.6,41.6,0,0,0,4.84,2.36c-3.87-.6-7.5-2.13-11.14-3.51-.91-.37-1.75-.89-2.64-1.31a50.81,50.81,0,0,0,7.6,3.79c1.59.75,3.26,1.31,4.9,1.95a46.31,46.31,0,0,1-7.65-1.64,37.42,37.42,0,0,1-4.91-2,42.55,42.55,0,0,0,7.18,3.5c1.69.61,3.41,1.15,5.12,1.7a31.15,31.15,0,0,1-13.74-4.15,15.39,15.39,0,0,0,2.38,1.5,44.36,44.36,0,0,0,5.5,2.46c.68.27,1.41.43,2.09.73a24.85,24.85,0,0,1-9.45-2.91,17.7,17.7,0,0,0,5,2.81c1.41.55,2.85,1,4.29,1.45a27.21,27.21,0,0,1-10.36-3.2c-.91-.5-1.73-1.14-2.62-1.67a32.28,32.28,0,0,0,13.24,6.14,26.4,26.4,0,0,1-6.92-1.38,44.07,44.07,0,0,1-4.7-1.85,3.44,3.44,0,0,0-.81-.3l.08.21c1.83,1,3.63,2.13,5.54,3,.93.44,1.88.83,2.83,1.23a30,30,0,0,1-11.22-4.32c.23.37.67.54,1,.81a35.72,35.72,0,0,0,5.78,3.26,31.81,31.81,0,0,0,6.27,2.08v-.06l.47.17a3.29,3.29,0,0,1-1.16-.16A40.21,40.21,0,0,1,970,418c-.73-.33-1.39-.77-2.09-1.14a10.2,10.2,0,0,0,1.76,1.18,49.71,49.71,0,0,0,7.86,3.57,30.63,30.63,0,0,1-8.3-2.57,33.35,33.35,0,0,1-5.18-2.91,11,11,0,0,0,1.87,1.52,48.39,48.39,0,0,0,8.33,4.62,52.34,52.34,0,0,0,5.3,1.78,46.72,46.72,0,0,1-8.3-1.31,31.32,31.32,0,0,1-7.23-3.07,2.1,2.1,0,0,0-.8-.3c.83.53,1.64,1.1,2.47,1.62a49,49,0,0,0,7.05,3.55,9.85,9.85,0,0,0,1.86.6l-.25.2a14.57,14.57,0,0,0-1.6-.31,12.81,12.81,0,0,0,2.28.54c-.17-.12-.36-.21-.52-.34a1,1,0,0,1,.61.23l.49,0-.43.13a2.27,2.27,0,0,0,.9.19,49.61,49.61,0,0,0,6.45.14,4.65,4.65,0,0,1-1.7.4,35.58,35.58,0,0,1-4.61.31,20.07,20.07,0,0,1-4.44-.64,32.21,32.21,0,0,1-7.83-2.56,29,29,0,0,1-3.72-1.91c.88.61,1.81,1.17,2.73,1.73s2.07,1.05,3.09,1.63c.7.4,1.5.57,2.22.91a7.39,7.39,0,0,0,1.94.65,20,20,0,0,1,3.25.71,4.38,4.38,0,0,1-1.57.25,12.59,12.59,0,0,1-3.24-.25,7.1,7.1,0,0,1-.76-.2c-.71-.23-1.47-.27-2.17-.54a2.68,2.68,0,0,0-1-.25l.1-.1c-1.06-.45-2.13-.83-3.15-1.36a36.37,36.37,0,0,1-4.21-2.49c-2.84-1.9-4.89-4.71-6.81-7.48a26.61,26.61,0,0,1-2.06-3.22,13.87,13.87,0,0,1,.87,1.15,34.1,34.1,0,0,0,2.9,3.11c.86.76,1.8,1.43,2.71,2.13a24.32,24.32,0,0,0,2.33,1.74c-.93-.76-1.87-1.54-2.72-2.39a17.9,17.9,0,0,1-3.9-4.76,8.13,8.13,0,0,1-1.11-2.67c.27.14.36.44.49.69a13.06,13.06,0,0,0,1.37,2.18,15.11,15.11,0,0,0,2.85,3,30.51,30.51,0,0,0,6.46,4.41c.74.38,1.44.86,2.21,1.17a44.21,44.21,0,0,1-6.33-4.9c-1.57-1.54-3.11-3.1-4.56-4.75-.54-.78-1-1.6-1.49-2.41,1.66,1.7,3.31,3.41,5,5.06a9.74,9.74,0,0,0,3.27,2.24c-.25-.34-.67-.47-1-.74a38.64,38.64,0,0,1-5.36-5.49,47.46,47.46,0,0,1-3.74-5c.83,1,1.6,2.1,2.5,3.06a37.09,37.09,0,0,0,5,4.65,17.77,17.77,0,0,0,3.34,2.15,7.72,7.72,0,0,0,2.24.42,13.39,13.39,0,0,1-1.73-.66,23.65,23.65,0,0,1-4.84-4.09,33.81,33.81,0,0,1-5.43-7.45,46.84,46.84,0,0,0,5.74,5.44,19.26,19.26,0,0,0,5.28,3.06,2.6,2.6,0,0,0,.1-.25,19.91,19.91,0,0,1-4.82-3.49,37.91,37.91,0,0,1-4.42-5.29,49.93,49.93,0,0,0,4.82,4.49,43.1,43.1,0,0,0,4.27,2.94,11.46,11.46,0,0,0,3,1.53,52.5,52.5,0,0,1-6.45-5.28,48.18,48.18,0,0,1-4.52-5.36,54.89,54.89,0,0,0,5.19,4.57,34.79,34.79,0,0,0,4.23,2.64A1.09,1.09,0,0,0,962,408a29.56,29.56,0,0,1-3.93-3,36.37,36.37,0,0,1-5.48-6.76q3.33,2.73,6.7,5.42c1.77,1.45,3.65,2.74,5.55,4a25,25,0,0,0,3.92,2.33,20.15,20.15,0,0,1-2.17-1.47c-1.48-1.17-3-2.35-4.38-3.62-.51-.44-1-.95-1.47-1.4-1.3-1.15-2.42-2.48-3.67-3.68q3.34,2,6.66,4.09a25.32,25.32,0,0,0,3.46,1.91c.15,0,.35.26.47.06a70.46,70.46,0,0,1-6.25-4.62l-5.78-4.59a50.39,50.39,0,0,1,5.91,3.53,64.31,64.31,0,0,1,8.6,6.83s0-.16,0-.21c-.75-.72-1.45-1.47-2.15-2.23-2.78-2.67-5.64-5.26-8.66-7.66a33.78,33.78,0,0,1,6.76,3.55,41.56,41.56,0,0,1,5.75,4.47c.09-.33-.2-.57-.38-.8a36,36,0,0,0-4.61-3.91c-1.32-1-2.69-1.9-4.09-2.78a42.15,42.15,0,0,1,6.58,3.55c1.49.89,2.87,1.91,4.27,2.92.3.22.52.54.88.66a5.82,5.82,0,0,0-1.06-1.1,54.72,54.72,0,0,0-5.82-4.82,45.17,45.17,0,0,0-10.5-5.9,35.83,35.83,0,0,1,7,2.62,57,57,0,0,1,7.89,4.41c3.86,2.66,7.38,5.79,11.26,8.43.73.52,1.5,1,2.24,1.49a31.1,31.1,0,0,1-6.72-3.31,8,8,0,0,1-1.76-1.51c-.14-.15-.25-.34-.46-.38a5.18,5.18,0,0,0,1.61,2.1A33.19,33.19,0,0,0,983.83,410.52Z" transform="translate(-836.63 -215.1)"/><path class="cls-5" d="M981.29,356.51a8.8,8.8,0,0,1-.59,6,11.53,11.53,0,0,0-2.64-1.46,30.09,30.09,0,0,0-4.62-1.52,35.89,35.89,0,0,0-6-.66c-.8,0-1.77.15-2.4-.47a3.06,3.06,0,0,1-.72-2.68,4.55,4.55,0,0,1,.79-1.68,4.47,4.47,0,0,1,2.71-1.23,19.2,19.2,0,0,1,5.8.38,21.61,21.61,0,0,1,6.31,2.1C980.45,355.56,981.09,355.88,981.29,356.51Z" transform="translate(-836.63 -215.1)"/><path class="cls-8" d="M967.47,313.15c-.34,1.37-.38,2.8-.61,4.2a35.67,35.67,0,0,1-1.16,4.25c-.19.7-.44,1.39-.61,2.1a85.76,85.76,0,0,0-18.16-1.34c0-1.17,0-2.34,0-3.51-.12-1.47,0-3-.11-4.42,0-.39,0-.78,0-1.17-.16-2.74,0-5.49-.14-8.23a36.24,36.24,0,0,0,5,4.12,24.51,24.51,0,0,0,6.35,2.9A32,32,0,0,0,967.47,313.15Z" transform="translate(-836.63 -215.1)"/><path class="cls-5" d="M964.57,426a6.88,6.88,0,0,1-2.37-.34,20.44,20.44,0,0,1-6.43-2.92,21,21,0,0,1-3.26-2.62,24,24,0,0,1-3.17-3.51,11.73,11.73,0,0,1-1.2-2.5,9,9,0,0,1,1.19,1.2c.87.84,1.63,1.78,2.55,2.56s1.8,1.77,2.83,2.51c1.69,1.2,3.27,2.56,5.06,3.6A16,16,0,0,0,964.57,426Z" transform="translate(-836.63 -215.1)"/><path class="cls-5" d="M963,339.83a4.46,4.46,0,0,1,.24,2.75,16.09,16.09,0,0,1-1.6-1.9,4.23,4.23,0,0,0-.7-1,21.84,21.84,0,0,0,1.35,2.41,11.14,11.14,0,0,1,.74,1.14c-.16.85-.22,1.73-.33,2.59a11.16,11.16,0,0,1-1.12,1.84,5.56,5.56,0,0,0-.18-3.4,9,9,0,0,0-1.81-2.75,3.24,3.24,0,0,1-.66-.86l-.18.19a5.75,5.75,0,0,1,.86,1.15,6.18,6.18,0,0,1,1.22,3.31,6.51,6.51,0,0,1-1.24,3.6,6.77,6.77,0,0,0-.56-4.11,12.72,12.72,0,0,0-1.66-2.77,6.75,6.75,0,0,1-.81-1,1.46,1.46,0,0,0-.16.19,5.11,5.11,0,0,1,1.06,1.46,7.5,7.5,0,0,1,1,4.89,7.92,7.92,0,0,1-2.29,3.79,9.74,9.74,0,0,0,.35-4.67,8,8,0,0,0-3.55-5.28,4.53,4.53,0,0,0-.59-.28c.24.23.56.35.82.56a6.82,6.82,0,0,1,2.14,2.94,7.27,7.27,0,0,1-.86,6.55,8.13,8.13,0,0,0-.1-2.65c-.3-1.45-.48-3.09-1.62-4.16a8.36,8.36,0,0,0-3-1.93s0,.13,0,.18a8.32,8.32,0,0,1,1.7,1.26,4.27,4.27,0,0,1,1.54,2,9.34,9.34,0,0,1,.28,2.64,6.33,6.33,0,0,1-.33,2.11,5.54,5.54,0,0,0-2-4,10,10,0,0,0-4.8-2.45,30.27,30.27,0,0,0-7.49-.28c.77-.15,1.52-.36,2.29-.5a3.37,3.37,0,0,0,1.73-.71c-1.18.3-2.4.34-3.6.55a12,12,0,0,1-3,.22,11.68,11.68,0,0,1-4.52-1.43,35.5,35.5,0,0,0,3.86,0c1.26-.07,2.52-.14,3.77-.29a16.1,16.1,0,0,1,4.8-.09,1,1,0,0,0,.48-.05,1.15,1.15,0,0,0-.56-.2,22.49,22.49,0,0,0-3.92-.35,32,32,0,0,1-7.73-.95,12.82,12.82,0,0,1-4.9-2.1,1.12,1.12,0,0,1,.73.16,14.83,14.83,0,0,0,6,1.33,53,53,0,0,0,6.17-.14,25,25,0,0,1,4.57.24,12.11,12.11,0,0,1,4,1.47,3.06,3.06,0,0,0-1.21-.85,14,14,0,0,0-3.19-1.15c-2.62-.55-5.32-.48-7.95-.94a21.47,21.47,0,0,1-4.16-1.11c.79-.2,1.59-.29,2.39-.44.54-.13,1.06.2,1.59.3,2.64.7,5.39.48,8.08.76a11.86,11.86,0,0,1,4.87,1.2,4.65,4.65,0,0,1,1.61,1.3c.19-.25-.1-.52-.23-.72a9,9,0,0,0-4.77-2.38c-1.82-.38-3.64-.74-5.45-1.17,1.24-.18,2.49-.25,3.73-.44.28,0,.61-.16.84.08a9.59,9.59,0,0,0,4.37,1.53,37.23,37.23,0,0,1,4.72.81,16.78,16.78,0,0,1,3.35.92,1.45,1.45,0,0,0,.73.22,9,9,0,0,0-3.55-2.79c1,.13,1.94.23,2.89.43a10.74,10.74,0,0,1,2.09,1.17c.4.26.64.68,1,1a3.92,3.92,0,0,0-1.24-1.84,12.61,12.61,0,0,1,1.36.28A5.76,5.76,0,0,1,963,339.83Zm-4.5.75.21.06a.65.65,0,0,0-.43-.52A.94.94,0,0,0,958.48,340.58Zm-2.33.49.2-.18a8,8,0,0,1-.75-.43A2.87,2.87,0,0,1,956.15,341.07Z" transform="translate(-836.63 -215.1)"/><path class="cls-5" d="M962.54,337.64c.23.37.45.75.65,1.14a18.92,18.92,0,0,0-1.39-1.3Z" transform="translate(-836.63 -215.1)"/><path class="cls-4" d="M946.87,452.11c-2.64.66-5.28,1.36-7.89,2.14a64.49,64.49,0,0,0-8,3.08,54,54,0,0,0-8,4.41,34.18,34.18,0,0,0-4.87,4,31.2,31.2,0,0,0-5.12,6.54,10,10,0,0,0-1.23,3.09,4.28,4.28,0,0,0-.09,3c-1.06,0-2.13,0-3.19,0a87.1,87.1,0,0,0-9.56-.15c-1.13,0-2.27.14-3.4.14h-.4c-2-.09-4.09-.29-6.14-.39,0-.25,0-.5,0-.74-1-1-1.74-2.18-2.68-3.19a6.11,6.11,0,0,0-.49-.52c-.47-.46-1-.89-1.44-1.36a23.63,23.63,0,0,0-3.43-2.71,13.49,13.49,0,0,0-1.91-1.1,29.84,29.84,0,0,0-5.23-2.16,44.91,44.91,0,0,0-7.67-1.86,32.31,32.31,0,0,0-3.55-.11c-.81,0-1.63,0-2.44.08a23.81,23.81,0,0,0-4.5.85,22.09,22.09,0,0,0-5.87,2.41c1.34-2.28,2.72-4.53,4.25-6.68,1.38-1.93,2.79-3.84,4.24-5.7s3.09-3.64,4.71-5.38a47.1,47.1,0,0,1,5.12-4.67c2-1.6,4.18-3,6.33-4.45a60.32,60.32,0,0,1,7.75-4.29c2.68-1.22,5.32-2.55,8.09-3.55,2.1-.76,4.16-1.62,6.22-2.45l.2-.08a5.29,5.29,0,0,0,1.3-.71,12.47,12.47,0,0,0,2.65.81,6.89,6.89,0,0,0,.64,3.77,15.54,15.54,0,0,0,2.39,3.65,17.74,17.74,0,0,0,1.52,1.48,35,35,0,0,0,6.7,4.83,67.31,67.31,0,0,0,7.38,3.87c2.38.91,4.8,1.69,7.24,2.44a48,48,0,0,0,8.71,1.72,34.21,34.21,0,0,0,4.85.19,17.07,17.07,0,0,1,2.74-.27c.51,0,1,0,1.52,0C945.17,452.09,946,452.07,946.87,452.11Z" transform="translate(-836.63 -215.1)"/><path class="cls-9" d="M945.35,305c-.12,2.38,0,4.78-.07,7.17-.11.91,0,1.83-.11,2.74,0,1.1,0,2.19,0,3.28-.09,1.38,0,2.75,0,4.13a85.86,85.86,0,0,0-18.17,1.34c-.44-1.61-.94-3.21-1.43-4.82-.56-1.87-.48-3.85-.94-5.73a39,39,0,0,0,7.71-.63,29,29,0,0,0,5.64-2,26.19,26.19,0,0,0,5.81-4C944.28,306.09,944.83,305.57,945.35,305Z" transform="translate(-836.63 -215.1)"/><path class="cls-5" d="M943.17,411.73a3.85,3.85,0,0,1,.27-.3A33.24,33.24,0,0,1,941,415.2a25.72,25.72,0,0,1-6.42,6.93,36.82,36.82,0,0,1-4.54,2.65c-.95.49-2,.81-2.92,1.25l1-.17,0,.07V426a7.32,7.32,0,0,0-1.61.27c-.75.32-1.58.36-2.36.61-.25.08-.5.14-.76.2a13.08,13.08,0,0,1-4.14.19,3.29,3.29,0,0,1-.7-.19,23.83,23.83,0,0,1,3.45-.75,20.92,20.92,0,0,0,2.78-1,19.9,19.9,0,0,0,2.51-1.2,36.8,36.8,0,0,0,4.52-2.68c-1,.48-1.84,1.1-2.83,1.52-1.26.53-2.47,1.17-3.77,1.6a35.39,35.39,0,0,1-4.14,1.17,29.3,29.3,0,0,1-4.72.81,35.13,35.13,0,0,1-5.89-.4c-.31-.08-.68-.07-.92-.31a41.37,41.37,0,0,0,5,0c.72-.07,1.47-.07,2.18-.2a.2.2,0,0,0-.16-.22l.34.05c.16-.08.29-.24.5-.17l-.27.21-.05.07a21.74,21.74,0,0,0,2.22-.54c-.54,0-1,.2-1.58.28-.11,0-.39-.28,0-.23a40.06,40.06,0,0,0,7.47-3.43c1.26-.68,2.43-1.52,3.62-2.29a2,2,0,0,0-.8.31,31.54,31.54,0,0,1-7.23,3.06,46.57,46.57,0,0,1-8.3,1.31,42.93,42.93,0,0,0,7-2.56,52.76,52.76,0,0,0,7.06-4.17,6.63,6.63,0,0,0,1.39-1.19,34,34,0,0,1-6.16,3.35,30.52,30.52,0,0,1-5.1,1.7,12.26,12.26,0,0,1-2.16.4,47.56,47.56,0,0,0,8-3.62,10,10,0,0,0,1.62-1.1,32.56,32.56,0,0,1-7.82,3.28,48.07,48.07,0,0,1-6.06,1.31,13.61,13.61,0,0,1,1.77-.48,33.13,33.13,0,0,0,7.73-3.15,26.22,26.22,0,0,0,3.14-2,2.71,2.71,0,0,0,.84-.7,29.75,29.75,0,0,1-11.22,4.32,48.21,48.21,0,0,0,6-2.89c.8-.41,1.54-.94,2.35-1.34L921,415c-.93.26-1.75.77-2.66,1.1a33.54,33.54,0,0,1-8.64,2.36,6.18,6.18,0,0,1-1.14.07,32.75,32.75,0,0,0,8.16-2.88,34.14,34.14,0,0,0,5.08-3.24c-.95.53-1.8,1.24-2.77,1.74a28.13,28.13,0,0,1-8.41,2.88,11.58,11.58,0,0,1-1.76.21,31.79,31.79,0,0,0,8.08-3.35,6.23,6.23,0,0,0,1.2-.89,24.53,24.53,0,0,1-9.39,2.89c1-.41,2.07-.67,3.06-1.1a46.44,46.44,0,0,0,5.09-2.41,10.93,10.93,0,0,0,1.76-1.16,30.58,30.58,0,0,1-6.19,2.75,29.51,29.51,0,0,1-7.56,1.41,74.32,74.32,0,0,0,7.54-2.7,52.72,52.72,0,0,0,4.77-2.5,35.16,35.16,0,0,1-8.33,2.89c-1.4.29-2.8.53-4.22.74,1-.42,2-.71,3-1.13,1.41-.55,2.78-1.23,4.18-1.82a43.57,43.57,0,0,0,4.06-2,4.66,4.66,0,0,0,1.2-.8,19.81,19.81,0,0,1-3.31,1.6,76.81,76.81,0,0,1-7.34,2.56c-1,.26-2,.48-3,.67a44.22,44.22,0,0,0,5.75-2.9,31.5,31.5,0,0,0,4.45-3.13,6,6,0,0,0,1.9-2.34c-.22,0-.33.22-.46.37a8,8,0,0,1-1.76,1.51,31.17,31.17,0,0,1-6.73,3.31c4-2.54,7.7-5.61,11.5-8.48a48.72,48.72,0,0,1,6.66-4.24,69.06,69.06,0,0,1,7.64-3.47,19.4,19.4,0,0,1,2.57-.76,55.46,55.46,0,0,0-7,3.45,62.18,62.18,0,0,0-5.49,3.92c-1.3,1-2.54,2.08-3.74,3.21a8.2,8.2,0,0,0-1.19,1.24c.38-.13.62-.49,1-.71,1.22-.87,2.42-1.78,3.71-2.57a46.31,46.31,0,0,1,7.05-3.85,60.12,60.12,0,0,0-5.85,4.16,22.19,22.19,0,0,0-2.89,2.59c-.17.22-.41.45-.33.74a41.4,41.4,0,0,1,5.59-4.37,35.88,35.88,0,0,1,6.93-3.66c-2.12,1.7-4.17,3.48-6.17,5.31-1.16,1.12-2.39,2.16-3.44,3.39-.4.49-1,.82-1.23,1.43a73.24,73.24,0,0,1,11.52-8.69,27.4,27.4,0,0,1,3-1.68q-2.94,2.31-5.86,4.64a65.36,65.36,0,0,1-6.17,4.55.52.52,0,0,1,.1.11,41.09,41.09,0,0,0,5.77-3.29c1.57-.95,3.14-1.93,4.72-2.87-1,.89-1.79,1.88-2.73,2.78a60.28,60.28,0,0,1-4.75,4.29,34.29,34.29,0,0,1-4.21,3.1,20,20,0,0,0,3.29-1.92c1.84-1.25,3.72-2.46,5.45-3.85q3.74-3,7.43-6a35.32,35.32,0,0,1-4.4,5.64,25.11,25.11,0,0,1-5,4.12,1,1,0,0,0-.37.35c1.23-.71,2.47-1.37,3.62-2.18a50.89,50.89,0,0,0,5.82-5,47.6,47.6,0,0,1-4.49,5.33,52.7,52.7,0,0,1-6.49,5.33,12,12,0,0,0,3-1.58,38.58,38.58,0,0,0,6.3-4.71c.57-.56,1.18-1.07,1.72-1.66a10.4,10.4,0,0,1,1-1,33.54,33.54,0,0,1-5.24,6,19.65,19.65,0,0,1-3.41,2.45c-.22.12-.77.18-.49.54a20.55,20.55,0,0,0,5.72-3.39,50,50,0,0,0,5.29-5.1,33.33,33.33,0,0,1-5.94,8,21.43,21.43,0,0,1-4.14,3.47,9.56,9.56,0,0,1-2,.77,8.34,8.34,0,0,0,2.32-.43,18.1,18.1,0,0,0,3.06-1.93,38.14,38.14,0,0,0,5.46-5c.84-.92,1.56-1.93,2.35-2.88a53.87,53.87,0,0,1-4.38,5.7,28.49,28.49,0,0,1-5.55,5.31,1.85,1.85,0,0,0-.14.14,5.08,5.08,0,0,0,1.71-.92,36.58,36.58,0,0,0,3.87-3.6c.93-.91,1.79-1.88,2.71-2.79a15.93,15.93,0,0,1-2.06,3.06c-1.52,1.66-3.09,3.29-4.76,4.81a45.86,45.86,0,0,1-5.57,4.23c.83-.36,1.57-.88,2.39-1.28a27.1,27.1,0,0,0,5.07-3.31,21.92,21.92,0,0,0,3.45-3.22,23.31,23.31,0,0,0,1.78-2.55c.23-.38.3-.89.69-1.13a11.14,11.14,0,0,1-1.81,3.83,25,25,0,0,1-4.28,4.62c-.53.48-1.1.91-1.63,1.37,1.11-.69,2.07-1.59,3.14-2.36a21.15,21.15,0,0,0,2.36-2A22.46,22.46,0,0,0,943.17,411.73Z" transform="translate(-836.63 -215.1)"/><path class="cls-5" d="M942.69,415.3a7.88,7.88,0,0,1,1.19-1.19,11.68,11.68,0,0,1-1.25,2.56,24.67,24.67,0,0,1-3.19,3.51,20.25,20.25,0,0,1-3,2.4,20.66,20.66,0,0,1-7.54,3.28c-.21,0-.45.15-.63,0,0,0,0-.07,0-.09a20.34,20.34,0,0,0,6-3.15c1-.71,1.94-1.49,2.94-2.19a37.52,37.52,0,0,0,2.92-2.57C941.06,417.07,941.83,416.14,942.69,415.3Z" transform="translate(-836.63 -215.1)"/><path class="cls-9" d="M923.78,317.05a46,46,0,0,0,1.36,7,100.9,100.9,0,0,0-15.58,4.19,34.41,34.41,0,0,1-1-3.44c-.8-2.55-1.36-5.17-2.1-7.74-.25-.87-.51-1.74-.72-2.62,0-.18-.1-.35-.14-.53a37.74,37.74,0,0,0,3.29-6.42,20.87,20.87,0,0,0,6.44,4,29.57,29.57,0,0,0,8.17,1.63s0,.08,0,.11C923.69,314.51,923.69,315.78,923.78,317.05Z" transform="translate(-836.63 -215.1)"/><path class="cls-5" d="M918.68,429.52a8.86,8.86,0,0,1-1.54,1,11.7,11.7,0,0,1-1.7.75,11.89,11.89,0,0,1-3.17.63,9.54,9.54,0,0,1-6.63-2.17c-.34,0-.69,0-1-.1a21.8,21.8,0,0,1-3.75-.73,26.89,26.89,0,0,1-3.1-1.27,12.26,12.26,0,0,1-2.56-1.41,16.22,16.22,0,0,0,2.31,1.18,28.43,28.43,0,0,0,3,.88c1.6.25,3.23.21,4.85.33.74,0,1.48-.13,2.22-.07,1.16.12,2.31,0,3.47.08a3.74,3.74,0,0,1-1.26.5c-.72.21-1.46.35-2.2.49a13.71,13.71,0,0,0,7.32,1A10.93,10.93,0,0,0,918.68,429.52Z" transform="translate(-836.63 -215.1)"/><path class="cls-5" d="M909.35,346.49a10.21,10.21,0,0,1-1.17,4.32,13.65,13.65,0,0,1-4.2,4.29,45.23,45.23,0,0,0-6.34,4.93,26.25,26.25,0,0,0-4,4.33,31.62,31.62,0,0,1,4-6,12.26,12.26,0,0,1,2.51-2.37c0-.08,0-.25,0-.33-3.17,1.74-5.51,4.59-7.67,7.42a22.83,22.83,0,0,1,4.41-6.51c.48-.6,1.07-1.1,1.55-1.69a6.83,6.83,0,0,0-1,.81c-2.43,2.51-4.94,5.06-6.41,8.28a16.13,16.13,0,0,1,2.38-5.75,25,25,0,0,1,1.93-2.77,5.84,5.84,0,0,0,.85-1c-.34.05-.53.36-.77.56a15,15,0,0,0-2.27,2.57,22.64,22.64,0,0,0-3.21,5.71c-.14.39-.27.78-.44,1.16a15.92,15.92,0,0,1,2.34-7.37,8.84,8.84,0,0,1,1.21-1.63c0-.07,0-.2,0-.27l-.19,0a18.73,18.73,0,0,0-3.09,4.48c-.43.79-.66,1.67-1,2.49a14,14,0,0,1,1.31-4.7c.34-.61.8-1.15,1.15-1.76-2.17,2.53-3,5.88-3.46,9.1a13.83,13.83,0,0,1,.22-4.71,10.57,10.57,0,0,1,2.5-5.25c2-2.31,4.49-4,6.76-6,.53.23,1-.13,1.49-.36a23.72,23.72,0,0,1-2.26,2c-.27.21-.61.34-.78.65a2,2,0,0,0,.72-.33,29.51,29.51,0,0,0,4.41-2.69,10.92,10.92,0,0,1-2.25,2.89,24.78,24.78,0,0,1-2,1.7l.25.1a24.87,24.87,0,0,0,4.73-3.69,8.25,8.25,0,0,1-1.1,2.2c.32.07.59-.17.84-.32a14.48,14.48,0,0,0,1.62-1.88c-.43.88-.93,1.73-1.44,2.58a4.48,4.48,0,0,0-.62,1.16,2.4,2.4,0,0,0,1-.87,22.54,22.54,0,0,0,3.66-5.86,12.16,12.16,0,0,1-1.19,4.65,27.8,27.8,0,0,1-1.16,2.54c-.09.19-.26.39-.14.61a19.65,19.65,0,0,0,2.46-3.54,27.09,27.09,0,0,0,2.54-5.08,11,11,0,0,1-.61,4.22c-.15.56-.43,1.07-.57,1.63a5.05,5.05,0,0,0,1.06-1.62C908.46,348.54,908.87,347.5,909.35,346.49Z" transform="translate(-836.63 -215.1)"/><path class="cls-9" d="M907.24,324.38c.38,1.43.57,2.91,1,4.35-2.73,1-5.45,2.14-8.1,3.37-1.31.63-2.64,1.22-3.89,2-.72-3.07-1.39-6.15-2.27-9.18,0-.09,0-.17-.07-.26a29.79,29.79,0,0,0,11.33-10.07c.23,1.32.52,2.63.8,3.94C906.42,320.45,906.73,322.44,907.24,324.38Z" transform="translate(-836.63 -215.1)"/><path class="cls-5" d="M898.2,420.57c.78-.07,1.54-.22,2.31-.22a16.2,16.2,0,0,1-3.08,1.26,13.17,13.17,0,0,1-8.21-.06,14.3,14.3,0,0,1-4.37-2.17,5.44,5.44,0,0,1-1.69-1.65,10.51,10.51,0,0,0,3.34,2.11,22.79,22.79,0,0,0,7.32,1.21A35.77,35.77,0,0,0,898.2,420.57Z" transform="translate(-836.63 -215.1)"/><path class="cls-4" d="M884,475a17.51,17.51,0,0,1,2.47,3.15c-1.22.2-2.47.17-3.67.42-.48,0-.69.55-.73,1a7.11,7.11,0,0,0,.67,3c.51,1.12.69,2.36,1.31,3.43h-5.33A23.3,23.3,0,0,0,876,486a11.34,11.34,0,0,0,3.2-2.85,6.88,6.88,0,0,0,1.37-4,4.37,4.37,0,0,0-.44-2.26,4.32,4.32,0,0,0-2-1.44,3.76,3.76,0,0,0-2.25,0c-.59.11-1.13.35-1.71.49a10.27,10.27,0,0,1-4.69-.64c-1.21-.51-2.47-.89-3.66-1.47s-2-1.27-3.05-1.79a12.12,12.12,0,0,0-4-1.42,30.41,30.41,0,0,0-3.82.1,12.43,12.43,0,0,0-4.67,1.26,21.3,21.3,0,0,0-5.4,3.88c-.67.66-1.25,1.39-1.87,2.1a28.22,28.22,0,0,1,3.71-5,35.72,35.72,0,0,1,5.54-4.25,21,21,0,0,1,6.81-2.91,16.31,16.31,0,0,1,3.55-.34c.63,0,1.26,0,1.89.05,3,.2,5.83,1.38,8.67,2.32a28.84,28.84,0,0,1,6,2.78,30.46,30.46,0,0,1,3.29,2.59C883,473.81,883.47,474.43,884,475Z" transform="translate(-836.63 -215.1)"/><path class="cls-10" d="M878.53,478.45a2.69,2.69,0,0,0-1.6-.41,21.86,21.86,0,0,1-2.89.51,15.76,15.76,0,0,1-4.47-.61c-2-.7-4-1.19-5.76-2.39a21.18,21.18,0,0,0-4.07-2.23,8.61,8.61,0,0,0-3.9-.43,9.45,9.45,0,0,0-3.45.62,21.9,21.9,0,0,0-3.78,2.12,27.25,27.25,0,0,0-4.15,3.51c-.43.43-.84.87-1.25,1.31a4.47,4.47,0,0,0-1.17,1.71,28.12,28.12,0,0,0-1.71,3.9,16.93,16.93,0,0,0-.74,4.8c0,.7,0,1.4-.06,2.09a31.14,31.14,0,0,1-.58,4.59c0,.26-.06.52-.08.78a8.44,8.44,0,0,0,.15,2.6,15,15,0,0,0,5.62,8.85,17.38,17.38,0,0,0,7,3.27,24.09,24.09,0,0,0,3.7.12c1.1-.36,2.2-.69,3.31-1a26.22,26.22,0,0,1-5.28-3.84,17.62,17.62,0,0,1-2.46-2.92,2.74,2.74,0,0,1-.6-1.11c.68.54,1.29,1.16,2,1.69a16.75,16.75,0,0,0,3.47,2.15,19.11,19.11,0,0,0,2.79,1.3,9.33,9.33,0,0,0,4.29.87,6.26,6.26,0,0,0,2.57-1.13,15,15,0,0,0,2.79-2.48,29.35,29.35,0,0,1-2.67-1.24,38.16,38.16,0,0,1-6.36-4.51,39.17,39.17,0,0,1-5-5.22,6.83,6.83,0,0,1-1.2-1.77,14.22,14.22,0,0,0,1.91,2,37.67,37.67,0,0,0,5.13,4,37.23,37.23,0,0,0,5.51,3,14.35,14.35,0,0,0,4.51,1.32c.62.05,1.09-.42,1.58-.74.86-.69,1.77-1.34,2.62-2.07a4,4,0,0,0,1.4-3.56,3.54,3.54,0,0,0-.88-1.55c-.22-.3-.43-.61-.66-.91a10.2,10.2,0,0,0-1.22-1.41c-.28-.27-.54-.56-.79-.85a9.79,9.79,0,0,0-1.5-1.45c-1.34-1-2.42-2.31-3.79-3.29a16.6,16.6,0,0,1-2.48-2.1,42.75,42.75,0,0,1-5.19-3.05,7.79,7.79,0,0,1-2.48-3.2,9.43,9.43,0,0,1,4.23,1.57,31.66,31.66,0,0,0,4.59,2,17.1,17.1,0,0,0,3,1,15.23,15.23,0,0,0,4.42.08,10.33,10.33,0,0,0,5.42-4.14A2.82,2.82,0,0,0,878.53,478.45Zm94.91-46.77a13.74,13.74,0,0,1-2.05-1.23c-.74-.53-1.39-1.18-2.17-1.64a2.47,2.47,0,0,0-.93-.33,13.26,13.26,0,0,0-1.66-.13,25.22,25.22,0,0,1-6-1,27.89,27.89,0,0,1-9.31-4.81,31.31,31.31,0,0,1-2.9-2.74,12.67,12.67,0,0,1-2.43-2.79,9.58,9.58,0,0,1-1.13,1.49l-3,3a25.32,25.32,0,0,1-7.82,4.87,22.76,22.76,0,0,1-5.47,1.61c-1.5.2-3,.32-4.51.4a1.86,1.86,0,0,0-.33,0,4.67,4.67,0,0,0-2,1.1c-.31.27-.62.51-1,.76a15.2,15.2,0,0,1-2.14,1.32l-.49.23c1.27.55,2.64.83,3.9,1.39,1,.45,2,.87,3.06,1.25,2.15.69,3.85,2.25,5.7,3.48a22.19,22.19,0,0,0,7.78,3.07c1.22.18,2.45.36,3.69.45a22.27,22.27,0,0,0,5,.28c1.69-.25,3.39-.32,5.09-.57a20.78,20.78,0,0,0,7.36-2.37c2.29-1.11,4.07-3,6.42-4,1.22-.47,2.45-.92,3.64-1.47s2.76-.9,4.08-1.47Zm29.15-49.25a41.26,41.26,0,0,0-2.53-8.28,29.94,29.94,0,0,0-8.33-11.07c-2-1.87-4.12-3.65-6.05-5.61a17.5,17.5,0,0,1-3.85-6.1,13.43,13.43,0,0,1-.64-4.95,23.81,23.81,0,0,1,.38-3.18,144.9,144.9,0,0,0-14.28-4.47,16.39,16.39,0,0,1-2.76,8.79,27.43,27.43,0,0,1-4.15,5,32.66,32.66,0,0,1-5.79,3.87,15.51,15.51,0,0,1-5.13,2,7.09,7.09,0,0,1-.91.22,2.28,2.28,0,0,1-.66-1,3.31,3.31,0,0,1-.17-2c.6-1.55,1.82-2.85,2-4.55.16-.8-.55-1.34-1.08-1.81a10.9,10.9,0,0,0-5.07-2.07,46.48,46.48,0,0,0-7.08-.26c-2.46,0-5.06,0-7.33-1.12a11.41,11.41,0,0,1-4.67-4.09,7.84,7.84,0,0,1-.92-2.71c-2.65.69-5.28,1.49-7.88,2.36-1.77.58-3.52,1.2-5.27,1.82a22.62,22.62,0,0,1,.38,3.18,13.61,13.61,0,0,1-2.08,8,21.42,21.42,0,0,1-3.73,4.38c-1.79,1.74-3.72,3.34-5.54,5.07a29.74,29.74,0,0,0-6.86,8.85,42.85,42.85,0,0,0-2.76,7.78,40.91,40.91,0,0,0-.19,19.86,42.89,42.89,0,0,0,2,5.45,41.14,41.14,0,0,0,3,6,18.28,18.28,0,0,0,3.2-.71,33.51,33.51,0,0,0,4.85-2,47,47,0,0,0,6.68-4.08c4-2.79,7.76-6,12.11-8.31a60.32,60.32,0,0,1,7.74-3.36,26.07,26.07,0,0,1,5.56-1.41c.54-.07,1.09-.12,1.64-.15a5.92,5.92,0,0,1-2.52-3.08,4.47,4.47,0,0,1-.26-3.13,5.47,5.47,0,0,1,3.53-3.25c-.28.37-.74.53-1,.86a4.67,4.67,0,0,0-1.32,2.09,3.53,3.53,0,0,0,.4,2.56,3.22,3.22,0,0,0,1.38,1.49c1.25.65,2.71.54,4,.92,1,.2,1.84.85,2.84,1.06a12.42,12.42,0,0,0,2.51.25,8.49,8.49,0,0,0,3.92-.73,11,11,0,0,1,3.78-1,4.13,4.13,0,0,0,2.68-1.24,4.47,4.47,0,0,0,1-2.66,4.31,4.31,0,0,0-1.56-2.89c-.29-.26-.68-.41-.9-.74a5.49,5.49,0,0,1,3.51,3.24,4.5,4.5,0,0,1-.26,3.14,5.86,5.86,0,0,1-2.51,3.08c.55,0,1.09.08,1.64.15a31.18,31.18,0,0,1,7.36,2.08,52.47,52.47,0,0,1,7.46,3.54,75.65,75.65,0,0,1,6.43,4.43,71.6,71.6,0,0,0,11.09,7.24,25.7,25.7,0,0,0,7.8,2.55,57.23,57.23,0,0,0,4.26-9.24,32.78,32.78,0,0,0,1.71-9.37c0-.63.09-1.25.1-1.87A42.44,42.44,0,0,0,1002.59,382.43Zm-74.83-1.83a21.73,21.73,0,0,0-4.33-.53,25.35,25.35,0,0,0-4.69.16,9.43,9.43,0,0,1-1.68.11,8.94,8.94,0,0,1-1.5-4.35,6.93,6.93,0,0,1,3-6.26,6.4,6.4,0,0,1,3.25-1,6.75,6.75,0,0,1,4.92,1.31,7,7,0,0,1,2.72,4.26A8,8,0,0,1,927.76,380.6Zm2-22.8a5.78,5.78,0,0,1-2,3c-.71.61-1.67.26-2.49.17a23.63,23.63,0,0,0-7.73.48,34.32,34.32,0,0,0-6.16,2.07c-.46.24-.64.92-1.23.93a9.54,9.54,0,0,1-1.22-3.61l-.12-.69a8.79,8.79,0,0,1,.16-3.75,4.25,4.25,0,0,1,1.8-2.51,17.94,17.94,0,0,1,3.07-1.53l.08,0a30.59,30.59,0,0,1,7-1.92,13.64,13.64,0,0,1,4.81.12,4.54,4.54,0,0,1,2.65,1.47,5.49,5.49,0,0,1,1.1,2.13A7,7,0,0,1,929.8,357.8Zm46.28,20.14a7,7,0,0,1-1.17,2.43c-1.54-.09-3.06-.38-4.6-.34a27.45,27.45,0,0,0-6.07.57,8,8,0,0,1-1.57-6.87,7,7,0,0,1,5.51-5,8.22,8.22,0,0,1,4.57.6,6.82,6.82,0,0,1,3.64,5A8,8,0,0,1,976.08,377.94Zm6.76-15.82a7.88,7.88,0,0,1-1,2.34c-.62,0-.78-.76-1.3-1a32.64,32.64,0,0,0-8.43-2.46,24.35,24.35,0,0,0-5.66,0c-.71.09-1.52.33-2.14-.16a5.64,5.64,0,0,1-2.18-3.32,8,8,0,0,1,.69-4.33,4.52,4.52,0,0,1,3.27-2.65,13.73,13.73,0,0,1,5-.14,29.77,29.77,0,0,1,7.3,2,10.51,10.51,0,0,1,3.8,2.25,5.32,5.32,0,0,1,1.13,3.07A13.36,13.36,0,0,1,982.84,362.12Zm69.67,131.76c-.12-2.46,0-5-.68-7.37a25.39,25.39,0,0,0-1.82-4.26c-.23-.46-.48-.91-.73-1.36-.65-.56-1.19-1.25-1.82-1.85a26.08,26.08,0,0,0-4.76-3.87,12.17,12.17,0,0,0-5.2-2.19,11.73,11.73,0,0,0-5.14.31,17.88,17.88,0,0,0-3.44,1.8,16.46,16.46,0,0,1-2.48,1.43c-1.1.48-2.26.81-3.39,1.22a15.08,15.08,0,0,1-5.07.81,22,22,0,0,1-2.9-.51,2.74,2.74,0,0,0-1.59.4,2.84,2.84,0,0,0,0,1.53,5.83,5.83,0,0,0,1.64,2.32,11.27,11.27,0,0,0,3,2c1.54.8,3.34.53,5,.38a9.11,9.11,0,0,0,2.84-.79,30.5,30.5,0,0,0,6.15-2.75,8.64,8.64,0,0,1,3.33-1,7.75,7.75,0,0,1-2.79,3.41,45.75,45.75,0,0,1-4.89,2.84,16.11,16.11,0,0,1-2.48,2.1c-1.09.79-2,1.79-3,2.67-.25.22-.51.43-.77.62a22.87,22.87,0,0,0-2.35,2.37,11.5,11.5,0,0,0-1.38,1.65c-.26.35-.51.7-.78,1a3,3,0,0,0-.44.72,1,1,0,0,0-.07.28,4,4,0,0,0,.79,3.08,20.65,20.65,0,0,0,2.63,2.21,7.45,7.45,0,0,0,1.77,1.17,6.27,6.27,0,0,0,2.5-.39,30.77,30.77,0,0,0,5.13-2.24,39.4,39.4,0,0,0,5.87-3.95l.25-.22a26.75,26.75,0,0,0,3.69-3.52,5,5,0,0,1-.9,1.41c-.82,1-1.69,2-2.58,3l-.85.92a52.15,52.15,0,0,1-4.71,3.93,27,27,0,0,1-6.18,3.5,15.28,15.28,0,0,0,2.78,2.48,6.34,6.34,0,0,0,2.59,1.13,9.12,9.12,0,0,0,4.08-.79,34.94,34.94,0,0,0,4.76-2.33,29.36,29.36,0,0,0,3.7-2.88,4.31,4.31,0,0,1-.73,1.24,16.51,16.51,0,0,1-2.29,2.71,26.17,26.17,0,0,1-5.34,3.91c1.1.32,2.21.64,3.3,1a25.48,25.48,0,0,0,3.15-.06,11.26,11.26,0,0,0,3.83-1.12,22.89,22.89,0,0,0,3.82-2.32,14.67,14.67,0,0,0,5.68-10.42C1053.2,497.43,1052.67,495.67,1052.51,493.88Z" transform="translate(-836.63 -215.1)"/><path class="cls-5" d="M927.69,355.58a3.06,3.06,0,0,1-.69,2.78c-.6.59-1.52.45-2.29.47a29.56,29.56,0,0,0-7.88,1.15,19,19,0,0,0-5.51,2.5,9.1,9.1,0,0,1-.79-5.06,2.25,2.25,0,0,1,.71-1.61A12,12,0,0,1,914,354.4a27.7,27.7,0,0,1,7.83-1.7,7.44,7.44,0,0,1,4.59.88A3.51,3.51,0,0,1,927.69,355.58Z" transform="translate(-836.63 -215.1)"/><g class="cls-11"><ellipse class="cls-12" cx="72.27" cy="175.03" rx="11.79" ry="8.11"/><ellipse class="cls-12" cx="146.48" cy="175.03" rx="11.79" ry="8.11"/></g><path class="cls-13" d="M979.84,387a1,1,0,1,1-1-1A1,1,0,0,1,979.84,387Z" transform="translate(-836.63 -215.1)"/><circle class="cls-13" cx="148.28" cy="171.82" r="1.21"/><circle class="cls-13" cx="144.84" cy="175.38" r="1"/><path class="cls-13" d="M987.81,390.15a.75.75,0,0,1-.75.76.76.76,0,1,1,0-1.51A.75.75,0,0,1,987.81,390.15Z" transform="translate(-836.63 -215.1)"/><circle class="cls-13" cx="147.92" cy="177.74" r="0.75"/><path class="cls-13" d="M978.52,390.94a1.27,1.27,0,1,1-1.27-1.27A1.27,1.27,0,0,1,978.52,390.94Z" transform="translate(-836.63 -215.1)"/><circle class="cls-13" cx="75.35" cy="171.88" r="0.97"/><path class="cls-13" d="M904.73,386.92a1.21,1.21,0,1,0,1.21-1.2A1.21,1.21,0,0,0,904.73,386.92Z" transform="translate(-836.63 -215.1)"/><circle class="cls-13" cx="72.75" cy="175.38" r="1"/><path class="cls-13" d="M903,390.15a.76.76,0,1,0,.76-.75A.76.76,0,0,0,903,390.15Z" transform="translate(-836.63 -215.1)"/><circle class="cls-13" cx="69.67" cy="177.74" r="0.75"/><path class="cls-13" d="M912.34,390.94a1.27,1.27,0,1,0,1.27-1.27A1.27,1.27,0,0,0,912.34,390.94Z" transform="translate(-836.63 -215.1)"/><path class="cls-14" d="M915.71,341.42a22.54,22.54,0,0,1-1.88,10.95,40.91,40.91,0,0,1-4.69,8.19l-.22.29c-4.7,6.4-10.55,12.09-13.72,19.35-4.3,9.88-2.71,21.4,2.62,30.85a18.28,18.28,0,0,1-3.2.71,41.14,41.14,0,0,1-3-6,42.89,42.89,0,0,1-2-5.45,40.91,40.91,0,0,1,.19-19.86,42.85,42.85,0,0,1,2.76-7.78,29.74,29.74,0,0,1,6.86-8.85c1.82-1.73,3.75-3.33,5.54-5.07a21.42,21.42,0,0,0,3.73-4.38,13.61,13.61,0,0,0,2.08-8,22.62,22.62,0,0,0-.38-3.18C912.19,342.62,913.94,342,915.71,341.42Z" transform="translate(-836.63 -215.1)"/><path class="cls-14" d="M934.34,386.46a5.86,5.86,0,0,1,2.59-3.82,14.56,14.56,0,0,1,4.33-1.88,4,4,0,0,0-.22,3.76,7.71,7.71,0,0,0,2.52,3,15.22,15.22,0,0,0,11.5,2.9,16.3,16.3,0,0,1-15.69,1.48c-.91-.39-1.72-1-2.63-1.35a3.41,3.41,0,0,1-1.55-1A4,4,0,0,1,934.34,386.46Z" transform="translate(-836.63 -215.1)"/><path class="cls-14" d="M973.84,431.88c-1.32.57-2.76.86-4.08,1.47s-2.42,1-3.64,1.47c-2.35,1-4.13,2.93-6.42,4a20.78,20.78,0,0,1-7.36,2.37c-1.7.25-3.4.32-5.09.57a22.27,22.27,0,0,1-5-.28c-1.24-.09-2.47-.27-3.69-.45a22.19,22.19,0,0,1-7.78-3.07c-1.85-1.23-3.55-2.79-5.7-3.48-1-.38-2.06-.8-3.06-1.25-1.26-.56-2.63-.84-3.9-1.39l.49-.23a15.2,15.2,0,0,0,2.14-1.32,70,70,0,0,0,26.3,4.69,125.5,125.5,0,0,0,26.35-3.34Z" transform="translate(-836.63 -215.1)"/><path class="cls-8" d="M1021.86,309.83a15.6,15.6,0,0,1-1.18,3.51,17.93,17.93,0,0,1-4.59,5.89,16.63,16.63,0,0,1-9.64,3.78,10.38,10.38,0,0,1-4.57-.45A28.25,28.25,0,0,1,990,314.68a57.21,57.21,0,0,1-4.08-5.35c-.49-.69-1-1.39-1.46-2.09s-.94-1.42-1.37-2.15-.68-1.26-1-1.88a1.91,1.91,0,0,1-.27-.16,17.78,17.78,0,0,0,.92,3.36,18.24,18.24,0,0,1-7.93,3,39,39,0,0,1-6.65.49c-2.12-.1-4.23-.23-6.33-.5a18.19,18.19,0,0,1-4.26-1.28,24.17,24.17,0,0,1-2.42-1.13,37.51,37.51,0,0,1-5.69-4.26q-.74-.64-1.44-1.32a3,3,0,0,0-2.4-.85,5.38,5.38,0,0,0-1.28.67c-.74.69-1.49,1.37-2.27,2-1.09.94-2.21,1.84-3.37,2.68a23.41,23.41,0,0,1-6.11,2.93,17.8,17.8,0,0,1-4.28.76,43.21,43.21,0,0,1-7.19.2,26.13,26.13,0,0,1-8.4-1.65,14.48,14.48,0,0,1-3.31-1.78,13.59,13.59,0,0,0,.89-3.38,3,3,0,0,0-.71,1.06,29.89,29.89,0,0,1-1.64,2.73c-1,1.48-2,2.9-3.06,4.35a29.83,29.83,0,0,1-9.72,9.15,28.85,28.85,0,0,1-5.52,2.43,13.44,13.44,0,0,1-5.47.11,16.33,16.33,0,0,1-11.49-7.26,16.65,16.65,0,0,1-2.84-8.5,19.38,19.38,0,0,1,.23-4.43A25.18,25.18,0,0,1,877.79,289l.8-.73a35.44,35.44,0,0,1,5.45-4c2-1.12,4.17-2,6.28-2.88l1.65-.67a14,14,0,0,0-2.11,2.54c-2,3.11-2.51,7.47-.3,10.45,3.37,4.57,10.77,3.46,15.28,0s7.52-8.59,12.08-12c-1,5.38,2.53,10.95,7.47,13.31s10.85,1.95,16,.09,9.71-5,14.2-8.15a15.13,15.13,0,0,0,26.82,5.55,35.24,35.24,0,0,0,40.45,17.34Z" transform="translate(-836.63 -215.1)"/><path class="cls-9" d="M942,303.26c-1.09.94-2.21,1.84-3.37,2.68a23.41,23.41,0,0,1-6.11,2.93,17.8,17.8,0,0,1-4.28.76,43.21,43.21,0,0,1-7.19.2,26.13,26.13,0,0,1-8.4-1.65,14.48,14.48,0,0,1-3.31-1.78,13.59,13.59,0,0,0,.89-3.38,3,3,0,0,0-.71,1.06,29.89,29.89,0,0,1-1.64,2.73c-1,1.48-2,2.9-3.06,4.35a29.83,29.83,0,0,1-9.72,9.15,28.85,28.85,0,0,1-5.52,2.43,13.44,13.44,0,0,1-5.47.11,16.33,16.33,0,0,1-11.49-7.26,16.65,16.65,0,0,1-2.84-8.5,19.38,19.38,0,0,1,.23-4.43A25.18,25.18,0,0,1,877.79,289c-.52,4.52-.71,9.2,1.31,13.21,3.3,6.5,11.78,9.13,18.88,7.43s12.9-6.82,17.49-12.49A20.75,20.75,0,0,0,942,303.26Z" transform="translate(-836.63 -215.1)"/><path class="cls-8" d="M942.45,333.29c1.46,0,2.93.11,4.4.2a64.84,64.84,0,0,0-6.54.17,104.79,104.79,0,0,0-16.87,2.82c-5.59,1.34-11.05,3.17-16.51,5a52,52,0,0,0-8.11,3.42c-.26-1.41-.55-2.8-.88-4.18-.47-1.88-1.07-3.73-1.49-5.62,5.11-2.09,10.2-4.26,15.45-6,1.35-.45,2.72-.86,4.08-1.25a26.7,26.7,0,0,0,10.33,4.29C931.61,333.2,937.05,333.12,942.45,333.29Z" transform="translate(-836.63 -215.1)"/><path class="cls-8" d="M993.6,342.83c-.15.67-.28,1.36-.41,2a50.85,50.85,0,0,0-7.91-3.35c-5.26-1.74-10.51-3.52-15.9-4.84-2.49-.63-5-1.19-7.53-1.66A170.05,170.05,0,0,1,993.6,342.83Z" transform="translate(-836.63 -215.1)"/><path class="cls-5" d="M928,342.75a5.5,5.5,0,0,0,5.92,2.11c.74-.21,1.53-.73,1.56-1.5a1.84,1.84,0,0,0-.91-1.47,4.4,4.4,0,0,0-4-.5" transform="translate(-836.63 -215.1)"/><path class="cls-8" d="M944.31,452.09c-5.15,1-10.49,1-15.73,1.48A72.79,72.79,0,0,0,885.8,473.5c-.47-.46-1-.89-1.44-1.36a23.63,23.63,0,0,0-3.43-2.71,13.49,13.49,0,0,0-1.91-1.1,29.84,29.84,0,0,0-5.23-2.16,44.91,44.91,0,0,0-7.67-1.86,32.31,32.31,0,0,0-3.55-.11c-.81,0-1.63,0-2.44.08a23.81,23.81,0,0,0-4.5.85,22.09,22.09,0,0,0-5.87,2.41c1.34-2.28,2.72-4.53,4.25-6.68,1.38-1.93,2.79-3.84,4.24-5.7s3.09-3.64,4.71-5.38a47.1,47.1,0,0,1,5.12-4.67c2-1.6,4.18-3,6.33-4.45a60.32,60.32,0,0,1,7.75-4.29c2.68-1.22,5.32-2.55,8.09-3.55,2.1-.76,4.16-1.62,6.22-2.45l.2-.08a5.29,5.29,0,0,0,1.3-.71,12.47,12.47,0,0,0,2.65.81,6.89,6.89,0,0,0,.64,3.77,15.54,15.54,0,0,0,2.39,3.65,17.74,17.74,0,0,0,1.52,1.48,35,35,0,0,0,6.7,4.83,67.31,67.31,0,0,0,7.38,3.87c2.38.91,4.8,1.69,7.24,2.44a48,48,0,0,0,8.71,1.72,34.21,34.21,0,0,0,4.85.19,17.07,17.07,0,0,1,2.74-.27C943.3,452.09,943.81,452.09,944.31,452.09Z" transform="translate(-836.63 -215.1)"/><path class="cls-8" d="M962.33,478.18l-.54,0c-1.09-.06-2.18.09-3.28.06-2.22,0-4.45.06-6.67-.07-1.36,0-2.72.05-4.08-.06a25.84,25.84,0,0,1-3.52,0c-1.3.1-2.62.05-3.92.06-2.62.13-5.24,0-7.86.06-1.62-.15-3.24,0-4.86,0-.79,0-1.57-.09-2.35-.07-1.75,0-3.49-.18-5.24,0-.74,0-1.49,0-2.23,0a33.58,33.58,0,0,1,2.55-3.61,39.32,39.32,0,0,1,4.73-4.93,49,49,0,0,1,11.2-7.38c8.81-4.25,18.54-6.2,28.22-7.61a11.78,11.78,0,0,0-8.3,17.56A19.49,19.49,0,0,0,962.33,478.18Z" transform="translate(-836.63 -215.1)"/><path class="cls-8" d="M1026.23,458.84a18.88,18.88,0,0,0-4.92,3.89,7.66,7.66,0,0,0-1.5,3l-1.7.51a27.85,27.85,0,0,0-4.4,1.76,21.07,21.07,0,0,0-2.15,1.15,24.84,24.84,0,0,0-4.44,3.54c-1.59,1.3-2.69,3-4.07,4.55,0,.24,0,.48,0,.73-2.06.11-4.1.3-6.15.4-1.22,0-2.42-.11-3.63-.12a31.58,31.58,0,0,1,33-19.38Z" transform="translate(-836.63 -215.1)"/><path class="cls-14" d="M1024.15,503.87a6.27,6.27,0,0,1-2.5.39,7.45,7.45,0,0,1-1.77-1.17,20.65,20.65,0,0,1-2.63-2.21,4,4,0,0,1-.79-3.08,1,1,0,0,1,.07-.28,3,3,0,0,1,.44-.72c.27-.34.52-.69.78-1a11.5,11.5,0,0,1,1.38-1.65,22.87,22.87,0,0,1,2.35-2.37c.26-.19.52-.4.77-.62a10.29,10.29,0,0,0,7.8,2.41c3.43-.3,6.61-1.83,9.7-3.34a14.92,14.92,0,0,0-3.61,3.83,5.64,5.64,0,0,0-.74,3.44l-.25.22a39.4,39.4,0,0,1-5.87,3.95A30.77,30.77,0,0,1,1024.15,503.87Z" transform="translate(-836.63 -215.1)"/><path class="cls-14" d="M1048.84,508.52a14.18,14.18,0,0,1-1.32,1.14,22.89,22.89,0,0,1-3.82,2.32,11.26,11.26,0,0,1-3.83,1.12,25.48,25.48,0,0,1-3.15.06c-1.09-.37-2.2-.69-3.3-1a26.17,26.17,0,0,0,5.34-3.91,16.51,16.51,0,0,0,2.29-2.71,4.31,4.31,0,0,0,.73-1.24,29.36,29.36,0,0,1-3.7,2.88,34.94,34.94,0,0,1-4.76,2.33,9.12,9.12,0,0,1-4.08.79,6.34,6.34,0,0,1-2.59-1.13,15.28,15.28,0,0,1-2.78-2.48,27,27,0,0,0,6.18-3.5,52.15,52.15,0,0,0,4.71-3.93l.85-.92a3.54,3.54,0,0,0,.36.73,5,5,0,0,0,4.74,1.92,14.91,14.91,0,0,0,5-1.85c-1.13,1.51-.59,3.7.4,5.3A43.09,43.09,0,0,1,1048.84,508.52Z" transform="translate(-836.63 -215.1)"/><path class="cls-14" d="M874.18,501.47c-.85.73-1.76,1.38-2.62,2.07-.49.32-1,.79-1.58.74a14.35,14.35,0,0,1-4.51-1.32,37.23,37.23,0,0,1-5.51-3,37.67,37.67,0,0,1-5.13-4,14.22,14.22,0,0,1-1.91-2,6.83,6.83,0,0,0,1.2,1.77,39.17,39.17,0,0,0,5,5.22,38.16,38.16,0,0,0,6.36,4.51,29.35,29.35,0,0,0,2.67,1.24,15,15,0,0,1-2.79,2.48,6.26,6.26,0,0,1-2.57,1.13,9.33,9.33,0,0,1-4.29-.87,19.11,19.11,0,0,1-2.79-1.3,16.75,16.75,0,0,1-3.47-2.15c-.69-.53-1.3-1.15-2-1.69a2.74,2.74,0,0,0,.6,1.11,17.62,17.62,0,0,0,2.46,2.92,26.22,26.22,0,0,0,5.28,3.84c-1.11.32-2.21.65-3.31,1a24.09,24.09,0,0,1-3.7-.12,17.38,17.38,0,0,1-7-3.27,15,15,0,0,1-5.62-8.85,8.44,8.44,0,0,1-.15-2.6c0-.26,0-.52.08-.78a20.7,20.7,0,0,0,9.87,2.38,4.19,4.19,0,0,0,3.18-1,4.72,4.72,0,0,0,.76-3.28c-.06-2.61-.12-5.23-.17-7.84a14.92,14.92,0,0,0,18.35,5.9l1.09-.47c.25.29.51.58.79.85a10.2,10.2,0,0,1,1.22,1.41c.23.3.44.61.66.91a3.54,3.54,0,0,1,.88,1.55A4,4,0,0,1,874.18,501.47Z" transform="translate(-836.63 -215.1)"/><path class="cls-15" d="M999.17,487.78q-26.26,5.21-52.1,12.37c-4.56,1.27-9.39,2.76-12.41,6.4A14.21,14.21,0,0,0,931.74,517c0,.21,0,.42.07.63-2.4-.16-4.81-.27-7.21-.33-1.36,0-2.71-.11-4.06-.06-2.49-.07-5-.15-7.47-.27-2.92-.14-5.85-.15-8.78-.28-2.29-.15-4.58-.38-6.87-.65-.45-.06-.9-.12-1.34-.22-.16-.25-.32-.51-.47-.77-4.61-8-3.05-17.95-4.23-27.21,3-.11,6-.44,9-.59,4.85-.26,9.69-.65,14.54-.6h7.86c1.18,0,2.36,0,3.53.07h6.81c1.1,0,2.19-.11,3.28-.07s2.18-.11,3.28-.06c.83,0,1.65-.1,2.49-.07,1.31,0,2.62-.18,3.94-.24,2.52.24,5,.3,7.57.32,1.06.1,2.1,0,3.15.05,1.7.12,3.41,0,5.12.07s3.23,0,4.84-.07h11.12c2.81,0,5.61.14,8.4.28,3.36.21,6.72.37,10.08.64C997.3,487.66,998.23,487.73,999.17,487.78Z" transform="translate(-836.63 -215.1)"/><path class="cls-16" d="M1038.75,432.39a6,6,0,0,1-.71,1.38,10.62,10.62,0,0,1-2.8,2.83,9.2,9.2,0,0,1-3.22,1.29c-1.73.39-3.48.72-5.24.94a28.23,28.23,0,0,0-4.19.72,24.77,24.77,0,0,0-4,1.35c-1,.6-2.07,1.05-3.07,1.64-4.39,2.49-8,6.09-11.38,9.82S997.19,460,993.88,464c-1.45,1.75-2.92,3.46-4.31,5.26-1.62,2-3.2,4-4.91,5.95a13.5,13.5,0,0,0-1.67,2.55,2,2,0,0,0-.15.59c-1.18,0-2.36,0-3.54,0l-.15-.57A240.28,240.28,0,0,1,1002.87,450c4.67-4.69,9.64-9.27,15.64-12.05,5.28-2.45,11.1-3.39,16.77-4.69C1036.44,433,1037.6,432.71,1038.75,432.39Z" transform="translate(-836.63 -215.1)"/><path class="cls-16" d="M1018.29,491.58l-.51.64a11.64,11.64,0,0,0-1.54,2.7,39.77,39.77,0,0,0-7-1c-.76-.15-1.53-.15-2.3-.23,0-1,0-2.06,0-3.1Q1012.61,490.88,1018.29,491.58Z" transform="translate(-836.63 -215.1)"/><path class="cls-16" d="M885.16,490.34c0,1.12-.07,2.25,0,3.38a22.17,22.17,0,0,0-2.29.22,39.77,39.77,0,0,0-7,1,11.59,11.59,0,0,0-1.65-2.83l-.23-.3A74.92,74.92,0,0,1,885.16,490.34Z" transform="translate(-836.63 -215.1)"/><path class="cls-17" d="M1055.18,494.79a50.26,50.26,0,0,0-.7-7,17.75,17.75,0,0,0-2.94-6.19,3.72,3.72,0,0,0,.07-1.33,12.12,12.12,0,0,0-1-3.53,23.75,23.75,0,0,0-3.72-5.69,18.51,18.51,0,0,0-1.51-1.43,14.28,14.28,0,0,0-.31-2.15,40.7,40.7,0,0,0-3.27-6.66,67.9,67.9,0,0,0-4.85-6.94,59,59,0,0,0-4.76-5.47,32.64,32.64,0,0,0-2.43-2.42,41.52,41.52,0,0,0-5-4.19c2.26-.42,4.55-.73,6.79-1.26a15.15,15.15,0,0,0,4.46-1.55,11.19,11.19,0,0,0,4.49-5.46,6.58,6.58,0,0,0,.23-3.88,9.77,9.77,0,0,0-2.34-5,10.68,10.68,0,0,0-5.34-3,16.39,16.39,0,0,0-6,.33,25.91,25.91,0,0,0-7.43,3,46.51,46.51,0,0,0-9.92,8.15c-1.18-.48-2.34-1-3.53-1.42a56.32,56.32,0,0,0-6.74-1.93,34.73,34.73,0,0,0-4-.79,10.79,10.79,0,0,0,4.25-4.09,6.88,6.88,0,0,1,.72-1.34c1.5-.49,3.08-.72,4.58-1.18a11.59,11.59,0,0,0,5.64-3.57c1.43-1.62,2-3.76,2.77-5.75.45-1.33,1-2.63,1.35-4a7.14,7.14,0,0,0,0-4.74,1.13,1.13,0,0,0-.35-.57,1.17,1.17,0,0,0-.64,0,15.11,15.11,0,0,1-1.38,3.24,5.16,5.16,0,0,1-2.37,2.2,11.46,11.46,0,0,1-2.81,1.26,47,47,0,0,1-4.78,1.19,17,17,0,0,1-2.53.44,39.93,39.93,0,0,0,2.39-5.24,35.09,35.09,0,0,0,2.5-8.55c.29-2.29.5-4.6.56-6.91,0-.66,0-1.32,0-2a65.37,65.37,0,0,0-1.07-10,9,9,0,0,1,.15-2.59c.28-1.83.64-3.64.9-5.47a8.62,8.62,0,0,1,.4-2.32,11.51,11.51,0,0,0,1.52-5.47,21.52,21.52,0,0,0-.44-3.66,13.19,13.19,0,0,0-5-8.15,56.32,56.32,0,0,0-5.38-3.5l-.78-.47a47.47,47.47,0,0,0,1-5c.43-2.43,1.13-4.81,1.59-7.23.65-3.38,1.16-6.78,1.74-10.16a19.56,19.56,0,0,0,2.92,1,16,16,0,0,0,7.29-.14,19.88,19.88,0,0,0,11.78-8.62c.53-.88,1-1.79,1.5-2.71a21.56,21.56,0,0,0,1.17-14.21,29.12,29.12,0,0,0-11.93-17,24.64,24.64,0,0,0-6.11-3.17,56.33,56.33,0,0,0-8.3-2.44,8.3,8.3,0,0,0-3.51.05,28.27,28.27,0,0,0-12.13-12.58,39,39,0,0,0-9.61-3.5,48.41,48.41,0,0,0-7.72-1.37h-3.83a48.54,48.54,0,0,0-5.91.64,26.18,26.18,0,0,0-6.78,2.39,14.1,14.1,0,0,0-2.59,1.55,14.79,14.79,0,0,0-2.59-1.55,26.44,26.44,0,0,0-6.78-2.39,47.19,47.19,0,0,0-5.92-.64h-3.87a51.28,51.28,0,0,0-8.94,1.7,33,33,0,0,0-13.14,6.37,29,29,0,0,0-7.33,9.38L897,278a13.07,13.07,0,0,0-5.64.64c-2.2.61-4.37,1.34-6.5,2.14a28.93,28.93,0,0,0-10,6.8,28.57,28.57,0,0,0-7,12,25.28,25.28,0,0,0-1,6.41,19.83,19.83,0,0,0,2.49,10.14,20.45,20.45,0,0,0,6.61,7.43,17.36,17.36,0,0,0,13.33,2.84,20.35,20.35,0,0,0,2.92-1c.56,3.35,1.08,6.7,1.71,10,.48,2.54,1.22,5,1.66,7.57a41,41,0,0,0,.94,4.79l-.8.48a54,54,0,0,0-5.44,3.55,13.08,13.08,0,0,0-5,8.09,17.74,17.74,0,0,0-.41,4.82,12.57,12.57,0,0,0,.84,2.93,8.27,8.27,0,0,1,.91,2.44c.24,2.74.93,5.42,1.21,8.15a6.49,6.49,0,0,1-.19,2.1,61.87,61.87,0,0,0-.9,10.61c0,.34,0,.68,0,1,.23,3.72.42,7.52,1.66,11.08a57.69,57.69,0,0,0,3.78,9,16.61,16.61,0,0,1-2.52-.44c-1.62-.29-3.22-.74-4.81-1.19a12.9,12.9,0,0,1-3.37-1.61,4.35,4.35,0,0,1-1.89-2,20.74,20.74,0,0,1-1.19-2.63c-.07-.17-.07-.4-.26-.48s-.56,0-.66.23a7,7,0,0,0-.22,5.1c.35,1.29.86,2.53,1.29,3.81a40.24,40.24,0,0,0,1.55,3.94,10.54,10.54,0,0,0,5.1,4.87c2,1,4.29,1.19,6.41,1.86a6.93,6.93,0,0,1,.71,1.35,10.86,10.86,0,0,0,4.26,4.08l-.18,0a38.47,38.47,0,0,0-4.49.93,46.9,46.9,0,0,0-6.67,2c-2.38.95-4.76,1.9-7.08,3a52.65,52.65,0,0,0-6.29,3.67c-2.2,1.49-4.41,3-6.49,4.62a60.81,60.81,0,0,0-4.69,4.24c-1.67,1.78-3.37,3.53-4.89,5.45q-1.9,2.42-3.71,4.94a55.25,55.25,0,0,0-4.14,7.1,18.77,18.77,0,0,0-1.18,3c-.21.59,0,1.3-.28,1.83a18.63,18.63,0,0,0-3.88,4.65,14.64,14.64,0,0,0-2.32,6.18,4.26,4.26,0,0,0,.09,1.07,19.16,19.16,0,0,0-2.79,5.57,27.61,27.61,0,0,0-.72,6.08c-.07,1.67-.39,3.31-.32,5a15.05,15.05,0,0,0,2.29,7.72,17.6,17.6,0,0,0,4.36,5.34,24.12,24.12,0,0,0,7,4.08,13.64,13.64,0,0,0,3.23.54,7.61,7.61,0,0,0,2.65-.08c.8-.2,1.57-.49,2.37-.68a11.09,11.09,0,0,0,1.88-.59,3.17,3.17,0,0,0,1.09-1.18,7.9,7.9,0,0,0,3.8-.23,10,10,0,0,0,3.44-2.06,6.28,6.28,0,0,0,1.62-1.9,7,7,0,0,0,.68-2.09,5.69,5.69,0,0,0,2.46-1.21,10.05,10.05,0,0,0,2.91-3.38,7.14,7.14,0,0,0,.53-4.85,7,7,0,0,0-.32-1c1.9,0,3.81-.05,5.71.13.94,0,1.87.25,2.82.28a69.68,69.68,0,0,0,.81,9.57,51.64,51.64,0,0,0,1.64,8.19,4.67,4.67,0,0,0,.69,1.54,5.41,5.41,0,0,0,1.68,1.62,17.9,17.9,0,0,0,6.79,2c3.08.3,6.17.63,9.27.63,1.83.13,3.67,0,5.51.11,1.48,0,3,.12,4.45.07,2.31.12,4.62,0,6.94.07,3.45,0,6.9,0,10.33.18,1.76,0,3.51.17,5.26.15a7.46,7.46,0,0,1,1.25.13H941a18.9,18.9,0,0,1,2.82-.18,15.86,15.86,0,0,1,2.75-.15c.69.1,1.39.14,2.08.18a10.66,10.66,0,0,1,2.33.15h1.28a31.07,31.07,0,0,1,3.48-.17c1.53-.05,3.06-.13,4.58-.18,3.49-.17,7-.1,10.48-.11,1.65,0,3.31.05,5-.06,2.75,0,5.5-.17,8.26-.14.7,0,1.39,0,2.09-.05,2.93,0,5.85-.31,8.76-.59a19.17,19.17,0,0,0,5.77-1.34,6.08,6.08,0,0,0,2.49-1.54,5.46,5.46,0,0,0,1-1.5,25.38,25.38,0,0,0,1.15-4.29c.37-2.17.73-4.35,1-6.53a62.22,62.22,0,0,0,.57-7.72,7.87,7.87,0,0,0,1.37-.15,59,59,0,0,1,7.16-.26,5.75,5.75,0,0,0-.23.66,7.14,7.14,0,0,0,.57,5.47,10.58,10.58,0,0,0,2.71,3.06,5.76,5.76,0,0,0,2.53,1.26,6.68,6.68,0,0,0,1,2.66,11.41,11.41,0,0,0,2.55,2.3,7.83,7.83,0,0,0,6,1.32,3.25,3.25,0,0,0,1.09,1.18,17.67,17.67,0,0,0,2.41.73,13.37,13.37,0,0,0,2.79.68,18.24,18.24,0,0,0,2.86-.18,13.59,13.59,0,0,0,5.73-2.17,24.93,24.93,0,0,0,4.53-3.46,17.3,17.3,0,0,0,3.31-4.55,16.33,16.33,0,0,0,2.09-6.21A29,29,0,0,0,1055.18,494.79ZM1049,478a21.36,21.36,0,0,0-4.41-4.24,16.26,16.26,0,0,0-5.44-2.68,24.2,24.2,0,0,0-5.24-.44,10.81,10.81,0,0,0-5,1.58,41.19,41.19,0,0,1-3.61,2c-1,.38-2,.73-2.93,1.12a10.14,10.14,0,0,1-4.6.61,15.82,15.82,0,0,0-2.63-.66,3.69,3.69,0,0,0-2.87,1.06,3.19,3.19,0,0,0-.86,2.63,6.43,6.43,0,0,0,1.09,3.72A10.79,10.79,0,0,0,1016,486c-1.4-.15-2.81,0-4.21-.08h-3.89c.62-1.07.8-2.31,1.31-3.42a7.35,7.35,0,0,0,.66-3c0-.4-.24-.91-.71-1-1.22-.25-2.47-.21-3.69-.42a17.89,17.89,0,0,1,2.6-3.27c.53-.51,1-1.12,1.54-1.61a30.5,30.5,0,0,1,3.23-2.53,29,29,0,0,1,6.07-2.8c2.81-.94,5.59-2.09,8.58-2.29a19.31,19.31,0,0,1,6,.42,21,21,0,0,1,5.63,2.37c1.47.9,2.87,1.91,4.25,2.95A23.39,23.39,0,0,1,1049,478Zm-43.3,6.33a5,5,0,0,1-2.67.29c-3.5-.17-7-.07-10.5-.09-1,.07-1.92.07-2.88.06-3.09.17-6.2,0-9.3.14-1.87,0-3.75.08-5.63.13-1.43,0-2.87.1-4.32.06-3.37,0-6.73.29-10.1.26-1.39,0-2.78.09-4.18.07-3.37,0-6.74,0-10.1.11h-.24c-3.41-.14-6.82-.13-10.23-.12-1.22,0-2.44-.09-3.66-.07-3.84,0-7.68-.29-11.52-.26-2.44-.09-4.9-.08-7.34-.2-1.4.05-2.79-.1-4.19-.06-2.14,0-4.28.06-6.42-.07-1,0-1.93,0-2.89-.06h-5.49c-1.35,0-2.71,0-4.06.06s-2.58.33-3.74-.26a4.39,4.39,0,0,1-.88-1.75c-.21-.65-.52-1.25-.79-1.88,1.49-.21,3-.45,4.48-.58s3-.17,4.46-.24c.66,0,1.32-.06,2-.07,1.3,0,2.62,0,3.93,0,.9.1,1.82,0,2.74.08,1.35.13,2.71,0,4.06.09s2.4,0,3.59.05a19.84,19.84,0,0,0,2,0c1.7.14,3.4,0,5.1.09s3.32.08,5,0c1.49,0,3,.15,4.46.14,2,.11,4-.06,6,0,3.62.18,7.24-.05,10.86,0a17.83,17.83,0,0,0,2.07-.11,18.13,18.13,0,0,1,2.65.11c1.88,0,3.76,0,5.64.05,1.48,0,3,0,4.44,0,1.93-.11,3.85-.07,5.77,0s3.93-.07,5.89-.18c1.79,0,3.58-.07,5.36-.06s3.41.05,5.12-.08c.87,0,1.74,0,2.62-.06a6.91,6.91,0,0,1,.91,0c1.4,0,2.79-.11,4.18-.07,1,0,1.93-.1,2.89-.06s1.66-.1,2.49-.07c1.62,0,3.23-.06,4.84.06s3.24.11,4.86.26c1.46.13,2.91.36,4.36.57-.3.7-.65,1.38-.88,2.11A3.82,3.82,0,0,1,1005.74,484.37ZM1027,447.75c1.72,1.62,3.31,3.35,4.86,5.12,1.81,2.05,3.41,4.27,5,6.47a88.6,88.6,0,0,1,5.34,8.2,21.56,21.56,0,0,0-5.77-2.38,24.1,24.1,0,0,0-4.6-.88,41.12,41.12,0,0,0-6.18.05,47.29,47.29,0,0,0-7.59,1.88,27.85,27.85,0,0,0-4.4,1.76,21.07,21.07,0,0,0-2.15,1.15,24.84,24.84,0,0,0-4.44,3.54c-1.59,1.3-2.69,3-4.07,4.55,0,.24,0,.48,0,.73-2.06.11-4.1.3-6.15.4-1.36,0-2.71-.14-4.06-.13-1.7-.12-3.41,0-5.12-.06-.84.09-1.68,0-2.51.13.62-.78,1.25-1.55,1.92-2.29,1.75-2.09,3.5-4.19,5.2-6.33,3.34-4.06,6.73-8.09,10.29-12,3.45-3.69,6.83-7.52,10.91-10.56a35,35,0,0,1,7.41-4.2A48,48,0,0,1,1027,447.75Zm-16.9-11.51a14.83,14.83,0,0,1,2.66-2.59c1.1-.84,2.1-1.83,3.2-2.7a37,37,0,0,1,5.85-4,23,23,0,0,1,6.74-2.59,12.3,12.3,0,0,1,5.09,0,8,8,0,0,1,2.8,1.48,4.91,4.91,0,0,1,1.75,2.23,12.68,12.68,0,0,1,.73,3,4.3,4.3,0,0,1-.89,2.65,10.62,10.62,0,0,1-2.8,2.83,9.2,9.2,0,0,1-3.22,1.29c-1.73.39-3.48.72-5.24.94a28.23,28.23,0,0,0-4.19.72,24.77,24.77,0,0,0-4,1.35c-1,.6-2.07,1.05-3.07,1.64-4.39,2.49-8,6.09-11.38,9.82S997.19,460,993.88,464c-1.45,1.75-2.92,3.46-4.31,5.26-1.62,2-3.2,4-4.91,5.95a13.5,13.5,0,0,0-1.67,2.55,2,2,0,0,0-.15.59c-2.18,0-4.36-.07-6.55-.1l1.06-1.47c1-1.4,2-2.81,3-4.19,6.17-8.52,12.59-16.86,19.38-24.9,2.82-3.27,5.69-6.52,8.71-9.61C1009,437.43,1009.63,436.92,1010.11,436.24Zm-12.87-5.18c2.68,1.13,5.47,2,8.12,3.23.73.34,1.46.66,2.18,1-3.33,3.6-6.5,7.33-9.7,11.05q-4.94,5.86-9.7,11.91c-3.43,4.39-6.71,8.9-9.73,13.58-.86,1.3-1.62,2.65-2.41,4-.47.8-.94,1.6-1.45,2.39a26.48,26.48,0,0,0-2.82-.1c-1.74-.15-3.48.07-5.22,0a46.44,46.44,0,0,1-4.72,0c-1.09-.06-2.18.09-3.28.06-2.22,0-4.45.06-6.67-.07-1.36,0-2.72.05-4.08-.06a25.84,25.84,0,0,1-3.52,0c-1.3.1-2.62.05-3.92.06-2.62.13-5.24,0-7.86.06-1.62-.15-3.24,0-4.86,0-.79,0-1.57-.09-2.35-.07-1.75,0-3.49-.18-5.24,0-2.15,0-4.29.16-6.44.14.41-1.07.7-2.17,1.06-3.26a22.88,22.88,0,0,1,4.31-5.93,42.72,42.72,0,0,1,5.94-4.8A60,60,0,0,1,931,460.7c2.22-1.2,4.49-2.3,6.82-3.28,2.7-1.14,5.51-2,8.3-2.93,2.32-.74,4.65-1.45,7-2.09a15,15,0,0,1,1.64-.07,55.68,55.68,0,0,0,7.71-1.09,87.29,87.29,0,0,0,8.4-2.53,33.35,33.35,0,0,0,4.61-1.95c1.77-1,3.52-2,5.28-3a35.33,35.33,0,0,0,6.67-5,14.76,14.76,0,0,0,3.48-4.89,6.88,6.88,0,0,0,.51-3.5,12.13,12.13,0,0,0,2.65-.81A16.9,16.9,0,0,0,997.24,431.06Zm-78.59.59a16.09,16.09,0,0,0,3.09-2.08,4.67,4.67,0,0,1,2-1.1,1.86,1.86,0,0,1,.33,0c1.51-.08,3-.2,4.51-.4a22.76,22.76,0,0,0,5.47-1.61,25.32,25.32,0,0,0,7.82-4.87l3-3a9.58,9.58,0,0,0,1.13-1.49,12.67,12.67,0,0,0,2.43,2.79,31.31,31.31,0,0,0,2.9,2.74,27.89,27.89,0,0,0,9.31,4.81,25.22,25.22,0,0,0,6,1,13.26,13.26,0,0,1,1.66.13,2.47,2.47,0,0,1,.93.33c.78.46,1.43,1.11,2.17,1.64a13.64,13.64,0,0,0,2.45,1.43c-1.32.57-2.76.86-4.08,1.47s-2.42,1-3.64,1.47c-2.35,1-4.13,2.93-6.42,4a20.78,20.78,0,0,1-7.36,2.37c-1.7.25-3.4.32-5.09.57a22.27,22.27,0,0,1-5-.28c-1.24-.09-2.47-.27-3.69-.45a22.19,22.19,0,0,1-7.78-3.07c-1.85-1.23-3.55-2.79-5.7-3.48-1-.38-2.06-.8-3.06-1.25-1.26-.56-2.63-.84-3.9-1.39ZM929,423c-1.26.53-2.47,1.17-3.77,1.6a35.39,35.39,0,0,1-4.14,1.17,29.3,29.3,0,0,1-4.72.81,35.13,35.13,0,0,1-5.89-.4c-.31-.08-.68-.07-.92-.31a41.37,41.37,0,0,0,5,0c.72-.07,1.47-.07,2.18-.2a.2.2,0,0,0-.16-.22l.34.05c.16-.08.29-.24.5-.17l-.27.21-.05.07a21.74,21.74,0,0,0,2.22-.54c-.54,0-1,.2-1.58.28-.11,0-.39-.28,0-.23a40.06,40.06,0,0,0,7.47-3.43c1.26-.68,2.43-1.52,3.62-2.29a2,2,0,0,0-.8.31,31.54,31.54,0,0,1-7.23,3.06,46.57,46.57,0,0,1-8.3,1.31,42.93,42.93,0,0,0,7-2.56,52.76,52.76,0,0,0,7.06-4.17,6.63,6.63,0,0,0,1.39-1.19,34,34,0,0,1-6.16,3.35,30.52,30.52,0,0,1-5.1,1.7,12.26,12.26,0,0,1-2.16.4,47.56,47.56,0,0,0,8-3.62,10,10,0,0,0,1.62-1.1,32.56,32.56,0,0,1-7.82,3.28,48.07,48.07,0,0,1-6.06,1.31,13.61,13.61,0,0,1,1.77-.48,33.13,33.13,0,0,0,7.73-3.15,26.22,26.22,0,0,0,3.14-2,2.71,2.71,0,0,0,.84-.7,29.75,29.75,0,0,1-11.22,4.32,48.21,48.21,0,0,0,6-2.89c.8-.41,1.54-.94,2.35-1.34L921,415c-.93.26-1.75.77-2.66,1.1a33.54,33.54,0,0,1-8.64,2.36,6.18,6.18,0,0,1-1.14.07,32.75,32.75,0,0,0,8.16-2.88,34.14,34.14,0,0,0,5.08-3.24c-.95.53-1.8,1.24-2.77,1.74a28.13,28.13,0,0,1-8.41,2.88,11.58,11.58,0,0,1-1.76.21,31.79,31.79,0,0,0,8.08-3.35,6.23,6.23,0,0,0,1.2-.89,24.53,24.53,0,0,1-9.39,2.89c1-.41,2.07-.67,3.06-1.1a46.44,46.44,0,0,0,5.09-2.41,10.93,10.93,0,0,0,1.76-1.16,30.58,30.58,0,0,1-6.19,2.75,29.51,29.51,0,0,1-7.56,1.41,74.32,74.32,0,0,0,7.54-2.7,52.72,52.72,0,0,0,4.77-2.5,35.16,35.16,0,0,1-8.33,2.89c-1.4.29-2.8.53-4.22.74,1-.42,2-.71,3-1.13,1.41-.55,2.78-1.23,4.18-1.82a43.57,43.57,0,0,0,4.06-2,4.66,4.66,0,0,0,1.2-.8,19.81,19.81,0,0,1-3.31,1.6,76.81,76.81,0,0,1-7.34,2.56c-1,.26-2,.48-3,.67a44.22,44.22,0,0,0,5.75-2.9,31.5,31.5,0,0,0,4.45-3.13,6,6,0,0,0,1.9-2.34c-.22,0-.33.22-.46.37a8,8,0,0,1-1.76,1.51,31.17,31.17,0,0,1-6.73,3.31c4-2.54,7.7-5.61,11.5-8.48a48.72,48.72,0,0,1,6.66-4.24,69.06,69.06,0,0,1,7.64-3.47,19.4,19.4,0,0,1,2.57-.76,55.46,55.46,0,0,0-7,3.45,62.18,62.18,0,0,0-5.49,3.92c-1.3,1-2.54,2.08-3.74,3.21a8.2,8.2,0,0,0-1.19,1.24c.38-.13.62-.49,1-.71,1.22-.87,2.42-1.78,3.71-2.57a46.31,46.31,0,0,1,7.05-3.85,60.12,60.12,0,0,0-5.85,4.16,22.19,22.19,0,0,0-2.89,2.59c-.17.22-.41.45-.33.74a41.4,41.4,0,0,1,5.59-4.37,35.88,35.88,0,0,1,6.93-3.66c-2.12,1.7-4.17,3.48-6.17,5.31-1.16,1.12-2.39,2.16-3.44,3.39-.4.49-1,.82-1.23,1.43a73.24,73.24,0,0,1,11.52-8.69,27.4,27.4,0,0,1,3-1.68q-2.94,2.31-5.86,4.64a65.36,65.36,0,0,1-6.17,4.55.52.52,0,0,1,.1.11,41.09,41.09,0,0,0,5.77-3.29c1.57-.95,3.14-1.93,4.72-2.87-1,.89-1.79,1.88-2.73,2.78a60.28,60.28,0,0,1-4.75,4.29,34.29,34.29,0,0,1-4.21,3.1,20,20,0,0,0,3.29-1.92c1.84-1.25,3.72-2.46,5.45-3.85q3.74-3,7.43-6a35.32,35.32,0,0,1-4.4,5.64,25.11,25.11,0,0,1-5,4.12,1,1,0,0,0-.37.35c1.23-.71,2.47-1.37,3.62-2.18a50.89,50.89,0,0,0,5.82-5,47.6,47.6,0,0,1-4.49,5.33,52.7,52.7,0,0,1-6.49,5.33,12,12,0,0,0,3-1.58,38.58,38.58,0,0,0,6.3-4.71c.57-.56,1.18-1.07,1.72-1.66a10.4,10.4,0,0,1,1-1,33.54,33.54,0,0,1-5.24,6,19.65,19.65,0,0,1-3.41,2.45c-.22.12-.77.18-.49.54a20.55,20.55,0,0,0,5.72-3.39,50,50,0,0,0,5.29-5.1,33.33,33.33,0,0,1-5.94,8,21.43,21.43,0,0,1-4.14,3.47,9.56,9.56,0,0,1-2,.77,8.34,8.34,0,0,0,2.32-.43,18.1,18.1,0,0,0,3.06-1.93,38.14,38.14,0,0,0,5.46-5c.84-.92,1.56-1.93,2.35-2.88a53.87,53.87,0,0,1-4.38,5.7,28.49,28.49,0,0,1-5.55,5.31,1.85,1.85,0,0,0-.14.14,5.08,5.08,0,0,0,1.71-.92,36.58,36.58,0,0,0,3.87-3.6c.93-.91,1.79-1.88,2.71-2.79a15.93,15.93,0,0,1-2.06,3.06c-1.52,1.66-3.09,3.29-4.76,4.81a45.86,45.86,0,0,1-5.57,4.23c.83-.36,1.57-.88,2.39-1.28a27.1,27.1,0,0,0,5.07-3.31,21.92,21.92,0,0,0,3.45-3.22,23.31,23.31,0,0,0,1.78-2.55c.23-.38.3-.89.69-1.13a11.14,11.14,0,0,1-1.81,3.83,25,25,0,0,1-4.28,4.62c-.53.48-1.1.91-1.63,1.37,1.11-.69,2.07-1.59,3.14-2.36a21.15,21.15,0,0,0,2.36-2,22.46,22.46,0,0,0,3-3.51,3.85,3.85,0,0,1,.27-.3A33.24,33.24,0,0,1,941,415.2a25.72,25.72,0,0,1-6.42,6.93,36.82,36.82,0,0,1-4.54,2.65c-.95.49-2,.81-2.92,1.25l1-.17,0,.07V426a7.32,7.32,0,0,0-1.61.27c-.75.32-1.58.36-2.36.61-.25.08-.5.14-.76.2a13.08,13.08,0,0,1-4.14.19,3.29,3.29,0,0,1-.7-.19,23.83,23.83,0,0,1,3.45-.75,20.92,20.92,0,0,0,2.78-1,19.9,19.9,0,0,0,2.51-1.2,36.8,36.8,0,0,0,4.52-2.68C930.85,421.92,930,422.54,929,423Zm14.9-8.85a11.68,11.68,0,0,1-1.25,2.56,24.67,24.67,0,0,1-3.19,3.51,20.25,20.25,0,0,1-3,2.4,20.66,20.66,0,0,1-7.54,3.28c-.21,0-.45.15-.63,0,0,0,0-.07,0-.09a20.34,20.34,0,0,0,6-3.15c1-.71,1.94-1.49,2.94-2.19a37.52,37.52,0,0,0,2.92-2.57c.92-.79,1.69-1.72,2.55-2.56A7.88,7.88,0,0,1,943.88,414.11Zm10.78,3.06a17.9,17.9,0,0,1-3.9-4.76,8.13,8.13,0,0,1-1.11-2.67c.27.14.36.44.49.69a13.06,13.06,0,0,0,1.37,2.18,15.11,15.11,0,0,0,2.85,3,30.51,30.51,0,0,0,6.46,4.41c.74.38,1.44.86,2.21,1.17a44.21,44.21,0,0,1-6.33-4.9c-1.57-1.54-3.11-3.1-4.56-4.75-.54-.78-1-1.6-1.49-2.41,1.66,1.7,3.31,3.41,5,5.06a9.74,9.74,0,0,0,3.27,2.24c-.25-.34-.67-.47-1-.74a38.64,38.64,0,0,1-5.36-5.49,47.46,47.46,0,0,1-3.74-5c.83,1,1.6,2.1,2.5,3.06a37.09,37.09,0,0,0,5,4.65,17.77,17.77,0,0,0,3.34,2.15,7.72,7.72,0,0,0,2.24.42,13.39,13.39,0,0,1-1.73-.66,23.65,23.65,0,0,1-4.84-4.09,33.81,33.81,0,0,1-5.43-7.45,46.84,46.84,0,0,0,5.74,5.44,19.26,19.26,0,0,0,5.28,3.06,2.6,2.6,0,0,0,.1-.25,19.91,19.91,0,0,1-4.82-3.49,37.91,37.91,0,0,1-4.42-5.29,49.93,49.93,0,0,0,4.82,4.49,43.1,43.1,0,0,0,4.27,2.94,11.46,11.46,0,0,0,3,1.53,52.5,52.5,0,0,1-6.45-5.28,48.18,48.18,0,0,1-4.52-5.36,54.89,54.89,0,0,0,5.19,4.57,34.79,34.79,0,0,0,4.23,2.64A1.09,1.09,0,0,0,962,408a29.56,29.56,0,0,1-3.93-3,36.37,36.37,0,0,1-5.48-6.76q3.33,2.73,6.7,5.42c1.77,1.45,3.65,2.74,5.55,4a25,25,0,0,0,3.92,2.33,20.15,20.15,0,0,1-2.17-1.47c-1.48-1.17-3-2.35-4.38-3.62-.51-.44-1-.95-1.47-1.4-1.3-1.15-2.42-2.48-3.67-3.68q3.34,2,6.66,4.09a25.32,25.32,0,0,0,3.46,1.91c.15,0,.35.26.47.06a70.46,70.46,0,0,1-6.25-4.62l-5.78-4.59a50.39,50.39,0,0,1,5.91,3.53,64.31,64.31,0,0,1,8.6,6.83s0-.16,0-.21c-.75-.72-1.45-1.47-2.15-2.23-2.78-2.67-5.64-5.26-8.66-7.66a33.78,33.78,0,0,1,6.76,3.55,41.56,41.56,0,0,1,5.75,4.47c.09-.33-.2-.57-.38-.8a36,36,0,0,0-4.61-3.91c-1.32-1-2.69-1.9-4.09-2.78a42.15,42.15,0,0,1,6.58,3.55c1.49.89,2.87,1.91,4.27,2.92.3.22.52.54.88.66a5.82,5.82,0,0,0-1.06-1.1,54.72,54.72,0,0,0-5.82-4.82,45.17,45.17,0,0,0-10.5-5.9,35.83,35.83,0,0,1,7,2.62,57,57,0,0,1,7.89,4.41c3.86,2.66,7.38,5.79,11.26,8.43.73.52,1.5,1,2.24,1.49a31.1,31.1,0,0,1-6.72-3.31,8,8,0,0,1-1.76-1.51c-.14-.15-.25-.34-.46-.38a5.18,5.18,0,0,0,1.61,2.1,33.19,33.19,0,0,0,5.64,3.91,41.6,41.6,0,0,0,4.84,2.36c-3.87-.6-7.5-2.13-11.14-3.51-.91-.37-1.75-.89-2.64-1.31a50.81,50.81,0,0,0,7.6,3.79c1.59.75,3.26,1.31,4.9,1.95a46.31,46.31,0,0,1-7.65-1.64,37.42,37.42,0,0,1-4.91-2,42.55,42.55,0,0,0,7.18,3.5c1.69.61,3.41,1.15,5.12,1.7a31.15,31.15,0,0,1-13.74-4.15,15.39,15.39,0,0,0,2.38,1.5,44.36,44.36,0,0,0,5.5,2.46c.68.27,1.41.43,2.09.73a24.85,24.85,0,0,1-9.45-2.91,17.7,17.7,0,0,0,5,2.81c1.41.55,2.85,1,4.29,1.45a27.21,27.21,0,0,1-10.36-3.2c-.91-.5-1.73-1.14-2.62-1.67a32.28,32.28,0,0,0,13.24,6.14,26.4,26.4,0,0,1-6.92-1.38,44.07,44.07,0,0,1-4.7-1.85,3.44,3.44,0,0,0-.81-.3l.08.21c1.83,1,3.63,2.13,5.54,3,.93.44,1.88.83,2.83,1.23a30,30,0,0,1-11.22-4.32c.23.37.67.54,1,.81a35.72,35.72,0,0,0,5.78,3.26,31.81,31.81,0,0,0,6.27,2.08v-.06l.47.17a3.29,3.29,0,0,1-1.16-.16A40.21,40.21,0,0,1,970,418c-.73-.33-1.39-.77-2.09-1.14a10.2,10.2,0,0,0,1.76,1.18,49.71,49.71,0,0,0,7.86,3.57,30.63,30.63,0,0,1-8.3-2.57,33.35,33.35,0,0,1-5.18-2.91,11,11,0,0,0,1.87,1.52,48.39,48.39,0,0,0,8.33,4.62,52.34,52.34,0,0,0,5.3,1.78,46.72,46.72,0,0,1-8.3-1.31,31.32,31.32,0,0,1-7.23-3.07,2.1,2.1,0,0,0-.8-.3c.83.53,1.64,1.1,2.47,1.62a49,49,0,0,0,7.05,3.55,9.85,9.85,0,0,0,1.86.6l-.25.2a14.57,14.57,0,0,0-1.6-.31,12.81,12.81,0,0,0,2.28.54c-.17-.12-.36-.21-.52-.34a1,1,0,0,1,.61.23l.49,0-.43.13a2.27,2.27,0,0,0,.9.19,49.61,49.61,0,0,0,6.45.14,4.65,4.65,0,0,1-1.7.4,35.58,35.58,0,0,1-4.61.31,20.07,20.07,0,0,1-4.44-.64,32.21,32.21,0,0,1-7.83-2.56,29,29,0,0,1-3.72-1.91c.88.61,1.81,1.17,2.73,1.73s2.07,1.05,3.09,1.63c.7.4,1.5.57,2.22.91a7.39,7.39,0,0,0,1.94.65,20,20,0,0,1,3.25.71,4.38,4.38,0,0,1-1.57.25,12.59,12.59,0,0,1-3.24-.25c-.25-.06-.51-.12-.76-.2-.71-.23-1.47-.27-2.17-.54a2.68,2.68,0,0,0-1-.25l.1-.1c-1.06-.45-2.13-.83-3.15-1.36a36.37,36.37,0,0,1-4.21-2.49c-2.84-1.9-4.89-4.71-6.81-7.48a26.61,26.61,0,0,1-2.06-3.22,13.87,13.87,0,0,1,.87,1.15,34.1,34.1,0,0,0,2.9,3.11c.86.76,1.8,1.43,2.71,2.13a24.32,24.32,0,0,0,2.33,1.74C956.45,418.8,955.51,418,954.66,417.17Zm-5.33-1.87c.87.84,1.63,1.78,2.55,2.56s1.8,1.77,2.83,2.51c1.69,1.2,3.27,2.56,5.06,3.6a16,16,0,0,0,4.8,2,6.88,6.88,0,0,1-2.37-.34,20.44,20.44,0,0,1-6.43-2.92,21,21,0,0,1-3.26-2.62,24,24,0,0,1-3.17-3.51,11.73,11.73,0,0,1-1.2-2.5A9,9,0,0,1,949.33,415.3Zm-29.6,19.81a37.87,37.87,0,0,1,4.17,1.69,18.18,18.18,0,0,1,2.53,1.28c1,.65,2,1.31,3,2a35.74,35.74,0,0,0,3.78,2,30.59,30.59,0,0,0,4.14,1.51,41.08,41.08,0,0,0,4.69.83,25.32,25.32,0,0,0,4.07.35,23.68,23.68,0,0,0,3.86-.35c1.47-.15,2.92-.43,4.36-.72a29.6,29.6,0,0,0,6.05-2.34c2.2-1,4-2.6,6.07-3.75,1.37-.67,2.77-1.27,4.17-1.87,1.14-.49,2.35-.76,3.5-1.22a32,32,0,0,0,3.15-1.43c.2-.15.43-.06.65,0a11.12,11.12,0,0,0,4.63.09,7,7,0,0,0,2.94-1.52,2.81,2.81,0,0,1,1.2-.78c.25-.05.5-.08.75-.11.92-.09,1.86-.07,2.78-.19-.31,2.4-1.93,4.36-3.66,5.94a35.08,35.08,0,0,1-5.95,4.16c-1.07.6-2.2,1.1-3.27,1.7S975.12,443.5,974,444a65.23,65.23,0,0,1-16,4.2c-1.91.26-3.84.5-5.77.59-1.42,0-2.78.56-4.21.41-.86-.09-1.73,0-2.6-.05a16.9,16.9,0,0,1-3.26,0,48.86,48.86,0,0,0-5-.52c-2.47-.29-4.94-.58-7.39-1.05a80.05,80.05,0,0,1-9.61-2.68,50.18,50.18,0,0,1-6.67-3.15,34.23,34.23,0,0,1-5.36-3.15,18.4,18.4,0,0,1-5.35-5.27,7.36,7.36,0,0,1-1-2.75c.88.12,1.78.1,2.66.18a8.48,8.48,0,0,1,.88.13,2.76,2.76,0,0,1,1.2.77,6.74,6.74,0,0,0,2.58,1.42,11.47,11.47,0,0,0,5.37,0c.62.18,1.17.57,1.77.81A23.42,23.42,0,0,0,919.73,435.11Zm73.6-7a17.66,17.66,0,0,1-6.05,1.59l-.89.08a9.72,9.72,0,0,1-8.79,1.84,10.39,10.39,0,0,1-2.25-.8,10.52,10.52,0,0,1-2-1.26,12.7,12.7,0,0,0,7.43,1.12,12.06,12.06,0,0,0,3.68-1c-.75-.14-1.49-.28-2.22-.49a3.64,3.64,0,0,1-1.24-.5c1.15-.06,2.31,0,3.47-.08.74-.06,1.48.09,2.22.07,1.36-.1,2.73-.1,4.09-.23a17.8,17.8,0,0,0,3.73-1,16.5,16.5,0,0,0,2.33-1.19A17.59,17.59,0,0,1,993.33,428.09Zm7.37-7.18a23.89,23.89,0,0,0,4.2-.86,11.69,11.69,0,0,0,2.84-1.39,11,11,0,0,0,1.12-.93,7.43,7.43,0,0,1-2.24,2,14.26,14.26,0,0,1-12,1.84c-.8-.26-1.59-.56-2.38-.88-.21-.1-.5-.16-.58-.43,1.46.21,2.93.32,4.38.58A18,18,0,0,0,1000.7,420.91Zm.49-66.5a11,11,0,0,1,2.85,5.67,14.08,14.08,0,0,1,.23,4.71,23.36,23.36,0,0,0-1.9-6.73,12.49,12.49,0,0,0-1.57-2.37c.35.61.81,1.15,1.15,1.76a14,14,0,0,1,1.32,4.68c-.37-.71-.55-1.5-.93-2.21a18.08,18.08,0,0,0-3.23-4.74l-.18,0v.27a15.37,15.37,0,0,1,3.54,9c-.34-.86-.62-1.75-1-2.58a25.24,25.24,0,0,0-2.69-4.38,14.17,14.17,0,0,0-2.21-2.49c-.24-.22-.44-.5-.76-.57a4.8,4.8,0,0,0,.84,1,28,28,0,0,1,3.32,5.33,14.86,14.86,0,0,1,1,3.2c-1.47-3.21-4-5.77-6.41-8.28a6.39,6.39,0,0,0-1-.81c.3.43.74.73,1.06,1.14,1.9,2.15,3.86,4.36,4.91,7.07-2.16-2.84-4.5-5.69-7.68-7.43,0,.08,0,.25,0,.33a12.36,12.36,0,0,1,2.45,2.29,32.37,32.37,0,0,1,4,6.12,27.54,27.54,0,0,0-2.36-2.82,45.27,45.27,0,0,0-5.71-4.9c-1-.79-2.17-1.47-3.22-2.26a12.77,12.77,0,0,1-3.38-3.86,10.85,10.85,0,0,1-1-4.05c.47,1,.87,2,1.35,2.95a5.75,5.75,0,0,0,1.12,1.71c-.3-.94-.71-1.86-.92-2.83a12.27,12.27,0,0,1-.28-3,33.29,33.29,0,0,0,3,5.81,17.87,17.87,0,0,0,2,2.78c.22-.13,0-.34,0-.5a30.69,30.69,0,0,1-1.29-2.79,11.85,11.85,0,0,1-1.09-4.48,22.08,22.08,0,0,0,4,6.22,1.6,1.6,0,0,0,.74.51,4.8,4.8,0,0,0-.62-1.16c-.51-.84-1-1.69-1.44-2.57.73.83,1.29,1.95,2.44,2.26a13.53,13.53,0,0,1-1.09-2.27,24.62,24.62,0,0,0,4.74,3.69l.25-.1a14.64,14.64,0,0,1-4.24-4.59,21.37,21.37,0,0,0,3.76,2.32,9.81,9.81,0,0,0,1.36.72c-.15-.33-.51-.46-.77-.67a22.51,22.51,0,0,1-2.27-2c.46.23,1,.59,1.49.36A75.2,75.2,0,0,1,1001.19,354.41Zm-5.37-20.34a65.55,65.55,0,0,0-6.43-3.1c-1.83-.79-3.69-1.53-5.57-2.24.39-1.44.57-2.92,1-4.35s.62-2.8.9-4.21c.36-1.88.81-3.73,1.16-5.61a29.54,29.54,0,0,0,11.32,10.07,2.5,2.5,0,0,0-.07.26C997.21,327.92,996.53,331,995.82,334.07Zm-48.91-15.22c-.12-1.47,0-3-.11-4.42,0-.39,0-.78,0-1.17-.16-2.74,0-5.49-.14-8.23a36.24,36.24,0,0,0,5,4.12,24.51,24.51,0,0,0,6.35,2.9,32,32,0,0,0,9.49,1.1c-.34,1.37-.38,2.8-.61,4.2a35.67,35.67,0,0,1-1.16,4.25c-.19.7-.44,1.39-.61,2.1a85.76,85.76,0,0,0-18.16-1.34C946.92,321.19,947,320,946.91,318.85ZM968,319c.33-1.9.25-3.84.45-5.76,0,0,0-.07,0-.11a27.55,27.55,0,0,0,4.69-.64,23.39,23.39,0,0,0,5.15-1.7,23.82,23.82,0,0,0,4.77-3.32,37.7,37.7,0,0,0,3.28,6.42c0,.17-.08.35-.13.53-.24,1-.54,2-.82,3-.49,1.72-.9,3.46-1.36,5.19-.3,1.14-.69,2.26-.95,3.41a12.27,12.27,0,0,1-.66,2.24A101.09,101.09,0,0,0,966.88,324C967.25,322.36,967.7,320.7,968,319Zm-78.43,3.74a13.44,13.44,0,0,1-5.47.11,16.33,16.33,0,0,1-11.49-7.26,16.65,16.65,0,0,1-2.84-8.5,19.38,19.38,0,0,1,.23-4.43A23,23,0,0,1,876,290.8a30.6,30.6,0,0,1,2.64-2.58,35.44,35.44,0,0,1,5.45-4c2-1.12,4.17-2,6.28-2.88a22.22,22.22,0,0,1,6.56-2,20.77,20.77,0,0,0-.8,2.54,29.24,29.24,0,0,0-.5,4.94c0,.7,0,1.4,0,2.09a6.56,6.56,0,0,0,.15,1.77l.2-.08c.31-.76.53-1.56.8-2.35.45-1.42,1-2.82,1.53-4.24a30.37,30.37,0,0,1,1.55-3.83,28.12,28.12,0,0,1,9.8-10.26,32.79,32.79,0,0,1,8-3.49,55.7,55.7,0,0,1,7-1.46,36.54,36.54,0,0,1,6.19-.19,40.44,40.44,0,0,1,9.22,1.3c1.58.44,3.17.89,4.74,1.39a2.3,2.3,0,0,1,.82.49,4.33,4.33,0,0,0,.72,0,2.55,2.55,0,0,1,1.35-.67,57.93,57.93,0,0,1,7.88-2,51.35,51.35,0,0,1,7.34-.53,27.4,27.4,0,0,1,6.13.51,50.19,50.19,0,0,1,6.64,1.61,30.63,30.63,0,0,1,9.61,5.17,28.47,28.47,0,0,1,6.86,8.23,41,41,0,0,1,1.66,4.19c.65,1.7,1.27,3.42,1.81,5.16.16.38.19.86.55,1.11a4.45,4.45,0,0,0,.14-1.41,32.19,32.19,0,0,0-.21-6.13,15.47,15.47,0,0,0-1-3.84,14.83,14.83,0,0,1,4.51,1.19c2.07.82,4.12,1.71,6.15,2.62a27.56,27.56,0,0,1,6.28,3.95,34.35,34.35,0,0,1,5,4.91,23.35,23.35,0,0,1,4,7,22.12,22.12,0,0,1,1.23,6.93,17,17,0,0,1-6.21,13.31,16.63,16.63,0,0,1-9.64,3.78,10.38,10.38,0,0,1-4.57-.45A28.25,28.25,0,0,1,990,314.68a57.21,57.21,0,0,1-4.08-5.35c-.49-.69-1-1.39-1.46-2.09s-.94-1.42-1.37-2.15-.68-1.26-1-1.88a1.91,1.91,0,0,1-.27-.16,17.78,17.78,0,0,0,.92,3.36,18.24,18.24,0,0,1-7.93,3,39,39,0,0,1-6.65.49c-2.12-.1-4.23-.23-6.33-.5a18.19,18.19,0,0,1-4.26-1.28,24.17,24.17,0,0,1-2.42-1.13,37.51,37.51,0,0,1-5.69-4.26q-.74-.64-1.44-1.32a3,3,0,0,0-2.4-.85,5.38,5.38,0,0,0-1.28.67,60.28,60.28,0,0,1-5.64,4.7,23.41,23.41,0,0,1-6.11,2.93,17.8,17.8,0,0,1-4.28.76,43.21,43.21,0,0,1-7.19.2,26.13,26.13,0,0,1-8.4-1.65,14.48,14.48,0,0,1-3.31-1.78,13.59,13.59,0,0,0,.89-3.38,3,3,0,0,0-.71,1.06,29.89,29.89,0,0,1-1.64,2.73c-1,1.48-2,2.9-3.06,4.35a29.83,29.83,0,0,1-9.72,9.15A28.85,28.85,0,0,1,889.58,322.74Zm55.7-10.53c-.11.91,0,1.83-.11,2.74,0,1.1,0,2.19,0,3.28-.09,1.38,0,2.75,0,4.13a85.86,85.86,0,0,0-18.17,1.34c-.44-1.61-.94-3.21-1.43-4.82-.56-1.87-.48-3.85-.94-5.73a39,39,0,0,0,7.71-.63,29,29,0,0,0,5.64-2,26.19,26.19,0,0,0,5.81-4c.57-.48,1.12-1,1.64-1.53C945.23,307.42,945.32,309.82,945.28,312.21Zm-39.64,1.68a37.74,37.74,0,0,0,3.29-6.42,20.87,20.87,0,0,0,6.44,4,29.57,29.57,0,0,0,8.17,1.63s0,.08,0,.11c.13,1.27.13,2.54.22,3.81a46,46,0,0,0,1.36,7,100.9,100.9,0,0,0-15.58,4.19,34.41,34.41,0,0,1-1-3.44c-.8-2.55-1.36-5.17-2.1-7.74-.25-.87-.51-1.74-.72-2.62C905.73,314.24,905.68,314.07,905.64,313.89Zm-11.71,11c0-.09,0-.17-.07-.26a29.79,29.79,0,0,0,11.33-10.07c.23,1.32.52,2.63.8,3.94.43,1.95.74,3.94,1.25,5.88.38,1.43.57,2.91,1,4.35-2.73,1-5.45,2.14-8.1,3.37-1.31.63-2.64,1.22-3.89,2C895.48,331,894.81,327.92,893.93,324.89Zm2.52,10.18c5.11-2.09,10.2-4.26,15.45-6a117.61,117.61,0,0,1,17.56-4.25,94.7,94.7,0,0,1,10.35-1.16c1.79-.05,3.58-.21,5.36-.36l.26,0a7.22,7.22,0,0,0,1.47,0,1.6,1.6,0,0,1,.23,0c2.62.28,5.25.31,7.87.53a117.47,117.47,0,0,1,20.7,3.88,169.47,169.47,0,0,1,19.87,7.31c-.59,2.56-1.44,5.05-2,7.64-.15.71-.29,1.43-.43,2.16a50.85,50.85,0,0,0-7.91-3.35c-5.26-1.74-10.51-3.52-15.9-4.84a106.8,106.8,0,0,0-14.53-2.7,60,60,0,0,0-7.33-.49c-2.4,0-4.81-.07-7.21.17a104.79,104.79,0,0,0-16.87,2.82c-5.59,1.34-11.05,3.17-16.51,5a52,52,0,0,0-8.11,3.42c-.26-1.41-.55-2.8-.88-4.18C897.47,338.81,896.87,337,896.45,335.07Zm65.82,7.06a11.14,11.14,0,0,1,.74,1.14c-.16.85-.22,1.73-.33,2.59a11.16,11.16,0,0,1-1.12,1.84,5.56,5.56,0,0,0-.18-3.4,9,9,0,0,0-1.81-2.75,3.24,3.24,0,0,1-.66-.86l-.18.19a5.75,5.75,0,0,1,.86,1.15,6.18,6.18,0,0,1,1.22,3.31,6.51,6.51,0,0,1-1.24,3.6,6.77,6.77,0,0,0-.56-4.11,12.72,12.72,0,0,0-1.66-2.77,6.75,6.75,0,0,1-.81-1,1.46,1.46,0,0,0-.16.19,5.11,5.11,0,0,1,1.06,1.46,7.5,7.5,0,0,1,1,4.89,7.92,7.92,0,0,1-2.29,3.79,9.74,9.74,0,0,0,.35-4.67,8,8,0,0,0-3.55-5.28,4.53,4.53,0,0,0-.59-.28c.24.23.56.35.82.56a6.82,6.82,0,0,1,2.14,2.94,7.27,7.27,0,0,1-.86,6.55,8.13,8.13,0,0,0-.1-2.65c-.3-1.45-.48-3.09-1.62-4.16a8.36,8.36,0,0,0-3-1.93s0,.13,0,.18a8.32,8.32,0,0,1,1.7,1.26,4.27,4.27,0,0,1,1.54,2,9.34,9.34,0,0,1,.28,2.64,6.33,6.33,0,0,1-.33,2.11,5.54,5.54,0,0,0-2-4,10,10,0,0,0-4.8-2.45,30.27,30.27,0,0,0-7.49-.28c.77-.15,1.52-.36,2.29-.5a3.37,3.37,0,0,0,1.73-.71c-1.18.3-2.4.34-3.6.55a12,12,0,0,1-3,.22,11.68,11.68,0,0,1-4.52-1.43,35.5,35.5,0,0,0,3.86,0c1.26-.07,2.52-.14,3.77-.29a16.1,16.1,0,0,1,4.8-.09,1,1,0,0,0,.48-.05,1.15,1.15,0,0,0-.56-.2,22.49,22.49,0,0,0-3.92-.35,32,32,0,0,1-7.73-.95,12.82,12.82,0,0,1-4.9-2.1,1.12,1.12,0,0,1,.73.16,14.83,14.83,0,0,0,6,1.33,53,53,0,0,0,6.17-.14,25,25,0,0,1,4.57.24,12.11,12.11,0,0,1,4,1.47,3.06,3.06,0,0,0-1.21-.85,14,14,0,0,0-3.19-1.15c-2.62-.55-5.32-.48-7.95-.94a21.47,21.47,0,0,1-4.16-1.11c.79-.2,1.59-.29,2.39-.44.54-.13,1.06.2,1.59.3,2.64.7,5.39.48,8.08.76a11.86,11.86,0,0,1,4.87,1.2,4.65,4.65,0,0,1,1.61,1.3c.19-.25-.1-.52-.23-.72a9,9,0,0,0-4.77-2.38c-1.82-.38-3.64-.74-5.45-1.17,1.24-.18,2.49-.25,3.73-.44.28,0,.61-.16.84.08a9.59,9.59,0,0,0,4.37,1.53,37.23,37.23,0,0,1,4.72.81,16.78,16.78,0,0,1,3.35.92,1.45,1.45,0,0,0,.73.22,9,9,0,0,0-3.55-2.79c1,.13,1.94.23,2.89.43a10.74,10.74,0,0,1,2.09,1.17c.4.26.64.68,1,1a3.92,3.92,0,0,0-1.24-1.84,12.61,12.61,0,0,1,1.36.28,5.76,5.76,0,0,1,2.29,2.54,4.46,4.46,0,0,1,.24,2.75,16.09,16.09,0,0,1-1.6-1.9,4.23,4.23,0,0,0-.7-1A21.84,21.84,0,0,0,962.27,342.13Zm-29.21,2.23a7.68,7.68,0,0,1-3.93-.84A18.36,18.36,0,0,0,933.06,344.36Zm28.74-6.88.74.16c.23.37.45.75.65,1.14A18.92,18.92,0,0,0,961.8,337.48Zm-74,27.31a13.83,13.83,0,0,1,.22-4.71,10.57,10.57,0,0,1,2.5-5.25c2-2.31,4.49-4,6.76-6,.53.23,1-.13,1.49-.36a23.72,23.72,0,0,1-2.26,2c-.27.21-.61.34-.78.65a2,2,0,0,0,.72-.33,29.51,29.51,0,0,0,4.41-2.69,10.92,10.92,0,0,1-2.25,2.89,24.78,24.78,0,0,1-2,1.7l.25.1a24.87,24.87,0,0,0,4.73-3.69,8.25,8.25,0,0,1-1.1,2.2c.32.07.59-.17.84-.32a14.48,14.48,0,0,0,1.62-1.88c-.43.88-.93,1.73-1.44,2.58a4.48,4.48,0,0,0-.62,1.16,2.4,2.4,0,0,0,1-.87,22.54,22.54,0,0,0,3.66-5.86,12.16,12.16,0,0,1-1.19,4.65,27.8,27.8,0,0,1-1.16,2.54c-.09.19-.26.39-.14.61a19.65,19.65,0,0,0,2.46-3.54,27.09,27.09,0,0,0,2.54-5.08,11,11,0,0,1-.61,4.22c-.15.56-.43,1.07-.57,1.63a5.05,5.05,0,0,0,1.06-1.62c.51-1,.92-2,1.4-3a10.21,10.21,0,0,1-1.17,4.32,13.65,13.65,0,0,1-4.2,4.29,45.23,45.23,0,0,0-6.34,4.93,26.25,26.25,0,0,0-4,4.33,31.62,31.62,0,0,1,4-6,12.26,12.26,0,0,1,2.51-2.37c0-.08,0-.25,0-.33-3.17,1.74-5.51,4.59-7.67,7.42a22.83,22.83,0,0,1,4.41-6.51c.48-.6,1.07-1.1,1.55-1.69a6.83,6.83,0,0,0-1,.81c-2.43,2.51-4.94,5.06-6.41,8.28a16.13,16.13,0,0,1,2.38-5.75,25,25,0,0,1,1.93-2.77,5.84,5.84,0,0,0,.85-1c-.34.05-.53.36-.77.56a15,15,0,0,0-2.27,2.57,22.64,22.64,0,0,0-3.21,5.71c-.14.39-.27.78-.44,1.16a15.92,15.92,0,0,1,2.34-7.37,8.84,8.84,0,0,1,1.21-1.63c0-.07,0-.2,0-.27l-.19,0a18.73,18.73,0,0,0-3.09,4.48c-.43.79-.66,1.67-1,2.49a14,14,0,0,1,1.31-4.7c.34-.61.8-1.15,1.15-1.76C889,358.22,888.24,361.57,887.75,364.79Zm3.91,41a42.89,42.89,0,0,1-2-5.45,40.91,40.91,0,0,1,.19-19.86,42.85,42.85,0,0,1,2.76-7.78,29.74,29.74,0,0,1,6.86-8.85c1.82-1.73,3.75-3.33,5.54-5.07a21.42,21.42,0,0,0,3.73-4.38,13.61,13.61,0,0,0,2.08-8,22.62,22.62,0,0,0-.38-3.18c4.33-1.55,8.7-3,13.15-4.18a7.84,7.84,0,0,0,.92,2.71,11.41,11.41,0,0,0,4.67,4.09c2.27,1.11,4.87,1.14,7.33,1.12a46.48,46.48,0,0,1,7.08.26,10.9,10.9,0,0,1,5.07,2.07c.53.47,1.24,1,1.08,1.81-.2,1.7-1.42,3-2,4.55a3.31,3.31,0,0,0,.17,2,2.28,2.28,0,0,0,.66,1,7.09,7.09,0,0,0,.91-.22,15.51,15.51,0,0,0,5.13-2,32.66,32.66,0,0,0,5.79-3.87,27.43,27.43,0,0,0,4.15-5,16.39,16.39,0,0,0,2.76-8.79,144.9,144.9,0,0,1,14.28,4.47,23.81,23.81,0,0,0-.38,3.18,13.43,13.43,0,0,0,.64,4.95,17.5,17.5,0,0,0,3.85,6.1c1.93,2,4,3.74,6.05,5.61a29.94,29.94,0,0,1,8.33,11.07,41.26,41.26,0,0,1,2.53,8.28,42.44,42.44,0,0,1,.88,8.85c0,.62-.05,1.24-.1,1.87a32.78,32.78,0,0,1-1.71,9.37,57.23,57.23,0,0,1-4.26,9.24,25.7,25.7,0,0,1-7.8-2.55A71.6,71.6,0,0,1,978.51,402a75.65,75.65,0,0,0-6.43-4.43,52.47,52.47,0,0,0-7.46-3.54,31.18,31.18,0,0,0-7.36-2.08c-.55-.07-1.09-.12-1.64-.15a5.86,5.86,0,0,0,2.51-3.08,4.5,4.5,0,0,0,.26-3.14,5.49,5.49,0,0,0-3.51-3.24c.22.33.61.48.9.74a4.31,4.31,0,0,1,1.56,2.89,4.47,4.47,0,0,1-1,2.66,4.13,4.13,0,0,1-2.68,1.24,11,11,0,0,0-3.78,1,8.49,8.49,0,0,1-3.92.73,12.42,12.42,0,0,1-2.51-.25c-1-.21-1.84-.86-2.84-1.06-1.33-.38-2.79-.27-4-.92a3.22,3.22,0,0,1-1.38-1.49,3.53,3.53,0,0,1-.4-2.56,4.67,4.67,0,0,1,1.32-2.09c.31-.33.77-.49,1-.86a5.47,5.47,0,0,0-3.53,3.25,4.47,4.47,0,0,0,.26,3.13,5.92,5.92,0,0,0,2.52,3.08c-.55,0-1.1.08-1.64.15a26.07,26.07,0,0,0-5.56,1.41,60.32,60.32,0,0,0-7.74,3.36c-4.35,2.3-8.1,5.52-12.11,8.31a47,47,0,0,1-6.68,4.08,26.16,26.16,0,0,1-8,2.68A41.14,41.14,0,0,1,891.66,405.77Zm-2.44,15.78a14.3,14.3,0,0,1-4.37-2.17,5.44,5.44,0,0,1-1.69-1.65,10.51,10.51,0,0,0,3.34,2.11,22.79,22.79,0,0,0,7.32,1.21,35.77,35.77,0,0,0,4.38-.48c.78-.07,1.54-.22,2.31-.22a16.2,16.2,0,0,1-3.08,1.26A13.17,13.17,0,0,1,889.22,421.55Zm6,4.71a16.22,16.22,0,0,0,2.31,1.18,28.43,28.43,0,0,0,3,.88c1.6.25,3.23.21,4.85.33.74,0,1.48-.13,2.22-.07,1.16.12,2.31,0,3.47.08a3.74,3.74,0,0,1-1.26.5c-.72.21-1.46.35-2.2.49a13.71,13.71,0,0,0,7.32,1,10.93,10.93,0,0,0,3.78-1.16,8.86,8.86,0,0,1-1.54,1,11.7,11.7,0,0,1-1.7.75,11.89,11.89,0,0,1-3.17.63,9.54,9.54,0,0,1-6.63-2.17c-.34,0-.69,0-1-.1a21.8,21.8,0,0,1-3.75-.73,26.89,26.89,0,0,1-3.1-1.27A12.26,12.26,0,0,1,895.2,426.26ZM854,460.86c1.38-1.93,2.79-3.84,4.24-5.7s3.09-3.64,4.71-5.38a47.1,47.1,0,0,1,5.12-4.67c2-1.6,4.18-3,6.33-4.45a60.32,60.32,0,0,1,7.75-4.29c2.68-1.22,5.32-2.55,8.09-3.55,2.1-.76,4.16-1.62,6.22-2.45l.2-.08a5.29,5.29,0,0,0,1.3-.71,12.47,12.47,0,0,0,2.65.81,6.89,6.89,0,0,0,.64,3.77,15.54,15.54,0,0,0,2.39,3.65,17.74,17.74,0,0,0,1.52,1.48,35,35,0,0,0,6.7,4.83,67.31,67.31,0,0,0,7.38,3.87c2.38.91,4.8,1.69,7.24,2.44a48,48,0,0,0,8.71,1.72,34.21,34.21,0,0,0,4.85.19,17.07,17.07,0,0,1,2.74-.27c1.36,0,2.72,0,4.08,0-2.64.66-5.28,1.36-7.89,2.14a64.49,64.49,0,0,0-8,3.08,54,54,0,0,0-8,4.41,34.18,34.18,0,0,0-4.87,4,31.2,31.2,0,0,0-5.12,6.54,10,10,0,0,0-1.23,3.09,4.28,4.28,0,0,0-.09,3c-1.06,0-2.13,0-3.19,0a87.1,87.1,0,0,0-9.56-.15c-1.13,0-2.27.14-3.4.14h-.4c-2-.09-4.09-.29-6.14-.39,0-.25,0-.5,0-.74-1-1-1.74-2.18-2.68-3.19-.58-.69-1.31-1.23-1.93-1.88a23.63,23.63,0,0,0-3.43-2.71,13.49,13.49,0,0,0-1.91-1.1,29.84,29.84,0,0,0-5.23-2.16,44.91,44.91,0,0,0-7.67-1.86,32.31,32.31,0,0,0-3.55-.11c-.81,0-1.63,0-2.44.08a23.81,23.81,0,0,0-4.5.85,22.09,22.09,0,0,0-5.87,2.41C851.1,465.26,852.48,463,854,460.86Zm-7.32,12.19a35.72,35.72,0,0,1,5.54-4.25,21,21,0,0,1,6.81-2.91,16.31,16.31,0,0,1,3.55-.34c.63,0,1.26,0,1.89.05,3,.2,5.83,1.38,8.67,2.32a28.84,28.84,0,0,1,6,2.78,30.46,30.46,0,0,1,3.29,2.59c.58.52,1,1.14,1.6,1.66a17.51,17.51,0,0,1,2.47,3.15c-1.22.2-2.47.17-3.67.42-.48,0-.69.55-.73,1a7.11,7.11,0,0,0,.67,3c.51,1.12.69,2.36,1.31,3.43h-5.33A23.3,23.3,0,0,0,876,486a11.34,11.34,0,0,0,3.2-2.85,6.88,6.88,0,0,0,1.37-4,4.37,4.37,0,0,0-.44-2.26,4.32,4.32,0,0,0-2-1.44,3.76,3.76,0,0,0-2.25,0c-.59.11-1.13.35-1.71.49a10.21,10.21,0,0,1-4.68-.64c-1.22-.51-2.48-.89-3.67-1.47s-2-1.27-3.05-1.79a12.12,12.12,0,0,0-4-1.42,30.41,30.41,0,0,0-3.82.1,12.43,12.43,0,0,0-4.67,1.26,21.3,21.3,0,0,0-5.4,3.88c-.67.66-1.25,1.39-1.87,2.1A28.22,28.22,0,0,1,846.69,473.05Zm27.49,28.42c-.85.73-1.76,1.38-2.62,2.07-.49.32-1,.79-1.58.74a14.35,14.35,0,0,1-4.51-1.32,37.23,37.23,0,0,1-5.51-3,37.67,37.67,0,0,1-5.13-4,14.22,14.22,0,0,1-1.91-2,6.83,6.83,0,0,0,1.2,1.77,39.17,39.17,0,0,0,5,5.22,38.16,38.16,0,0,0,6.36,4.51,29.35,29.35,0,0,0,2.67,1.24,15,15,0,0,1-2.79,2.48,6.26,6.26,0,0,1-2.57,1.13,9.33,9.33,0,0,1-4.29-.87,19.11,19.11,0,0,1-2.79-1.3,16.75,16.75,0,0,1-3.47-2.15c-.69-.53-1.3-1.15-2-1.69a2.74,2.74,0,0,0,.6,1.11,17.62,17.62,0,0,0,2.46,2.92,26.22,26.22,0,0,0,5.28,3.84c-1.11.32-2.21.65-3.31,1a24.09,24.09,0,0,1-3.7-.12,17.38,17.38,0,0,1-7-3.27,15,15,0,0,1-5.62-8.85,8.44,8.44,0,0,1-.15-2.6c.13-1.81.7-3.56.66-5.37,0-.69.1-1.39.06-2.09a16.93,16.93,0,0,1,.74-4.8,28.12,28.12,0,0,1,1.71-3.9,4.47,4.47,0,0,1,1.17-1.71c.41-.44.82-.88,1.25-1.31a27.25,27.25,0,0,1,4.15-3.51,21.9,21.9,0,0,1,3.78-2.12,9.45,9.45,0,0,1,3.45-.62,8.61,8.61,0,0,1,3.9.43,21.18,21.18,0,0,1,4.07,2.23c1.72,1.2,3.81,1.69,5.76,2.39a15.76,15.76,0,0,0,4.47.61,21.86,21.86,0,0,0,2.89-.51,2.69,2.69,0,0,1,1.6.41,2.82,2.82,0,0,1-.26,2.11,10.33,10.33,0,0,1-5.42,4.14,15.23,15.23,0,0,1-4.42-.08,17.1,17.1,0,0,1-3-1,31.66,31.66,0,0,1-4.59-2,9.43,9.43,0,0,0-4.23-1.57,7.79,7.79,0,0,0,2.48,3.2,42.75,42.75,0,0,0,5.19,3.05,16.6,16.6,0,0,0,2.48,2.1c1.37,1,2.45,2.29,3.79,3.29a22.61,22.61,0,0,1,2.29,2.3,10.2,10.2,0,0,1,1.22,1.41c.23.3.44.61.66.91a3.54,3.54,0,0,1,.88,1.55A4,4,0,0,1,874.18,501.47Zm10.93-7.75a22.17,22.17,0,0,0-2.29.22,39.77,39.77,0,0,0-7,1,11.59,11.59,0,0,0-1.65-2.83,9.66,9.66,0,0,0-2.37-2.36,26.13,26.13,0,0,1-2.54-1.89,9.65,9.65,0,0,0,2.08-.06c1.36,0,2.69.35,4,.48,1.79.1,3.58.13,5.37.1a18,18,0,0,0,4.47-.11C885.22,490.08,885.07,491.89,885.11,493.72ZM1005,491.37c-.28,3-.43,6-1,8.9-.41,2.39-.89,4.78-1.43,7.15-.41,1.79-.76,3.59-1.31,5.35a2.66,2.66,0,0,1-.72,1.26,14.87,14.87,0,0,1-6,2,90.46,90.46,0,0,1-9.15.72c-5.24.07-10.46.46-15.7.48-1.22.12-2.45,0-3.68.1-5.55.08-11.08.85-16.62,1-1.67-.06-3.33.17-5,0-3.17,0-6.33-.24-9.48-.48q-5.14-.45-10.29-.57c-1.36,0-2.71-.11-4.06-.06-2.49-.07-5-.15-7.47-.27-2.92-.14-5.85-.15-8.78-.28-2.29-.15-4.58-.38-6.87-.65a15.07,15.07,0,0,1-6-2,2.49,2.49,0,0,1-.68-1.16c-.5-1.55-.82-3.13-1.18-4.71-.74-3.26-1.43-6.54-1.9-9.85-.36-3-.55-6-.85-9.06,0-.43-.11-.85-.19-1.27,0-.08,0-.17,0-.26a22.11,22.11,0,0,0,4.07.15c3.23-.07,6.46-.45,9.69-.61,4.85-.26,9.69-.65,14.54-.6h7.86c1.18,0,2.36,0,3.53.07h6.81c1.1,0,2.19-.11,3.28-.07s2.18-.11,3.28-.06c.83,0,1.65-.1,2.49-.07,1.31,0,2.62-.18,3.94-.24,2.52.24,5,.3,7.57.32,1.06.1,2.1,0,3.15.05,1.7.12,3.41,0,5.12.07s3.23,0,4.84-.07h11.12c2.81,0,5.61.14,8.4.28,3.36.21,6.72.37,10.08.64,2.13.18,4.27.3,6.42.32a25.43,25.43,0,0,0,2.62-.18c0,.15-.06.3-.08.46C1005.15,489.23,1005.08,490.31,1005,491.37Zm4.22,2.57c-.76-.15-1.53-.15-2.3-.23,0-1.82-.1-3.63-.06-5.46a9.4,9.4,0,0,0,2.75.18c1.66-.13,3.33,0,5-.08.91-.08,1.82,0,2.72-.15a26.11,26.11,0,0,1,3.3-.42,10.12,10.12,0,0,0,2.2.05,27.51,27.51,0,0,1-2.54,1.9,10.29,10.29,0,0,0-2.48,2.49,11.64,11.64,0,0,0-1.54,2.7A39.77,39.77,0,0,0,1009.2,493.94Zm42.11,11.38a14.34,14.34,0,0,1-3.79,4.34,22.89,22.89,0,0,1-3.82,2.32,11.26,11.26,0,0,1-3.83,1.12,25.48,25.48,0,0,1-3.15.06c-1.09-.37-2.2-.69-3.3-1a26.17,26.17,0,0,0,5.34-3.91,16.51,16.51,0,0,0,2.29-2.71,4.31,4.31,0,0,0,.73-1.24,29.36,29.36,0,0,1-3.7,2.88,34.94,34.94,0,0,1-4.76,2.33,9.12,9.12,0,0,1-4.08.79,6.34,6.34,0,0,1-2.59-1.13,15.28,15.28,0,0,1-2.78-2.48,27,27,0,0,0,6.18-3.5,52.15,52.15,0,0,0,4.71-3.93c1.18-1.26,2.35-2.55,3.43-3.9a5,5,0,0,0,.9-1.41,30.31,30.31,0,0,1-3.94,3.74,39.4,39.4,0,0,1-5.87,3.95,30.77,30.77,0,0,1-5.13,2.24,6.27,6.27,0,0,1-2.5.39,7.45,7.45,0,0,1-1.77-1.17,20.65,20.65,0,0,1-2.63-2.21,4,4,0,0,1-.79-3.08,1,1,0,0,1,.07-.28,3,3,0,0,1,.44-.72c.27-.34.52-.69.78-1a11.5,11.5,0,0,1,1.38-1.65,22.87,22.87,0,0,1,2.35-2.37c1.35-1,2.43-2.31,3.79-3.29a16.11,16.11,0,0,0,2.48-2.1,45.75,45.75,0,0,0,4.89-2.84,7.75,7.75,0,0,0,2.79-3.41,8.64,8.64,0,0,0-3.33,1,30.5,30.5,0,0,1-6.15,2.75,9.11,9.11,0,0,1-2.84.79c-1.66.15-3.46.42-5-.38a11.27,11.27,0,0,1-3-2,5.83,5.83,0,0,1-1.64-2.32,2.84,2.84,0,0,1,0-1.53,2.74,2.74,0,0,1,1.59-.4,22,22,0,0,0,2.9.51,15.08,15.08,0,0,0,5.07-.81c1.13-.41,2.29-.74,3.39-1.22a16.46,16.46,0,0,0,2.48-1.43,17.88,17.88,0,0,1,3.44-1.8,11.73,11.73,0,0,1,5.14-.31,12.17,12.17,0,0,1,5.2,2.19,26.08,26.08,0,0,1,4.76,3.87c.63.6,1.17,1.29,1.82,1.85.25.45.5.9.73,1.36a25.39,25.39,0,0,1,1.82,4.26c.71,2.4.56,4.91.68,7.37.16,1.79.69,3.55.69,5.36A14.27,14.27,0,0,1,1051.31,505.32Z" transform="translate(-836.63 -215.1)"/><path class="cls-17" d="M1027.3,432.81a6.06,6.06,0,0,0,3.53,0,5.66,5.66,0,0,0,2.25-1.11,3.61,3.61,0,0,0,.94-2.26,2,2,0,0,0-1.13-1.45,4.44,4.44,0,0,0-3.18-.44,7.61,7.61,0,0,0-3.08,1,2.42,2.42,0,0,0-.93,1.82A2.83,2.83,0,0,0,1027.3,432.81Z" transform="translate(-836.63 -215.1)"/><path class="cls-17" d="M964.34,360.86c.62.49,1.43.25,2.14.16a24.35,24.35,0,0,1,5.66,0,32.64,32.64,0,0,1,8.43,2.46c.52.21.68.95,1.3,1a7.88,7.88,0,0,0,1-2.34,13.36,13.36,0,0,0,.46-4.35,5.32,5.32,0,0,0-1.13-3.07,10.51,10.51,0,0,0-3.8-2.25,29.77,29.77,0,0,0-7.3-2,13.73,13.73,0,0,0-5,.14,4.52,4.52,0,0,0-3.27,2.65,8,8,0,0,0-.69,4.33A5.64,5.64,0,0,0,964.34,360.86Zm0-5.17a4.55,4.55,0,0,1,.79-1.68,4.47,4.47,0,0,1,2.71-1.23,19.2,19.2,0,0,1,5.8.38,21.61,21.61,0,0,1,6.31,2.1c.54.3,1.18.62,1.38,1.25a8.8,8.8,0,0,1-.59,6,11.53,11.53,0,0,0-2.64-1.46,30.09,30.09,0,0,0-4.62-1.52,35.89,35.89,0,0,0-6-.66c-.8,0-1.77.15-2.4-.47A3.06,3.06,0,0,1,964.3,355.69Z" transform="translate(-836.63 -215.1)"/><path class="cls-17" d="M972.75,369.35a8.22,8.22,0,0,0-4.57-.6,7,7,0,0,0-5.51,5,8,8,0,0,0,1.57,6.87,27.45,27.45,0,0,1,6.07-.57c1.54,0,3.06.25,4.6.34a7,7,0,0,0,1.17-2.43,8,8,0,0,0,.31-3.54A6.82,6.82,0,0,0,972.75,369.35Z" transform="translate(-836.63 -215.1)"/><path class="cls-17" d="M969.89,469.37a4,4,0,0,0-2-.19,2.78,2.78,0,0,0-1.51,1.09,4.26,4.26,0,0,0,.57,4.83,3.11,3.11,0,0,0,3.81.47,3.85,3.85,0,0,0,1.46-2.07,3.7,3.7,0,0,0-.17-1.89A2.83,2.83,0,0,0,969.89,469.37Z" transform="translate(-836.63 -215.1)"/><path class="cls-17" d="M967.44,461.05a3.45,3.45,0,0,0,2.84-1,3.77,3.77,0,0,0,.8-3.12,3.6,3.6,0,0,0-2.05-2.12,3.19,3.19,0,0,0-2.07,0,2.94,2.94,0,0,0-2.35,2.15,5,5,0,0,0,1,2.95A3.22,3.22,0,0,0,967.44,461.05Z" transform="translate(-836.63 -215.1)"/><path class="cls-17" d="M958.26,340.12a.94.94,0,0,0,.22.46l.21.06A.65.65,0,0,0,958.26,340.12Z" transform="translate(-836.63 -215.1)"/><path class="cls-17" d="M956.15,341.07l.2-.18a8,8,0,0,1-.75-.43A2.87,2.87,0,0,1,956.15,341.07Z" transform="translate(-836.63 -215.1)"/><path class="cls-17" d="M910.14,364.46c.59,0,.77-.69,1.23-.93a34.32,34.32,0,0,1,6.16-2.07,23.63,23.63,0,0,1,7.73-.48c.82.09,1.78.44,2.49-.17a5.78,5.78,0,0,0,2-3,7,7,0,0,0-.29-3.66,5.49,5.49,0,0,0-1.1-2.13,4.54,4.54,0,0,0-2.65-1.47,13.64,13.64,0,0,0-4.81-.12,30.59,30.59,0,0,0-7,1.92,19.23,19.23,0,0,0-3.15,1.56,4.25,4.25,0,0,0-1.8,2.51,8.79,8.79,0,0,0-.16,3.75A11.19,11.19,0,0,0,910.14,364.46Zm.39-7a2.25,2.25,0,0,1,.71-1.61A12,12,0,0,1,914,354.4a27.7,27.7,0,0,1,7.83-1.7,7.44,7.44,0,0,1,4.59.88,3.51,3.51,0,0,1,1.26,2,3.06,3.06,0,0,1-.69,2.78c-.6.59-1.52.45-2.29.47a29.56,29.56,0,0,0-7.88,1.15,19,19,0,0,0-5.51,2.5A9.1,9.1,0,0,1,910.53,357.42Z" transform="translate(-836.63 -215.1)"/><path class="cls-17" d="M926.76,370a6.75,6.75,0,0,0-4.92-1.31,6.4,6.4,0,0,0-3.25,1,6.93,6.93,0,0,0-3,6.26,8.94,8.94,0,0,0,1.5,4.35,9.43,9.43,0,0,0,1.68-.11,25.35,25.35,0,0,1,4.69-.16,21.73,21.73,0,0,1,4.33.53,8,8,0,0,0,1.72-6.33A7,7,0,0,0,926.76,370Z" transform="translate(-836.63 -215.1)"/><path class="cls-17" d="M922.83,469.2a6.24,6.24,0,0,0-1.4.41,3.11,3.11,0,0,0-1.44,2,3.78,3.78,0,0,0-.16,1.91,3.71,3.71,0,0,0,1.86,2.29,3.17,3.17,0,0,0,3.4-.7,4.19,4.19,0,0,0,.46-5A2.6,2.6,0,0,0,922.83,469.2Z" transform="translate(-836.63 -215.1)"/><path class="cls-4" d="M973.39,372.59a1.22,1.22,0,1,1-1.21-1.22A1.22,1.22,0,0,1,973.39,372.59Z" transform="translate(-836.63 -215.1)"/><path class="cls-4" d="M927.39,372.59a1.22,1.22,0,1,1-1.22-1.22A1.22,1.22,0,0,1,927.39,372.59Z" transform="translate(-836.63 -215.1)"/><text x="-836.63" y="-215.1"/></g></g></svg>