<svg id="Layer_1" data-name="Layer 1" xmlns="http://www.w3.org/2000/svg" viewBox="0 0 512 512"><defs><style>.cls-1{fill:#28b873;}</style></defs><title>plusgreen</title><path class="cls-1" d="M256,512C114.84,512,0,397.16,0,256S114.84,0,256,0,512,114.84,512,256,397.16,512,256,512Zm0-480C132.48,32,32,132.48,32,256S132.48,480,256,480,480,379.52,480,256,379.52,32,256,32Z"/><path class="cls-1" d="M368,272H144a16,16,0,0,1,0-32H368a16,16,0,0,1,0,32Z"/><path class="cls-1" d="M256,384a16,16,0,0,1-16-16V144a16,16,0,0,1,32,0V368A16,16,0,0,1,256,384Z"/></svg>