<svg id="Capa_1" data-name="Capa 1" xmlns="http://www.w3.org/2000/svg" viewBox="0 0 512.01 512.01"><defs><style>.cls-1{fill:#fff;}</style></defs><title>searchwhite</title><path class="cls-1" d="M505.75,475.59,360.15,330a201.72,201.72,0,0,0,45.18-127.32C405.33,90.93,314.41,0,202.67,0S0,90.92,0,202.67,90.92,405.34,202.67,405.34A201.62,201.62,0,0,0,330,360.15l145.6,145.6a21.33,21.33,0,0,0,30.17-30.16ZM202.67,362.67c-88.24,0-160-71.77-160-160s71.76-160,160-160,160,71.76,160,160S290.9,362.67,202.67,362.67Z"/></svg>