<svg id="Capa_1" data-name="Capa 1" xmlns="http://www.w3.org/2000/svg" viewBox="0 0 480 480"><defs><style>.cls-1{fill:#28b873;}</style></defs><title>User Green</title><path class="cls-1" d="M240,0C107.66,0,0,107.66,0,240A238.89,238.89,0,0,0,55,392.7c.09.12.1.28.19.39a240.06,240.06,0,0,0,90.63,67.62l1.19.52c2.81,1.19,5.65,2.28,8.5,3.35,1.12.43,2.24.86,3.37,1.27,2.46.88,4.93,1.71,7.42,2.51,1.59.51,3.18,1,4.79,1.5q3.3,1,6.63,1.88c1.95.53,3.92,1,5.89,1.49s4,1,6,1.39c2.24.48,4.5.9,6.78,1.32,1.82.33,3.64.68,5.48,1,2.52.41,5,.73,7.6,1.06,1.64.2,3.27.44,4.92.62,2.88.3,5.78.52,8.69.72,1.35.1,2.7.24,4.06.31q6.38.36,12.87.37c4.33,0,8.62-.13,12.89-.35,1.36-.07,2.7-.22,4.05-.31,2.92-.21,5.82-.42,8.7-.72,1.65-.18,3.28-.42,4.92-.63,2.54-.33,5.08-.65,7.6-1.05,1.83-.3,3.66-.65,5.48-1,2.26-.41,4.53-.84,6.78-1.32,2-.43,4-.9,6-1.38s3.93-1,5.88-1.49c2.23-.59,4.44-1.23,6.64-1.89q2.4-.72,4.79-1.49,3.74-1.2,7.41-2.52c1.13-.4,2.25-.84,3.38-1.26,2.86-1.07,5.69-2.18,8.5-3.35l1.19-.52a240,240,0,0,0,90.62-67.63c.1-.11.11-.27.19-.38A239,239,0,0,0,480,240C480,107.66,372.34,0,240,0Zm97.26,441.76-.36.18c-2.85,1.37-5.76,2.67-8.68,3.93l-2,.85q-3.84,1.61-7.76,3.06c-1.09.41-2.17.81-3.27,1.2-2.31.82-4.63,1.61-7,2.36-1.45.47-2.92.91-4.38,1.34-2.08.62-4.17,1.22-6.28,1.78-1.78.48-3.57.91-5.36,1.33s-3.75.91-5.65,1.31c-2.07.44-4.16.81-6.24,1.19-1.69.31-3.37.64-5.07.91-2.34.37-4.71.66-7.07,1-1.5.19-3,.42-4.5.58-2.69.28-5.41.47-8.13.66-1.2.08-2.4.22-3.63.28Q246,464,240,464t-11.9-.32c-1.22-.06-2.42-.19-3.64-.28-2.72-.18-5.43-.38-8.12-.66-1.52-.16-3-.39-4.5-.58-2.36-.3-4.73-.59-7.07-1-1.71-.27-3.39-.6-5.07-.91-2.09-.38-4.18-.76-6.24-1.19-1.9-.4-3.78-.86-5.65-1.31s-3.59-.85-5.36-1.33c-2.11-.56-4.2-1.16-6.28-1.78-1.47-.43-2.93-.87-4.39-1.34-2.34-.75-4.67-1.54-7-2.36l-3.27-1.2q-3.91-1.45-7.76-3.06c-.67-.27-1.32-.56-2-.84-2.93-1.26-5.83-2.56-8.7-3.94l-.35-.17a225.07,225.07,0,0,1-72.57-55.95A176.58,176.58,0,0,1,185.74,264.7c1.11.68,2.27,1.29,3.41,1.93.67.38,1.34.78,2,1.14,2.38,1.26,4.8,2.45,7.27,3.51,1.9.83,3.86,1.54,5.81,2.26l1.15.42a102.09,102.09,0,0,0,69.19,0l1.15-.42c2-.72,3.92-1.43,5.81-2.26,2.47-1.06,4.89-2.25,7.27-3.51.68-.37,1.35-.76,2-1.14,1.14-.64,2.31-1.25,3.43-1.93A176.6,176.6,0,0,1,409.83,385.81,225.32,225.32,0,0,1,337.26,441.76ZM152,176a88,88,0,1,1,135.87,73.74,85.61,85.61,0,0,1-9.8,5.48c-.4.19-.79.39-1.19.57a90,90,0,0,1-73.76,0c-.4-.18-.8-.38-1.19-.57a84.77,84.77,0,0,1-9.8-5.48A88,88,0,0,1,152,176ZM421.83,370.58A192.75,192.75,0,0,0,309.46,253.19a104,104,0,1,0-138.91,0A192.77,192.77,0,0,0,58.18,370.58,222.64,222.64,0,0,1,16,240C16,116.49,116.49,16,240,16S464,116.49,464,240A222.7,222.7,0,0,1,421.83,370.58Z"/></svg>